NotoSansMath-Regular.ufo
<glyph name="seven" format="2">
  <advance width="572"/>
  <unicode hex="0037"/>
  <unicode hex="1D7E9"/>
  <anchor x="283" y="357" name="center"/>
  <outline>
    <contour>
      <point x="136" y="0" type="line"/>
      <point x="233" y="0" type="line"/>
      <point x="523" y="646" type="line"/>
      <point x="523" y="714" type="line"/>
      <point x="44" y="714" type="line"/>
      <point x="44" y="634" type="line"/>
      <point x="429" y="634" type="line"/>
    </contour>
  </outline>
</glyph>
<glyph name="less" format="2">
  <advance width="572"/>
  <unicode hex="003C"/>
  <anchor x="285" y="278" name="center"/>
  <outline>
    <contour>
      <point x="521" y="42" type="line"/>
      <point x="521" y="120" type="line"/>
      <point x="144" y="278" type="line"/>
      <point x="521" y="456" type="line"/>
      <point x="521" y="534" type="line"/>
      <point x="50" y="299" type="line"/>
      <point x="50" y="249" type="line"/>
    </contour>
  </outline>
</glyph>
<glyph name="equal" format="2">
  <advance width="572"/>
  <unicode hex="003D"/>
  <anchor x="286" y="278" name="center"/>
  <outline>
    <contour>
      <point x="51" y="342" type="line"/>
      <point x="521" y="342" type="line"/>
      <point x="521" y="413" type="line"/>
      <point x="51" y="413" type="line"/>
    </contour>
    <contour>
      <point x="51" y="143" type="line"/>
      <point x="521" y="143" type="line"/>
      <point x="521" y="214" type="line"/>
      <point x="51" y="214" type="line"/>
    </contour>
  </outline>
</glyph>
<glyph name="H" format="2">
  <advance width="741"/>
  <unicode hex="0048"/>
  <unicode hex="1D5A7"/>
  <anchor x="368" y="0" name="bottom"/>
  <anchor x="371" y="357" name="center"/>
  <anchor x="371" y="0" name="math.ta"/>
  <anchor x="371" y="714" name="top"/>
  <anchor x="721" y="714" name="topright"/>
  <outline>
    <contour>
      <point x="97" y="0" type="line"/>
      <point x="187" y="0" type="line"/>
      <point x="187" y="333" type="line"/>
      <point x="553" y="333" type="line"/>
      <point x="553" y="0" type="line"/>
      <point x="643" y="0" type="line"/>
      <point x="643" y="714" type="line"/>
      <point x="553" y="714" type="line"/>
      <point x="553" y="412" type="line"/>
      <point x="187" y="412" type="line"/>
      <point x="187" y="714" type="line"/>
      <point x="97" y="714" type="line"/>
    </contour>
  </outline>
</glyph>
<glyph name="J" format="2">
  <advance width="371"/>
  <unicode hex="004A"/>
  <unicode hex="1D5A9"/>
  <anchor x="94" y="-170" name="bottom"/>
  <anchor x="150" y="262" name="center"/>
  <anchor x="235" y="0" name="math.ta"/>
  <anchor x="235" y="714" name="top"/>
  <anchor x="351" y="714" name="topright"/>
  <outline>
    <contour>
      <point x="94" y="-190" type="curve" smooth="yes"/>
      <point x="206" y="-190"/>
      <point x="280" y="-127"/>
      <point x="280" y="11" type="curve" smooth="yes"/>
      <point x="280" y="714" type="line"/>
      <point x="190" y="714" type="line"/>
      <point x="190" y="4" type="line" smooth="yes"/>
      <point x="190" y="-87"/>
      <point x="142" y="-111"/>
      <point x="92" y="-111" type="curve" smooth="yes"/>
      <point x="65" y="-111"/>
      <point x="41" y="-107"/>
      <point x="20" y="-101" type="curve"/>
      <point x="20" y="-177" type="line"/>
      <point x="38" y="-185"/>
      <point x="62" y="-190"/>
    </contour>
  </outline>
</glyph>
<glyph name="X" format="2">
  <advance width="586"/>
  <unicode hex="0058"/>
  <unicode hex="1D5B7"/>
  <anchor x="293" y="0" name="bottom"/>
  <anchor x="293" y="357" name="center"/>
  <anchor x="292" y="0" name="math.ta"/>
  <anchor x="292" y="714" name="top"/>
  <anchor x="566" y="714" name="topright"/>
  <outline>
    <contour>
      <point x="4" y="0" type="line"/>
      <point x="99" y="0" type="line"/>
      <point x="291" y="310" type="line"/>
      <point x="480" y="0" type="line"/>
      <point x="582" y="0" type="line"/>
      <point x="344" y="374" type="line"/>
      <point x="565" y="714" type="line"/>
      <point x="470" y="714" type="line"/>
      <point x="294" y="434" type="line"/>
      <point x="119" y="714" type="line"/>
      <point x="19" y="714" type="line"/>
      <point x="241" y="372" type="line"/>
    </contour>
  </outline>
</glyph>
<glyph name="bracketright" format="2">
  <advance width="329"/>
  <unicode hex="005D"/>
  <anchor x="137" y="313" name="center"/>
  <outline>
    <contour>
      <point x="25" y="-158" type="line"/>
      <point x="249" y="-158" type="line"/>
      <point x="249" y="784" type="line"/>
      <point x="25" y="784" type="line"/>
      <point x="25" y="712" type="line"/>
      <point x="163" y="712" type="line"/>
      <point x="163" y="-86" type="line"/>
      <point x="25" y="-86" type="line"/>
    </contour>
  </outline>
</glyph>
<glyph name="underscore" format="2">
  <advance width="444"/>
  <unicode hex="005F"/>
  <anchor x="222" y="-126" name="center"/>
  <outline>
    <contour>
      <point x="0" y="-131" type="line"/>
      <point x="444" y="-131" type="line"/>
      <point x="444" y="-60" type="line"/>
      <point x="0" y="-60" type="line"/>
    </contour>
  </outline>
</glyph>
<glyph name="x" format="2">
  <advance width="529"/>
  <unicode hex="0078"/>
  <unicode hex="1D5D1"/>
  <anchor x="265" y="0" name="bottom"/>
  <anchor x="264" y="268" name="center"/>
  <anchor x="263" y="0" name="math.ta"/>
  <anchor x="263" y="536" name="top"/>
  <anchor x="509" y="536" name="topright"/>
  <outline>
    <contour>
      <point x="18" y="0" type="line"/>
      <point x="117" y="0" type="line"/>
      <point x="265" y="214" type="line"/>
      <point x="411" y="0" type="line"/>
      <point x="511" y="0" type="line"/>
      <point x="316" y="274" type="line"/>
      <point x="501" y="536" type="line"/>
      <point x="402" y="536" type="line"/>
      <point x="265" y="334" type="line"/>
      <point x="127" y="536" type="line"/>
      <point x="27" y="536" type="line"/>
      <point x="212" y="274" type="line"/>
    </contour>
  </outline>
</glyph>
<glyph name="braceleft" format="2">
  <advance width="380"/>
  <unicode hex="007B"/>
  <anchor x="188" y="313" name="center"/>
  <outline>
    <contour>
      <point x="348" y="-158" type="curve"/>
      <point x="348" y="-86" type="line"/>
      <point x="277" y="-86"/>
      <point x="237" y="-58"/>
      <point x="237" y="7" type="curve" smooth="yes"/>
      <point x="237" y="189" type="line" smooth="yes"/>
      <point x="237" y="257"/>
      <point x="202" y="298"/>
      <point x="128" y="311" type="curve"/>
      <point x="128" y="317" type="line"/>
      <point x="201" y="330"/>
      <point x="237" y="371"/>
      <point x="237" y="439" type="curve" smooth="yes"/>
      <point x="237" y="618" type="line" smooth="yes"/>
      <point x="237" y="683"/>
      <point x="277" y="712"/>
      <point x="348" y="712" type="curve"/>
      <point x="348" y="784" type="line"/>
      <point x="231" y="784"/>
      <point x="150" y="732"/>
      <point x="150" y="626" type="curve" smooth="yes"/>
      <point x="150" y="443" type="line" smooth="yes"/>
      <point x="150" y="375"/>
      <point x="107" y="352"/>
      <point x="28" y="350" type="curve"/>
      <point x="28" y="277" type="line"/>
      <point x="107" y="277"/>
      <point x="150" y="251"/>
      <point x="150" y="183" type="curve" smooth="yes"/>
      <point x="150" y="1" type="line" smooth="yes"/>
      <point x="150" y="-105"/>
      <point x="231" y="-158"/>
    </contour>
  </outline>
</glyph>
<glyph name="bar" format="2">
  <advance width="433"/>
  <unicode hex="007C"/>
  <anchor x="216" y="325" name="center"/>
  <outline>
    <contour>
      <point x="180" y="-158" type="line"/>
      <point x="253" y="-158" type="line"/>
      <point x="253" y="784" type="line"/>
      <point x="180" y="784" type="line"/>
    </contour>
  </outline>
</glyph>
<glyph name="asciitilde" format="2">
  <advance width="573"/>
  <unicode hex="007E"/>
  <anchor x="286" y="277" name="center"/>
  <outline>
    <contour>
      <point x="51" y="212" type="line"/>
      <point x="83" y="245"/>
      <point x="128" y="271"/>
      <point x="165" y="271" type="curve" smooth="yes"/>
      <point x="194" y="271"/>
      <point x="222" y="265"/>
      <point x="270" y="244" type="curve" smooth="yes"/>
      <point x="330" y="218"/>
      <point x="364" y="212"/>
      <point x="402" y="212" type="curve" smooth="yes"/>
      <point x="450" y="212"/>
      <point x="490" y="231"/>
      <point x="522" y="266" type="curve"/>
      <point x="522" y="343" type="line"/>
      <point x="490" y="310"/>
      <point x="446" y="284"/>
      <point x="407" y="284" type="curve" smooth="yes"/>
      <point x="379" y="284"/>
      <point x="351" y="290"/>
      <point x="303" y="311" type="curve" smooth="yes"/>
      <point x="242" y="337"/>
      <point x="209" y="343"/>
      <point x="171" y="343" type="curve" smooth="yes"/>
      <point x="123" y="343"/>
      <point x="83" y="325"/>
      <point x="51" y="290" type="curve"/>
    </contour>
  </outline>
</glyph>
<glyph name="logicalnot" format="2">
  <advance width="572"/>
  <unicode hex="00AC"/>
  <anchor x="286" y="183" name="center"/>
  <outline>
    <contour>
      <point x="450" y="53" type="line"/>
      <point x="521" y="53" type="line"/>
      <point x="521" y="313" type="line"/>
      <point x="51" y="313" type="line"/>
      <point x="51" y="242" type="line"/>
      <point x="450" y="242" type="line"/>
    </contour>
  </outline>
</glyph>
<glyph name="multiply" format="2">
  <advance width="572"/>
  <unicode hex="00D7"/>
  <anchor x="286" y="278" name="center"/>
  <outline>
    <contour>
      <point x="118" y="57" type="line"/>
      <point x="285" y="226" type="line"/>
      <point x="456" y="57" type="line"/>
      <point x="506" y="108" type="line"/>
      <point x="337" y="278" type="line"/>
      <point x="507" y="448" type="line"/>
      <point x="457" y="499" type="line"/>
      <point x="286" y="328" type="line"/>
      <point x="117" y="499" type="line"/>
      <point x="65" y="447" type="line"/>
      <point x="235" y="278" type="line"/>
      <point x="66" y="108" type="line"/>
    </contour>
  </outline>
</glyph>
<glyph name="divide" format="2">
  <advance width="572"/>
  <unicode hex="00F7"/>
  <anchor x="285" y="278" name="center"/>
  <outline>
    <contour>
      <point x="50" y="243" type="line"/>
      <point x="521" y="243" type="line"/>
      <point x="521" y="314" type="line"/>
      <point x="50" y="314" type="line"/>
    </contour>
    <contour>
      <point x="285" y="47" type="curve" smooth="yes"/>
      <point x="315" y="47"/>
      <point x="340" y="65"/>
      <point x="340" y="108" type="curve" smooth="yes"/>
      <point x="340" y="153"/>
      <point x="315" y="168"/>
      <point x="285" y="168" type="curve" smooth="yes"/>
      <point x="254" y="168"/>
      <point x="229" y="153"/>
      <point x="229" y="108" type="curve" smooth="yes"/>
      <point x="229" y="65"/>
      <point x="254" y="47"/>
    </contour>
    <contour>
      <point x="285" y="388" type="curve" smooth="yes"/>
      <point x="315" y="388"/>
      <point x="340" y="406"/>
      <point x="340" y="449" type="curve" smooth="yes"/>
      <point x="340" y="494"/>
      <point x="315" y="509"/>
      <point x="285" y="509" type="curve" smooth="yes"/>
      <point x="254" y="509"/>
      <point x="229" y="494"/>
      <point x="229" y="449" type="curve" smooth="yes"/>
      <point x="229" y="406"/>
      <point x="254" y="388"/>
    </contour>
  </outline>
</glyph>
<glyph name="idotless" format="2">
  <advance width="258"/>
  <unicode hex="0131"/>
  <anchor x="131" y="0" name="bottom"/>
  <anchor x="129" y="268" name="center"/>
  <anchor x="129" y="0" name="math.ta"/>
  <anchor x="129" y="536" name="top"/>
  <anchor x="238" y="737" name="topright"/>
  <outline>
    <contour>
      <point x="85" y="0" type="line"/>
      <point x="173" y="0" type="line"/>
      <point x="173" y="536" type="line"/>
      <point x="85" y="536" type="line"/>
    </contour>
  </outline>
</glyph>
<glyph name="downtackmod" format="2">
  <advance width="270"/>
  <unicode hex="02D5"/>
  <anchor x="135" y="312" name="center"/>
  <outline>
    <contour>
      <point x="108" y="227" type="line"/>
      <point x="162" y="227" type="line"/>
      <point x="162" y="347" type="line"/>
      <point x="235" y="347" type="line"/>
      <point x="235" y="397" type="line"/>
      <point x="35" y="397" type="line"/>
      <point x="35" y="347" type="line"/>
      <point x="108" y="347" type="line"/>
    </contour>
  </outline>
</glyph>
<glyph name="gravecomb" format="2">
  <unicode hex="0300"/>
  <anchor x="101" y="536" name="_top"/>
  <anchor x="101" y="0" name="math.ta"/>
  <anchor x="101" y="766" name="top"/>
  <outline>
    <contour>
      <point x="142" y="606" type="curve"/>
      <point x="201" y="606" type="line"/>
      <point x="201" y="618" type="line"/>
      <point x="170" y="655"/>
      <point x="127" y="721"/>
      <point x="105" y="766" type="curve"/>
      <point x="0" y="766" type="line"/>
      <point x="0" y="756" type="line"/>
      <point x="23" y="719"/>
      <point x="96" y="642"/>
    </contour>
  </outline>
</glyph>
<glyph name="macroncomb" format="2">
  <unicode hex="0304"/>
  <anchor x="189" y="536" name="_top"/>
  <anchor x="189" y="0" name="math.ta"/>
  <anchor x="189" y="679" name="top"/>
  <outline>
    <contour>
      <point x="337" y="677" type="line"/>
      <point x="40" y="677" type="line"/>
      <point x="40" y="606" type="line"/>
      <point x="337" y="606" type="line"/>
    </contour>
  </outline>
</glyph>
<glyph name="dieresiscomb" format="2">
  <unicode hex="0308"/>
  <anchor x="140" y="536" name="_top"/>
  <anchor x="140" y="0" name="math.ta"/>
  <anchor x="140" y="725" name="top"/>
  <outline>
    <contour>
      <point x="47" y="631" type="curve" smooth="yes"/>
      <point x="72" y="631"/>
      <point x="94" y="647"/>
      <point x="94" y="681" type="curve" smooth="yes"/>
      <point x="94" y="716"/>
      <point x="72" y="730"/>
      <point x="47" y="730" type="curve" smooth="yes"/>
      <point x="21" y="730"/>
      <point x="0" y="716"/>
      <point x="0" y="681" type="curve" smooth="yes"/>
      <point x="0" y="647"/>
      <point x="21" y="631"/>
    </contour>
    <contour>
      <point x="234" y="631" type="curve" smooth="yes"/>
      <point x="259" y="631"/>
      <point x="281" y="647"/>
      <point x="281" y="681" type="curve" smooth="yes"/>
      <point x="281" y="716"/>
      <point x="259" y="730"/>
      <point x="234" y="730" type="curve" smooth="yes"/>
      <point x="209" y="730"/>
      <point x="188" y="716"/>
      <point x="188" y="681" type="curve" smooth="yes"/>
      <point x="188" y="647"/>
      <point x="209" y="631"/>
    </contour>
  </outline>
</glyph>
<glyph name="hookabovecomb" format="2">
  <unicode hex="0309"/>
  <anchor x="120" y="536" name="_top"/>
  <anchor x="120" y="0" name="math.ta"/>
  <anchor x="122" y="821" name="top"/>
  <outline>
    <contour>
      <point x="221" y="730" type="curve" smooth="yes"/>
      <point x="221" y="792"/>
      <point x="175" y="821"/>
      <point x="95" y="821" type="curve" smooth="yes"/>
      <point x="70" y="821"/>
      <point x="52" y="819"/>
      <point x="40" y="815" type="curve"/>
      <point x="40" y="763" type="line"/>
      <point x="51" y="765"/>
      <point x="70" y="767"/>
      <point x="88" y="767" type="curve" smooth="yes"/>
      <point x="125" y="767"/>
      <point x="153" y="759"/>
      <point x="153" y="727" type="curve" smooth="yes"/>
      <point x="153" y="696"/>
      <point x="122" y="683"/>
      <point x="74" y="675" type="curve"/>
      <point x="81" y="590" type="line"/>
      <point x="135" y="590" type="line"/>
      <point x="140" y="643" type="line"/>
      <point x="186" y="654"/>
      <point x="221" y="679"/>
    </contour>
  </outline>
</glyph>
<glyph name="hungarumlautcomb" format="2">
  <unicode hex="030B"/>
  <anchor x="220" y="536" name="_top"/>
  <anchor x="220" y="0" name="math.ta"/>
  <anchor x="220" y="766" name="top"/>
  <outline>
    <contour>
      <point x="399" y="756" type="curve"/>
      <point x="399" y="766" type="line"/>
      <point x="303" y="766" type="line"/>
      <point x="282" y="721"/>
      <point x="244" y="656"/>
      <point x="216" y="618" type="curve"/>
      <point x="216" y="606" type="line"/>
      <point x="266" y="606" type="line"/>
      <point x="311" y="642"/>
      <point x="378" y="721"/>
    </contour>
    <contour>
      <point x="223" y="756" type="curve"/>
      <point x="223" y="766" type="line"/>
      <point x="127" y="766" type="line"/>
      <point x="105" y="721"/>
      <point x="68" y="656"/>
      <point x="40" y="618" type="curve"/>
      <point x="40" y="606" type="line"/>
      <point x="90" y="606" type="line"/>
      <point x="135" y="642"/>
      <point x="202" y="721"/>
    </contour>
  </outline>
</glyph>
<glyph name="brevebelowcomb" format="2">
  <unicode hex="032E"/>
  <anchor x="180" y="0" name="_bottom"/>
  <anchor x="180" y="-187" name="bottom"/>
  <anchor x="180" y="0" name="math.ta"/>
  <anchor x="180" y="50" name="top"/>
  <outline>
    <contour>
      <point x="178" y="-187" type="curve" smooth="yes"/>
      <point x="274" y="-187"/>
      <point x="329" y="-133"/>
      <point x="336" y="-53" type="curve"/>
      <point x="281" y="-53" type="line"/>
      <point x="274" y="-105"/>
      <point x="232" y="-116"/>
      <point x="180" y="-116" type="curve" smooth="yes"/>
      <point x="119" y="-116"/>
      <point x="85" y="-108"/>
      <point x="79" y="-53" type="curve"/>
      <point x="25" y="-53" type="line"/>
      <point x="30" y="-135"/>
      <point x="79" y="-187"/>
    </contour>
  </outline>
</glyph>
<glyph name="breveinvertedbelowcomb" format="2">
  <unicode hex="032F"/>
  <anchor x="181" y="0" name="_bottom"/>
  <anchor x="181" y="-187" name="bottom"/>
  <anchor x="181" y="0" name="math.ta"/>
  <anchor x="181" y="50" name="top"/>
  <outline>
    <contour>
      <point x="25" y="-187" type="curve"/>
      <point x="80" y="-187" type="line"/>
      <point x="87" y="-135"/>
      <point x="129" y="-124"/>
      <point x="181" y="-124" type="curve" smooth="yes"/>
      <point x="242" y="-124"/>
      <point x="276" y="-132"/>
      <point x="282" y="-187" type="curve"/>
      <point x="336" y="-187" type="line"/>
      <point x="331" y="-105"/>
      <point x="282" y="-53"/>
      <point x="183" y="-53" type="curve" smooth="yes"/>
      <point x="87" y="-53"/>
      <point x="32" y="-107"/>
    </contour>
  </outline>
</glyph>
<glyph name="gbridgeabovecomb" format="2">
  <unicode hex="0346"/>
  <anchor x="243" y="547" name="_top"/>
  <anchor x="243" y="0" name="math.ta"/>
  <anchor x="243" y="776" name="top"/>
  <outline>
    <contour>
      <point x="25" y="606" type="line"/>
      <point x="91" y="606" type="line"/>
      <point x="91" y="716" type="line"/>
      <point x="395" y="716" type="line"/>
      <point x="395" y="606" type="line"/>
      <point x="461" y="606" type="line"/>
      <point x="461" y="776" type="line"/>
      <point x="25" y="776" type="line"/>
    </contour>
  </outline>
</glyph>
<glyph name="Gamma" format="2">
  <advance width="524"/>
  <unicode hex="0393"/>
  <anchor x="262" y="0" name="bottom"/>
  <anchor x="298" y="357" name="center"/>
  <anchor x="305" y="0" name="math.ta"/>
  <anchor x="305" y="714" name="top"/>
  <outline>
    <contour>
      <point x="97" y="0" type="line"/>
      <point x="187" y="0" type="line"/>
      <point x="187" y="634" type="line"/>
      <point x="500" y="634" type="line"/>
      <point x="500" y="714" type="line"/>
      <point x="97" y="714" type="line"/>
    </contour>
  </outline>
</glyph>
<glyph name="Xi" format="2">
  <advance width="555"/>
  <unicode hex="039E"/>
  <anchor x="278" y="0" name="bottom"/>
  <anchor x="277" y="357" name="center"/>
  <anchor x="278" y="0" name="math.ta"/>
  <anchor x="278" y="714" name="top"/>
  <outline>
    <contour>
      <point x="35" y="0" type="line"/>
      <point x="519" y="0" type="line"/>
      <point x="519" y="79" type="line"/>
      <point x="35" y="79" type="line"/>
    </contour>
    <contour>
      <point x="95" y="334" type="line"/>
      <point x="459" y="334" type="line"/>
      <point x="459" y="412" type="line"/>
      <point x="95" y="412" type="line"/>
    </contour>
    <contour>
      <point x="55" y="635" type="line"/>
      <point x="499" y="635" type="line"/>
      <point x="499" y="714" type="line"/>
      <point x="55" y="714" type="line"/>
    </contour>
  </outline>
</glyph>
<glyph name="gamma" format="2">
  <advance width="518"/>
  <unicode hex="03B3"/>
  <anchor x="259" y="-240" name="bottom"/>
  <anchor x="259" y="148" name="center"/>
  <anchor x="259" y="0" name="math.ta"/>
  <anchor x="259" y="536" name="top"/>
  <anchor x="508" y="536" name="topright"/>
  <outline>
    <contour>
      <point x="171" y="-240" type="curve"/>
      <point x="266" y="-240" type="line"/>
      <point x="266" y="-173"/>
      <point x="284" y="-68"/>
      <point x="315" y="13" type="curve" smooth="yes"/>
      <point x="513" y="536" type="line"/>
      <point x="422" y="536" type="line"/>
      <point x="316" y="251" type="line" smooth="yes"/>
      <point x="300" y="207"/>
      <point x="273" y="121"/>
      <point x="267" y="89" type="curve"/>
      <point x="263" y="89" type="line"/>
      <point x="257" y="124"/>
      <point x="230" y="203"/>
      <point x="209" y="255" type="curve" smooth="yes"/>
      <point x="96" y="536" type="line"/>
      <point x="5" y="536" type="line"/>
      <point x="222" y="6" type="line"/>
      <point x="192" y="-76"/>
      <point x="171" y="-185"/>
    </contour>
  </outline>
</glyph>
<glyph name="kappa" format="2">
  <advance width="534"/>
  <unicode hex="03BA"/>
  <anchor x="297" y="0" name="bottom"/>
  <anchor x="307" y="269" name="center"/>
  <anchor x="297" y="0" name="math.ta"/>
  <anchor x="297" y="536" name="top"/>
  <outline>
    <contour>
      <point x="178" y="204" type="line"/>
      <point x="171" y="253" type="line"/>
      <point x="174" y="275"/>
      <point x="178" y="338"/>
      <point x="178" y="397" type="curve" smooth="yes"/>
      <point x="178" y="536" type="line"/>
      <point x="85" y="536" type="line"/>
      <point x="85" y="0" type="line"/>
      <point x="178" y="0" type="line"/>
    </contour>
    <contour>
      <point x="281" y="325" type="line"/>
      <point x="219" y="268" type="line"/>
      <point x="391" y="31" type="line" smooth="yes"/>
      <point x="411" y="3"/>
      <point x="436" y="-10"/>
      <point x="472" y="-10" type="curve" smooth="yes"/>
      <point x="495" y="-10"/>
      <point x="514" y="-5"/>
      <point x="529" y="2" type="curve"/>
      <point x="529" y="67" type="line"/>
      <point x="522" y="65"/>
      <point x="509" y="62"/>
      <point x="499" y="62" type="curve" smooth="yes"/>
      <point x="474" y="62"/>
      <point x="459" y="81"/>
      <point x="437" y="110" type="curve" smooth="yes"/>
    </contour>
    <contour>
      <point x="529" y="478" type="curve"/>
      <point x="498" y="549" type="line"/>
      <point x="310" y="456"/>
      <point x="182" y="352"/>
      <point x="94" y="165" type="curve"/>
      <point x="147" y="145" type="line"/>
      <point x="221" y="293"/>
      <point x="340" y="378"/>
    </contour>
  </outline>
</glyph>
<glyph name="digamma" format="2">
  <advance width="459"/>
  <unicode hex="03DD"/>
  <anchor x="256" y="148" name="center"/>
  <anchor x="256" y="0" name="math.ta"/>
  <outline>
    <contour>
      <point x="86" y="-240" type="line"/>
      <point x="174" y="-240" type="line"/>
      <point x="174" y="181" type="line"/>
      <point x="306" y="181" type="line"/>
      <point x="306" y="36" type="line"/>
      <point x="392" y="36" type="line"/>
      <point x="392" y="253" type="line"/>
      <point x="174" y="253" type="line"/>
      <point x="174" y="463" type="line"/>
      <point x="427" y="463" type="line"/>
      <point x="427" y="536" type="line"/>
      <point x="86" y="536" type="line"/>
    </contour>
  </outline>
</glyph>
<glyph name="kappaSymbol" format="2">
  <advance width="655"/>
  <unicode hex="03F0"/>
  <anchor x="330" y="0" name="bottom"/>
  <anchor x="322" y="268" name="center"/>
  <anchor x="330" y="0" name="math.ta"/>
  <anchor x="330" y="536" name="top"/>
  <outline>
    <contour>
      <point x="581" y="-10" type="curve" smooth="yes"/>
      <point x="607" y="-10"/>
      <point x="627" y="-5"/>
      <point x="645" y="2" type="curve"/>
      <point x="645" y="71" type="line"/>
      <point x="635" y="67"/>
      <point x="617" y="63"/>
      <point x="601" y="63" type="curve" smooth="yes"/>
      <point x="548" y="63"/>
      <point x="512" y="99"/>
      <point x="512" y="216" type="curve" smooth="yes"/>
      <point x="512" y="342"/>
      <point x="549" y="462"/>
      <point x="586" y="536" type="curve"/>
      <point x="498" y="536" type="line"/>
      <point x="221" y="186" type="line"/>
      <point x="234" y="228"/>
      <point x="239" y="275"/>
      <point x="239" y="316" type="curve" smooth="yes"/>
      <point x="239" y="474"/>
      <point x="180" y="546"/>
      <point x="76" y="546" type="curve" smooth="yes"/>
      <point x="43" y="546"/>
      <point x="18" y="541"/>
      <point x="0" y="534" type="curve"/>
      <point x="24" y="465" type="line"/>
      <point x="33" y="469"/>
      <point x="45" y="473"/>
      <point x="63" y="473" type="curve" smooth="yes"/>
      <point x="110" y="473"/>
      <point x="151" y="432"/>
      <point x="151" y="320" type="curve" smooth="yes"/>
      <point x="151" y="194"/>
      <point x="114" y="74"/>
      <point x="78" y="0" type="curve"/>
      <point x="168" y="0" type="line"/>
      <point x="442" y="350" type="line"/>
      <point x="429" y="309"/>
      <point x="424" y="261"/>
      <point x="424" y="220" type="curve" smooth="yes"/>
      <point x="424" y="62"/>
      <point x="481" y="-10"/>
    </contour>
  </outline>
</glyph>
<glyph name="Ge-cy" format="2">
  <advance width="509"/>
  <unicode hex="0413"/>
  <anchor x="249" y="0" name="bottom"/>
  <anchor x="285" y="357" name="center"/>
  <anchor x="292" y="714" name="top"/>
  <outline>
    <contour>
      <point x="97" y="0" type="line"/>
      <point x="187" y="0" type="line"/>
      <point x="187" y="635" type="line"/>
      <point x="486" y="635" type="line"/>
      <point x="486" y="714" type="line"/>
      <point x="97" y="714" type="line"/>
    </contour>
  </outline>
</glyph>
<glyph name="De-cy" format="2">
  <advance width="683"/>
  <unicode hex="0414"/>
  <anchor x="341" y="-156" name="bottom"/>
  <anchor x="339" y="263" name="center"/>
  <anchor x="348" y="714" name="top"/>
  <outline>
    <contour>
      <point x="503" y="0" type="line"/>
      <point x="593" y="0" type="line"/>
      <point x="593" y="714" type="line"/>
      <point x="147" y="714" type="line"/>
      <point x="139" y="514"/>
      <point x="133" y="422"/>
      <point x="125" y="332" type="curve" smooth="yes"/>
      <point x="116" y="221"/>
      <point x="97" y="134"/>
      <point x="68" y="72" type="curve"/>
      <point x="167" y="71" type="line"/>
      <point x="187" y="126"/>
      <point x="202" y="213"/>
      <point x="212" y="323" type="curve" smooth="yes"/>
      <point x="221" y="418"/>
      <point x="226" y="504"/>
      <point x="231" y="635" type="curve"/>
      <point x="503" y="635" type="line"/>
    </contour>
    <contour>
      <point x="5" y="-156" type="line"/>
      <point x="91" y="-156" type="line"/>
      <point x="91" y="0" type="line"/>
      <point x="587" y="0" type="line"/>
      <point x="587" y="-156" type="line"/>
      <point x="673" y="-156" type="line"/>
      <point x="673" y="79" type="line"/>
      <point x="5" y="79" type="line"/>
    </contour>
  </outline>
</glyph>
<glyph name="Zhe-cy" format="2">
  <advance width="907"/>
  <unicode hex="0416"/>
  <anchor x="453" y="0" name="bottom"/>
  <anchor x="453" y="357" name="center"/>
  <anchor x="453" y="714" name="top"/>
  <outline>
    <contour>
      <point x="794" y="0" type="line"/>
      <point x="897" y="0" type="line"/>
      <point x="659" y="390" type="line"/>
      <point x="659" y="373" type="line"/>
      <point x="885" y="714" type="line"/>
      <point x="789" y="714" type="line"/>
      <point x="574" y="386" type="line"/>
      <point x="574" y="361" type="line"/>
    </contour>
    <contour>
      <point x="10" y="0" type="line"/>
      <point x="111" y="0" type="line"/>
      <point x="332" y="361" type="line"/>
      <point x="332" y="386" type="line"/>
      <point x="117" y="714" type="line"/>
      <point x="21" y="714" type="line"/>
      <point x="247" y="369" type="line"/>
      <point x="248" y="384" type="line"/>
    </contour>
    <contour>
      <point x="409" y="0" type="line"/>
      <point x="497" y="0" type="line"/>
      <point x="497" y="714" type="line"/>
      <point x="409" y="714" type="line"/>
    </contour>
    <contour>
      <point x="274" y="333" type="line"/>
      <point x="632" y="333" type="line"/>
      <point x="632" y="412" type="line"/>
      <point x="274" y="412" type="line"/>
    </contour>
  </outline>
</glyph>
<glyph name="Ze-cy" format="2">
  <advance width="589"/>
  <unicode hex="0417"/>
  <anchor x="292" y="0" name="bottom"/>
  <anchor x="284" y="357" name="center"/>
  <anchor x="285" y="714" name="top"/>
  <outline>
    <contour>
      <point x="239" y="-10" type="curve" smooth="yes"/>
      <point x="422" y="-10"/>
      <point x="527" y="65"/>
      <point x="527" y="197" type="curve" smooth="yes"/>
      <point x="527" y="295"/>
      <point x="469" y="355"/>
      <point x="357" y="374" type="curve"/>
      <point x="357" y="379" type="line"/>
      <point x="449" y="393"/>
      <point x="508" y="455"/>
      <point x="508" y="545" type="curve" smooth="yes"/>
      <point x="508" y="658"/>
      <point x="420" y="726"/>
      <point x="258" y="726" type="curve" smooth="yes"/>
      <point x="182" y="726"/>
      <point x="109" y="711"/>
      <point x="47" y="684" type="curve"/>
      <point x="75" y="607" type="line"/>
      <point x="140" y="637"/>
      <point x="194" y="649"/>
      <point x="255" y="648" type="curve" smooth="yes"/>
      <point x="361" y="646"/>
      <point x="415" y="606"/>
      <point x="415" y="534" type="curve" smooth="yes"/>
      <point x="415" y="457"/>
      <point x="353" y="411"/>
      <point x="239" y="411" type="curve" smooth="yes"/>
      <point x="145" y="411" type="line"/>
      <point x="145" y="334" type="line"/>
      <point x="239" y="334" type="line" smooth="yes"/>
      <point x="368" y="334"/>
      <point x="431" y="290"/>
      <point x="431" y="202" type="curve" smooth="yes"/>
      <point x="431" y="112"/>
      <point x="367" y="68"/>
      <point x="238" y="68" type="curve" smooth="yes"/>
      <point x="167" y="68"/>
      <point x="104" y="81"/>
      <point x="40" y="110" type="curve"/>
      <point x="40" y="24" type="line"/>
      <point x="93" y="2"/>
      <point x="164" y="-10"/>
    </contour>
  </outline>
</glyph>
<glyph name="Ii-cy" format="2">
  <advance width="755"/>
  <unicode hex="0418"/>
  <anchor x="377" y="0" name="bottom"/>
  <anchor x="377" y="357" name="center"/>
  <anchor x="377" y="714" name="top"/>
  <outline>
    <contour>
      <point x="97" y="0" type="line"/>
      <point x="193" y="0" type="line"/>
      <point x="571" y="592" type="line"/>
      <point x="575" y="592" type="line"/>
      <point x="573" y="562"/>
      <point x="567" y="459"/>
      <point x="567" y="386" type="curve" smooth="yes"/>
      <point x="567" y="0" type="line"/>
      <point x="657" y="0" type="line"/>
      <point x="657" y="714" type="line"/>
      <point x="557" y="714" type="line"/>
      <point x="183" y="128" type="line"/>
      <point x="179" y="128" type="line"/>
      <point x="181" y="158"/>
      <point x="187" y="260"/>
      <point x="187" y="327" type="curve" smooth="yes"/>
      <point x="187" y="714" type="line"/>
      <point x="97" y="714" type="line"/>
    </contour>
  </outline>
</glyph>
<glyph name="El-cy" format="2">
  <advance width="692"/>
  <unicode hex="041B"/>
  <anchor x="349" y="0" name="bottom"/>
  <anchor x="301" y="351" name="center"/>
  <anchor x="349" y="714" name="top"/>
  <outline>
    <contour>
      <point x="65" y="-7" type="curve" smooth="yes"/>
      <point x="161" y="-7"/>
      <point x="198" y="58"/>
      <point x="213" y="251" type="curve" smooth="yes"/>
      <point x="223" y="377"/>
      <point x="230" y="499"/>
      <point x="236" y="635" type="curve"/>
      <point x="504" y="635" type="line"/>
      <point x="504" y="0" type="line"/>
      <point x="594" y="0" type="line"/>
      <point x="594" y="714" type="line"/>
      <point x="152" y="714" type="line"/>
      <point x="142" y="469"/>
      <point x="137" y="399"/>
      <point x="126" y="259" type="curve" smooth="yes"/>
      <point x="115" y="116"/>
      <point x="98" y="79"/>
      <point x="42" y="79" type="curve" smooth="yes"/>
      <point x="29" y="79"/>
      <point x="18" y="81"/>
      <point x="6" y="85" type="curve"/>
      <point x="6" y="5" type="line"/>
      <point x="26" y="-4"/>
      <point x="44" y="-7"/>
    </contour>
  </outline>
</glyph>
<glyph name="Pe-cy" format="2">
  <advance width="737"/>
  <unicode hex="041F"/>
  <anchor x="368" y="0" name="bottom"/>
  <anchor x="368" y="357" name="center"/>
  <anchor x="368" y="714" name="top"/>
  <outline>
    <contour>
      <point x="97" y="0" type="line"/>
      <point x="187" y="0" type="line"/>
      <point x="187" y="635" type="line"/>
      <point x="549" y="635" type="line"/>
      <point x="549" y="0" type="line"/>
      <point x="639" y="0" type="line"/>
      <point x="639" y="714" type="line"/>
      <point x="97" y="714" type="line"/>
    </contour>
  </outline>
</glyph>
<glyph name="Ef-cy" format="2">
  <advance width="859"/>
  <unicode hex="0424"/>
  <anchor x="430" y="0" name="bottom"/>
  <anchor x="430" y="357" name="center"/>
  <anchor x="430" y="714" name="top"/>
  <outline>
    <contour>
      <point x="385" y="-23" type="line"/>
      <point x="474" y="-23" type="line"/>
      <point x="474" y="71" type="line"/>
      <point x="687" y="75"/>
      <point x="798" y="185"/>
      <point x="798" y="361" type="curve" smooth="yes"/>
      <point x="798" y="538"/>
      <point x="688" y="645"/>
      <point x="474" y="648" type="curve"/>
      <point x="474" y="734" type="line"/>
      <point x="385" y="734" type="line"/>
      <point x="385" y="648" type="line"/>
      <point x="172" y="645"/>
      <point x="61" y="537"/>
      <point x="61" y="361" type="curve" smooth="yes"/>
      <point x="61" y="186"/>
      <point x="173" y="75"/>
      <point x="385" y="71" type="curve"/>
    </contour>
    <contour>
      <point x="387" y="145" type="line"/>
      <point x="226" y="150"/>
      <point x="155" y="228"/>
      <point x="155" y="361" type="curve" smooth="yes"/>
      <point x="155" y="495"/>
      <point x="225" y="570"/>
      <point x="387" y="574" type="curve"/>
    </contour>
    <contour>
      <point x="472" y="145" type="curve"/>
      <point x="472" y="574" type="line"/>
      <point x="635" y="570"/>
      <point x="704" y="496"/>
      <point x="704" y="362" type="curve" smooth="yes"/>
      <point x="704" y="228"/>
      <point x="633" y="150"/>
    </contour>
  </outline>
</glyph>
<glyph name="Sha-cy" format="2">
  <advance width="1037"/>
  <unicode hex="0428"/>
  <anchor x="518" y="0" name="bottom"/>
  <anchor x="518" y="357" name="center"/>
  <anchor x="518" y="714" name="top"/>
  <outline>
    <contour>
      <point x="97" y="0" type="line"/>
      <point x="939" y="0" type="line"/>
      <point x="939" y="714" type="line"/>
      <point x="849" y="714" type="line"/>
      <point x="849" y="79" type="line"/>
      <point x="563" y="79" type="line"/>
      <point x="563" y="714" type="line"/>
      <point x="473" y="714" type="line"/>
      <point x="473" y="79" type="line"/>
      <point x="187" y="79" type="line"/>
      <point x="187" y="714" type="line"/>
      <point x="97" y="714" type="line"/>
    </contour>
  </outline>
</glyph>
<glyph name="Hardsign-cy" format="2">
  <advance width="698"/>
  <unicode hex="042A"/>
  <anchor x="347" y="0" name="bottom"/>
  <anchor x="325" y="357" name="center"/>
  <anchor x="347" y="714" name="top"/>
  <outline>
    <contour>
      <point x="186" y="0" type="line"/>
      <point x="364" y="0" type="line" smooth="yes"/>
      <point x="578" y="0"/>
      <point x="647" y="107"/>
      <point x="647" y="225" type="curve" smooth="yes"/>
      <point x="647" y="359"/>
      <point x="566" y="438"/>
      <point x="378" y="438" type="curve" smooth="yes"/>
      <point x="276" y="438" type="line"/>
      <point x="276" y="714" type="line"/>
      <point x="10" y="714" type="line"/>
      <point x="10" y="635" type="line"/>
      <point x="186" y="635" type="line"/>
    </contour>
    <contour>
      <point x="276" y="77" type="line"/>
      <point x="276" y="361" type="line"/>
      <point x="370" y="361" type="line" smooth="yes"/>
      <point x="497" y="361"/>
      <point x="554" y="313"/>
      <point x="554" y="220" type="curve" smooth="yes"/>
      <point x="554" y="123"/>
      <point x="491" y="77"/>
      <point x="358" y="77" type="curve" smooth="yes"/>
    </contour>
  </outline>
</glyph>
<glyph name="Ereversed-cy" format="2">
  <advance width="654"/>
  <unicode hex="042D"/>
  <anchor x="327" y="0" name="bottom"/>
  <anchor x="310" y="357" name="center"/>
  <anchor x="249" y="714" name="top"/>
  <outline>
    <contour>
      <point x="242" y="-10" type="curve" smooth="yes"/>
      <point x="480" y="-10"/>
      <point x="593" y="142"/>
      <point x="593" y="364" type="curve" smooth="yes"/>
      <point x="593" y="578"/>
      <point x="482" y="726"/>
      <point x="257" y="726" type="curve" smooth="yes"/>
      <point x="180" y="726"/>
      <point x="109" y="710"/>
      <point x="53" y="684" type="curve"/>
      <point x="81" y="607" type="line"/>
      <point x="145" y="635"/>
      <point x="198" y="649"/>
      <point x="254" y="649" type="curve" smooth="yes"/>
      <point x="398" y="648"/>
      <point x="498" y="554"/>
      <point x="499" y="358" type="curve" smooth="yes"/>
      <point x="500" y="166"/>
      <point x="413" y="68"/>
      <point x="238" y="68" type="curve" smooth="yes"/>
      <point x="171" y="68"/>
      <point x="111" y="81"/>
      <point x="46" y="110" type="curve"/>
      <point x="46" y="24" type="line"/>
      <point x="110" y="0"/>
      <point x="167" y="-10"/>
    </contour>
    <contour>
      <point x="151" y="334" type="line"/>
      <point x="514" y="334" type="line"/>
      <point x="513" y="411" type="line"/>
      <point x="151" y="411" type="line"/>
    </contour>
  </outline>
</glyph>
<glyph name="Iu-cy" format="2">
  <advance width="1014"/>
  <unicode hex="042E"/>
  <anchor x="525" y="0" name="bottom"/>
  <anchor x="525" y="357" name="center"/>
  <anchor x="525" y="714" name="top"/>
  <anchor x="966" y="714" name="topright"/>
  <outline>
    <contour>
      <point x="635" y="-10" type="curve" smooth="yes"/>
      <point x="839" y="-10"/>
      <point x="953" y="129"/>
      <point x="953" y="358" type="curve" smooth="yes"/>
      <point x="953" y="588"/>
      <point x="839" y="725"/>
      <point x="636" y="725" type="curve" smooth="yes"/>
      <point x="440" y="725"/>
      <point x="334" y="607"/>
      <point x="318" y="412" type="curve"/>
      <point x="187" y="412" type="line"/>
      <point x="187" y="714" type="line"/>
      <point x="97" y="714" type="line"/>
      <point x="97" y="0" type="line"/>
      <point x="187" y="0" type="line"/>
      <point x="187" y="333" type="line"/>
      <point x="316" y="333" type="line"/>
      <point x="324" y="119"/>
      <point x="431" y="-10"/>
    </contour>
    <contour>
      <point x="635" y="68" type="curve" smooth="yes"/>
      <point x="485" y="68"/>
      <point x="411" y="170"/>
      <point x="411" y="358" type="curve" smooth="yes"/>
      <point x="411" y="546"/>
      <point x="485" y="646"/>
      <point x="636" y="646" type="curve" smooth="yes"/>
      <point x="786" y="646"/>
      <point x="858" y="546"/>
      <point x="858" y="358" type="curve" smooth="yes"/>
      <point x="858" y="170"/>
      <point x="786" y="68"/>
    </contour>
  </outline>
</glyph>
<glyph name="Ia-cy" format="2">
  <advance width="643"/>
  <unicode hex="042F"/>
  <anchor x="326" y="0" name="bottom"/>
  <anchor x="288" y="357" name="center"/>
  <anchor x="326" y="714" name="top"/>
  <outline>
    <contour>
      <point x="30" y="0" type="line"/>
      <point x="133" y="0" type="line"/>
      <point x="318" y="291" type="line"/>
      <point x="455" y="291" type="line"/>
      <point x="455" y="0" type="line"/>
      <point x="545" y="0" type="line"/>
      <point x="545" y="714" type="line"/>
      <point x="336" y="714" type="line" smooth="yes"/>
      <point x="161" y="714"/>
      <point x="70" y="645"/>
      <point x="70" y="506" type="curve" smooth="yes"/>
      <point x="70" y="402"/>
      <point x="123" y="334"/>
      <point x="227" y="305" type="curve"/>
    </contour>
    <contour>
      <point x="343" y="367" type="line" smooth="yes"/>
      <point x="223" y="367"/>
      <point x="163" y="411"/>
      <point x="163" y="505" type="curve" smooth="yes"/>
      <point x="163" y="597"/>
      <point x="219" y="637"/>
      <point x="338" y="637" type="curve" smooth="yes"/>
      <point x="455" y="637" type="line"/>
      <point x="455" y="367" type="line"/>
    </contour>
  </outline>
</glyph>
<glyph name="ve-cy" format="2">
  <advance width="559"/>
  <unicode hex="0432"/>
  <anchor x="278" y="0" name="bottom"/>
  <anchor x="299" y="268" name="center"/>
  <anchor x="278" y="536" name="top"/>
  <outline>
    <contour>
      <point x="85" y="0" type="line"/>
      <point x="294" y="0" type="line" smooth="yes"/>
      <point x="433" y="0"/>
      <point x="513" y="54"/>
      <point x="513" y="151" type="curve" smooth="yes"/>
      <point x="513" y="224"/>
      <point x="467" y="271"/>
      <point x="389" y="281" type="curve"/>
      <point x="389" y="285" type="line"/>
      <point x="458" y="300"/>
      <point x="495" y="339"/>
      <point x="495" y="402" type="curve" smooth="yes"/>
      <point x="495" y="489"/>
      <point x="424" y="536"/>
      <point x="294" y="536" type="curve" smooth="yes"/>
      <point x="85" y="536" type="line"/>
    </contour>
    <contour>
      <point x="173" y="72" type="line"/>
      <point x="173" y="241" type="line"/>
      <point x="290" y="241" type="line" smooth="yes"/>
      <point x="383" y="241"/>
      <point x="422" y="216"/>
      <point x="422" y="157" type="curve" smooth="yes"/>
      <point x="422" y="97"/>
      <point x="382" y="72"/>
      <point x="290" y="72" type="curve" smooth="yes"/>
    </contour>
    <contour>
      <point x="173" y="312" type="line"/>
      <point x="173" y="464" type="line"/>
      <point x="290" y="464" type="line" smooth="yes"/>
      <point x="367" y="464"/>
      <point x="406" y="440"/>
      <point x="406" y="388" type="curve" smooth="yes"/>
      <point x="406" y="336"/>
      <point x="367" y="312"/>
      <point x="290" y="312" type="curve" smooth="yes"/>
    </contour>
  </outline>
</glyph>
<glyph name="pe-cy" format="2">
  <advance width="606"/>
  <unicode hex="043F"/>
  <anchor x="303" y="0" name="bottom"/>
  <anchor x="303" y="268" name="center"/>
  <anchor x="303" y="536" name="top"/>
  <outline>
    <contour>
      <point x="85" y="0" type="line"/>
      <point x="173" y="0" type="line"/>
      <point x="173" y="462" type="line"/>
      <point x="433" y="462" type="line"/>
      <point x="433" y="0" type="line"/>
      <point x="521" y="0" type="line"/>
      <point x="521" y="536" type="line"/>
      <point x="85" y="536" type="line"/>
    </contour>
  </outline>
</glyph>
<glyph name="che-cy" format="2">
  <advance width="563"/>
  <unicode hex="0447"/>
  <anchor x="264" y="0" name="bottom"/>
  <anchor x="264" y="268" name="center"/>
  <anchor x="264" y="536" name="top"/>
  <outline>
    <contour>
      <point x="390" y="0" type="line"/>
      <point x="478" y="0" type="line"/>
      <point x="478" y="536" type="line"/>
      <point x="390" y="536" type="line"/>
      <point x="390" y="253" type="line"/>
      <point x="415" y="303" type="line"/>
      <point x="366" y="279"/>
      <point x="311" y="266"/>
      <point x="259" y="266" type="curve" smooth="yes"/>
      <point x="178" y="266"/>
      <point x="142" y="298"/>
      <point x="142" y="380" type="curve" smooth="yes"/>
      <point x="142" y="536" type="line"/>
      <point x="54" y="536" type="line"/>
      <point x="54" y="369" type="line" smooth="yes"/>
      <point x="54" y="248"/>
      <point x="112" y="192"/>
      <point x="242" y="192" type="curve" smooth="yes"/>
      <point x="298" y="192"/>
      <point x="353" y="202"/>
      <point x="415" y="224" type="curve"/>
      <point x="390" y="262" type="line"/>
    </contour>
  </outline>
</glyph>
<glyph name="shcha-cy" format="2">
  <advance width="898"/>
  <unicode hex="0449"/>
  <anchor x="447" y="0" name="bottom"/>
  <anchor x="447" y="268" name="center"/>
  <anchor x="447" y="536" name="top"/>
  <outline>
    <contour>
      <point x="803" y="-136" type="line"/>
      <point x="888" y="-136" type="line"/>
      <point x="888" y="73" type="line"/>
      <point x="809" y="73" type="line"/>
      <point x="809" y="536" type="line"/>
      <point x="721" y="536" type="line"/>
      <point x="721" y="74" type="line"/>
      <point x="491" y="74" type="line"/>
      <point x="491" y="536" type="line"/>
      <point x="403" y="536" type="line"/>
      <point x="403" y="74" type="line"/>
      <point x="173" y="74" type="line"/>
      <point x="173" y="536" type="line"/>
      <point x="85" y="536" type="line"/>
      <point x="85" y="0" type="line"/>
      <point x="803" y="0" type="line"/>
    </contour>
  </outline>
</glyph>
<glyph name="ereversed-cy" format="2">
  <advance width="510"/>
  <unicode hex="044D"/>
  <anchor x="267" y="0" name="bottom"/>
  <anchor x="254" y="268" name="center"/>
  <anchor x="227" y="536" name="top"/>
  <outline>
    <contour>
      <point x="194" y="-10" type="curve" smooth="yes"/>
      <point x="359" y="-10"/>
      <point x="456" y="93"/>
      <point x="456" y="274" type="curve" smooth="yes"/>
      <point x="456" y="452"/>
      <point x="362" y="546"/>
      <point x="212" y="546" type="curve" smooth="yes"/>
      <point x="158" y="546"/>
      <point x="106" y="534"/>
      <point x="50" y="508" type="curve"/>
      <point x="78" y="441" type="line"/>
      <point x="122" y="463"/>
      <point x="161" y="474"/>
      <point x="204" y="474" type="curve" smooth="yes"/>
      <point x="308" y="474"/>
      <point x="366" y="409"/>
      <point x="366" y="272" type="curve" smooth="yes"/>
      <point x="366" y="138"/>
      <point x="308" y="62"/>
      <point x="195" y="62" type="curve" smooth="yes"/>
      <point x="144" y="62"/>
      <point x="94" y="76"/>
      <point x="50" y="103" type="curve"/>
      <point x="50" y="24" type="line"/>
      <point x="93" y="1"/>
      <point x="140" y="-10"/>
    </contour>
    <contour>
      <point x="133" y="240" type="line"/>
      <point x="408" y="240" type="line"/>
      <point x="408" y="312" type="line"/>
      <point x="133" y="312" type="line"/>
    </contour>
  </outline>
</glyph>
<glyph name="fourthroot-ar" format="2">
  <advance width="679"/>
  <unicode hex="0607"/>
  <outline>
    <contour>
      <point x="405" y="0" type="line"/>
      <point x="540" y="380" type="line"/>
      <point x="628" y="380" type="line"/>
      <point x="628" y="450" type="line"/>
      <point x="485" y="450" type="line"/>
      <point x="372" y="121" type="line"/>
      <point x="40" y="1057" type="line"/>
      <point x="-31" y="1057" type="line"/>
      <point x="340" y="0" type="line"/>
    </contour>
    <contour>
      <point x="542" y="644" type="line"/>
      <point x="523" y="634"/>
      <point x="494" y="622"/>
      <point x="457" y="622" type="curve" smooth="yes"/>
      <point x="433" y="622"/>
      <point x="407" y="626"/>
      <point x="407" y="647" type="curve" smooth="yes"/>
      <point x="407" y="661"/>
      <point x="418" y="691"/>
      <point x="475" y="716" type="curve"/>
      <point x="470" y="776" type="line"/>
      <point x="436" y="764"/>
      <point x="409" y="775"/>
      <point x="409" y="794" type="curve" smooth="yes"/>
      <point x="409" y="814"/>
      <point x="440" y="847"/>
      <point x="497" y="854" type="curve"/>
      <point x="488" y="923" type="line"/>
      <point x="391" y="896"/>
      <point x="341" y="853"/>
      <point x="341" y="797" type="curve" smooth="yes"/>
      <point x="341" y="737"/>
      <point x="397" y="721"/>
      <point x="436" y="716" type="curve"/>
      <point x="434" y="758" type="line"/>
      <point x="352" y="722"/>
      <point x="332" y="673"/>
      <point x="332" y="641" type="curve" smooth="yes"/>
      <point x="332" y="596"/>
      <point x="370" y="557"/>
      <point x="455" y="557" type="curve" smooth="yes"/>
      <point x="496" y="557"/>
      <point x="523" y="568"/>
      <point x="548" y="581" type="curve"/>
    </contour>
  </outline>
</glyph>
<glyph name="thal-ar" format="2">
  <advance width="477"/>
  <unicode hex="0630"/>
  <anchor x="226" y="-5" name="bottom"/>
  <anchor x="227" y="42" name="ring"/>
  <anchor x="215" y="457" name="top"/>
  <outline>
    <contour>
      <point x="35" y="45" type="line"/>
      <point x="76" y="13"/>
      <point x="142" y="-6"/>
      <point x="215" y="-6" type="curve" smooth="yes"/>
      <point x="380" y="-6"/>
      <point x="432" y="76"/>
      <point x="432" y="157" type="curve" smooth="yes"/>
      <point x="432" y="221"/>
      <point x="395" y="322"/>
      <point x="289" y="469" type="curve"/>
      <point x="220" y="424" type="line"/>
      <point x="336" y="260"/>
      <point x="351" y="201"/>
      <point x="351" y="162" type="curve" smooth="yes"/>
      <point x="351" y="109"/>
      <point x="314" y="77"/>
      <point x="215" y="77" type="curve" smooth="yes"/>
      <point x="151" y="77"/>
      <point x="102" y="96"/>
      <point x="75" y="114" type="curve"/>
    </contour>
    <contour>
      <point x="216" y="560" type="curve" smooth="yes"/>
      <point x="243" y="560"/>
      <point x="265" y="582"/>
      <point x="265" y="609" type="curve" smooth="yes"/>
      <point x="265" y="636"/>
      <point x="243" y="659"/>
      <point x="216" y="659" type="curve" smooth="yes"/>
      <point x="188" y="659"/>
      <point x="166" y="636"/>
      <point x="166" y="609" type="curve" smooth="yes"/>
      <point x="166" y="582"/>
      <point x="188" y="560"/>
    </contour>
  </outline>
</glyph>
<glyph name="zain-ar" format="2">
  <advance width="367"/>
  <unicode hex="0632"/>
  <anchor x="137" y="-214" name="bottom"/>
  <anchor x="39" y="36" name="center"/>
  <anchor x="249" y="-39" name="ring"/>
  <anchor x="176" y="351" name="top"/>
  <outline>
    <contour>
      <point x="4" y="-230" type="line"/>
      <point x="108" y="-203"/>
      <point x="301" y="-97"/>
      <point x="301" y="114" type="curve" smooth="yes"/>
      <point x="301" y="172"/>
      <point x="280" y="252"/>
      <point x="230" y="339" type="curve"/>
      <point x="157" y="302" type="line"/>
      <point x="211" y="204"/>
      <point x="226" y="163"/>
      <point x="226" y="107" type="curve" smooth="yes"/>
      <point x="226" y="19"/>
      <point x="177" y="-90"/>
      <point x="-25" y="-154" type="curve"/>
    </contour>
    <contour>
      <point x="177" y="454" type="curve" smooth="yes"/>
      <point x="204" y="454"/>
      <point x="226" y="476"/>
      <point x="226" y="503" type="curve" smooth="yes"/>
      <point x="226" y="530"/>
      <point x="204" y="553"/>
      <point x="177" y="553" type="curve" smooth="yes"/>
      <point x="149" y="553"/>
      <point x="127" y="530"/>
      <point x="127" y="503" type="curve" smooth="yes"/>
      <point x="127" y="476"/>
      <point x="149" y="454"/>
    </contour>
  </outline>
</glyph>
<glyph name="zah-ar" format="2">
  <advance width="788"/>
  <unicode hex="0638"/>
  <anchor x="369" y="-13" name="bottom"/>
  <anchor x="566" y="374" name="top"/>
  <outline>
    <contour>
      <point x="369" y="-13" type="curve" smooth="yes"/>
      <point x="651" y="-13"/>
      <point x="743" y="87"/>
      <point x="743" y="205" type="curve" smooth="yes"/>
      <point x="743" y="301"/>
      <point x="675" y="374"/>
      <point x="566" y="374" type="curve" smooth="yes"/>
      <point x="404" y="374"/>
      <point x="243" y="201"/>
      <point x="159" y="63" type="curve"/>
      <point x="246" y="60" type="line"/>
      <point x="298" y="137"/>
      <point x="433" y="292"/>
      <point x="560" y="292" type="curve" smooth="yes"/>
      <point x="635" y="292"/>
      <point x="666" y="240"/>
      <point x="666" y="197" type="curve" smooth="yes"/>
      <point x="666" y="113"/>
      <point x="563" y="69"/>
      <point x="387" y="69" type="curve" smooth="yes"/>
      <point x="230" y="69"/>
      <point x="107" y="73"/>
      <point x="29" y="84" type="curve"/>
      <point x="20" y="6" type="line"/>
      <point x="81" y="-2"/>
      <point x="202" y="-13"/>
    </contour>
    <contour>
      <point x="213" y="99" type="line"/>
      <point x="294" y="169" type="line"/>
      <point x="274" y="714" type="line"/>
      <point x="193" y="714" type="line"/>
    </contour>
    <contour>
      <point x="567" y="477" type="curve" smooth="yes"/>
      <point x="594" y="477"/>
      <point x="616" y="499"/>
      <point x="616" y="526" type="curve" smooth="yes"/>
      <point x="616" y="553"/>
      <point x="594" y="576"/>
      <point x="567" y="576" type="curve" smooth="yes"/>
      <point x="539" y="576"/>
      <point x="517" y="553"/>
      <point x="517" y="526" type="curve" smooth="yes"/>
      <point x="517" y="499"/>
      <point x="539" y="477"/>
    </contour>
  </outline>
</glyph>
<glyph name="kaf-ar" format="2">
  <advance width="882"/>
  <unicode hex="0643"/>
  <anchor x="410" y="-21" name="bottom"/>
  <anchor x="466" y="528" name="top"/>
  <outline>
    <contour>
      <point x="390" y="-21" type="curve" smooth="yes"/>
      <point x="765" y="-21"/>
      <point x="827" y="67"/>
      <point x="821" y="209" type="curve" smooth="yes"/>
      <point x="801" y="714" type="line"/>
      <point x="720" y="714" type="line"/>
      <point x="739" y="200" type="line" smooth="yes"/>
      <point x="743" y="99"/>
      <point x="681" y="61"/>
      <point x="416" y="61" type="curve" smooth="yes"/>
      <point x="178" y="61"/>
      <point x="112" y="101"/>
      <point x="112" y="205" type="curve" smooth="yes"/>
      <point x="112" y="239"/>
      <point x="125" y="290"/>
      <point x="133" y="320" type="curve"/>
      <point x="58" y="339" type="line"/>
      <point x="44" y="289"/>
      <point x="30" y="231"/>
      <point x="30" y="182" type="curve" smooth="yes"/>
      <point x="30" y="36"/>
      <point x="152" y="-21"/>
    </contour>
    <contour>
      <point x="364" y="204" type="line"/>
      <point x="504" y="242"/>
      <point x="528" y="275"/>
      <point x="528" y="313" type="curve" smooth="yes"/>
      <point x="528" y="368"/>
      <point x="453" y="394"/>
      <point x="453" y="418" type="curve" smooth="yes"/>
      <point x="453" y="434"/>
      <point x="480" y="454"/>
      <point x="542" y="483" type="curve"/>
      <point x="511" y="540" type="line"/>
      <point x="412" y="492"/>
      <point x="387" y="451"/>
      <point x="387" y="416" type="curve" smooth="yes"/>
      <point x="387" y="363"/>
      <point x="462" y="346"/>
      <point x="462" y="317" type="curve" smooth="yes"/>
      <point x="462" y="301"/>
      <point x="429" y="289"/>
      <point x="345" y="267" type="curve"/>
    </contour>
  </outline>
</glyph>
<glyph name="lam-ar" format="2">
  <advance width="695"/>
  <unicode hex="0644"/>
  <anchor x="548" y="444" name="bar"/>
  <anchor x="313" y="-232" name="bottom"/>
  <anchor x="558" y="714" name="top"/>
  <outline>
    <contour>
      <point x="30" y="-1" type="curve" smooth="yes"/>
      <point x="30" y="-160"/>
      <point x="169" y="-232"/>
      <point x="310" y="-232" type="curve" smooth="yes"/>
      <point x="572" y="-232"/>
      <point x="637" y="-44"/>
      <point x="630" y="180" type="curve" smooth="yes"/>
      <point x="613" y="714" type="line"/>
      <point x="530" y="714" type="line"/>
      <point x="549" y="201" type="line" smooth="yes"/>
      <point x="558" y="-40"/>
      <point x="508" y="-150"/>
      <point x="313" y="-150" type="curve" smooth="yes"/>
      <point x="193" y="-150"/>
      <point x="112" y="-91"/>
      <point x="112" y="6" type="curve" smooth="yes"/>
      <point x="112" y="46"/>
      <point x="123" y="92"/>
      <point x="144" y="148" type="curve"/>
      <point x="72" y="176" type="line"/>
      <point x="43" y="105"/>
      <point x="30" y="47"/>
    </contour>
  </outline>
</glyph>
<glyph name="yeh-ar" format="2">
  <advance width="760"/>
  <unicode hex="064A"/>
  <anchor x="356" y="-232" name="bottom"/>
  <anchor x="144" y="148" name="tail"/>
  <anchor x="216" y="150" name="top"/>
  <anchor x="274" y="292" name="top.digit"/>
  <outline>
    <contour>
      <point x="30" y="-1" type="curve" smooth="yes"/>
      <point x="30" y="-158"/>
      <point x="159" y="-232"/>
      <point x="326" y="-232" type="curve" smooth="yes"/>
      <point x="570" y="-232"/>
      <point x="707" y="-86"/>
      <point x="707" y="14" type="curve" smooth="yes"/>
      <point x="707" y="116"/>
      <point x="462" y="131"/>
      <point x="462" y="201" type="curve" smooth="yes"/>
      <point x="462" y="264"/>
      <point x="552" y="337"/>
      <point x="629" y="337" type="curve" smooth="yes"/>
      <point x="660" y="337"/>
      <point x="688" y="326"/>
      <point x="711" y="315" type="curve"/>
      <point x="744" y="386" type="line"/>
      <point x="726" y="399"/>
      <point x="685" y="419"/>
      <point x="629" y="419" type="curve" smooth="yes"/>
      <point x="504" y="419"/>
      <point x="382" y="296"/>
      <point x="382" y="188" type="curve" smooth="yes"/>
      <point x="382" y="63"/>
      <point x="618" y="57"/>
      <point x="618" y="1" type="curve" smooth="yes"/>
      <point x="618" y="-53"/>
      <point x="524" y="-150"/>
      <point x="331" y="-150" type="curve" smooth="yes"/>
      <point x="207" y="-150"/>
      <point x="112" y="-97"/>
      <point x="112" y="6" type="curve" smooth="yes"/>
      <point x="112" y="46"/>
      <point x="123" y="92"/>
      <point x="144" y="148" type="curve"/>
      <point x="72" y="176" type="line"/>
      <point x="43" y="105"/>
      <point x="30" y="47"/>
    </contour>
    <contour>
      <point x="428" y="-421" type="curve" smooth="yes"/>
      <point x="455" y="-421"/>
      <point x="477" y="-399"/>
      <point x="477" y="-372" type="curve" smooth="yes"/>
      <point x="477" y="-345"/>
      <point x="455" y="-322"/>
      <point x="428" y="-322" type="curve" smooth="yes"/>
      <point x="400" y="-322"/>
      <point x="378" y="-345"/>
      <point x="378" y="-372" type="curve" smooth="yes"/>
      <point x="378" y="-399"/>
      <point x="400" y="-421"/>
    </contour>
    <contour>
      <point x="291" y="-421" type="curve" smooth="yes"/>
      <point x="318" y="-421"/>
      <point x="340" y="-399"/>
      <point x="340" y="-372" type="curve" smooth="yes"/>
      <point x="340" y="-345"/>
      <point x="318" y="-322"/>
      <point x="291" y="-322" type="curve" smooth="yes"/>
      <point x="263" y="-322"/>
      <point x="241" y="-345"/>
      <point x="241" y="-372" type="curve" smooth="yes"/>
      <point x="241" y="-399"/>
      <point x="263" y="-421"/>
    </contour>
  </outline>
</glyph>
<glyph name="four-ar" format="2">
  <advance width="572"/>
  <unicode hex="0664"/>
  <outline>
    <contour>
      <point x="470" y="107" type="line"/>
      <point x="438" y="93"/>
      <point x="375" y="73"/>
      <point x="308" y="73" type="curve" smooth="yes"/>
      <point x="225" y="73"/>
      <point x="163" y="93"/>
      <point x="163" y="151" type="curve" smooth="yes"/>
      <point x="163" y="194"/>
      <point x="194" y="255"/>
      <point x="338" y="330" type="curve"/>
      <point x="331" y="402" type="line"/>
      <point x="231" y="380"/>
      <point x="162" y="409"/>
      <point x="162" y="447" type="curve" smooth="yes"/>
      <point x="162" y="501"/>
      <point x="222" y="560"/>
      <point x="354" y="605" type="curve"/>
      <point x="326" y="682" type="line"/>
      <point x="158" y="628"/>
      <point x="81" y="526"/>
      <point x="81" y="442" type="curve" smooth="yes"/>
      <point x="81" y="380"/>
      <point x="128" y="339"/>
      <point x="189" y="326" type="curve"/>
      <point x="101" y="259"/>
      <point x="80" y="192"/>
      <point x="80" y="147" type="curve" smooth="yes"/>
      <point x="80" y="53"/>
      <point x="161" y="-5"/>
      <point x="299" y="-5" type="curve" smooth="yes"/>
      <point x="384" y="-5"/>
      <point x="437" y="9"/>
      <point x="493" y="37" type="curve"/>
    </contour>
  </outline>
</glyph>
<glyph name="five-ar" format="2">
  <advance width="572"/>
  <unicode hex="0665"/>
  <outline>
    <contour>
      <point x="280" y="76" type="curve" smooth="yes"/>
      <point x="166" y="76"/>
      <point x="140" y="174"/>
      <point x="140" y="261" type="curve" smooth="yes"/>
      <point x="140" y="379"/>
      <point x="203" y="561"/>
      <point x="280" y="561" type="curve" smooth="yes"/>
      <point x="359" y="561"/>
      <point x="432" y="381"/>
      <point x="432" y="265" type="curve" smooth="yes"/>
      <point x="432" y="175"/>
      <point x="407" y="76"/>
    </contour>
    <contour>
      <point x="280" y="-5" type="curve" smooth="yes"/>
      <point x="474" y="-5"/>
      <point x="512" y="157"/>
      <point x="512" y="265" type="curve" smooth="yes"/>
      <point x="512" y="406"/>
      <point x="426" y="642"/>
      <point x="280" y="642" type="curve" smooth="yes"/>
      <point x="133" y="642"/>
      <point x="60" y="400"/>
      <point x="60" y="261" type="curve" smooth="yes"/>
      <point x="60" y="154"/>
      <point x="101" y="-5"/>
    </contour>
  </outline>
</glyph>
<glyph name="eight-ar" format="2">
  <advance width="572"/>
  <unicode hex="0668"/>
  <unicode hex="06F8"/>
  <outline>
    <contour>
      <point x="329" y="681" type="line"/>
      <point x="251" y="667" type="line"/>
      <point x="217" y="507"/>
      <point x="104" y="213"/>
      <point x="17" y="21" type="curve"/>
      <point x="95" y="-11" type="line"/>
      <point x="170" y="155"/>
      <point x="265" y="414"/>
      <point x="310" y="602" type="curve" smooth="yes"/>
    </contour>
    <contour>
      <point x="329" y="681" type="curve"/>
      <point x="255" y="667" type="line"/>
      <point x="274" y="575" type="line" smooth="yes"/>
      <point x="311" y="394"/>
      <point x="399" y="171"/>
      <point x="475" y="-16" type="curve"/>
      <point x="555" y="15" type="line"/>
      <point x="468" y="214"/>
      <point x="378" y="494"/>
    </contour>
  </outline>
</glyph>
<glyph name="nine-ar" format="2">
  <advance width="572"/>
  <unicode hex="0669"/>
  <unicode hex="06F9"/>
  <outline>
    <contour>
      <point x="410" y="-5" type="curve"/>
      <point x="485" y="8" type="line"/>
      <point x="454" y="116"/>
      <point x="445" y="261"/>
      <point x="435" y="384" type="curve" smooth="yes"/>
      <point x="422" y="538"/>
      <point x="401" y="679"/>
      <point x="265" y="679" type="curve" smooth="yes"/>
      <point x="159" y="679"/>
      <point x="87" y="579"/>
      <point x="87" y="480" type="curve" smooth="yes"/>
      <point x="87" y="377"/>
      <point x="163" y="320"/>
      <point x="267" y="321" type="curve" smooth="yes"/>
      <point x="311" y="321"/>
      <point x="359" y="331"/>
      <point x="408" y="352" type="curve"/>
      <point x="399" y="423" type="line"/>
      <point x="357" y="407"/>
      <point x="316" y="399"/>
      <point x="280" y="399" type="curve" smooth="yes"/>
      <point x="212" y="399"/>
      <point x="163" y="429"/>
      <point x="163" y="492" type="curve" smooth="yes"/>
      <point x="163" y="540"/>
      <point x="199" y="599"/>
      <point x="254" y="599" type="curve" smooth="yes"/>
      <point x="327" y="599"/>
      <point x="345" y="512"/>
      <point x="358" y="367" type="curve" smooth="yes"/>
      <point x="368" y="253"/>
      <point x="379" y="124"/>
    </contour>
  </outline>
</glyph>
<glyph name="zeroFarsi-ar" format="2">
  <advance width="572"/>
  <unicode hex="06F0"/>
  <outline>
    <contour>
      <point x="286" y="214" type="curve" smooth="yes"/>
      <point x="359" y="214"/>
      <point x="416" y="273"/>
      <point x="416" y="346" type="curve" smooth="yes"/>
      <point x="416" y="419"/>
      <point x="359" y="478"/>
      <point x="286" y="478" type="curve" smooth="yes"/>
      <point x="213" y="478"/>
      <point x="156" y="419"/>
      <point x="156" y="346" type="curve" smooth="yes"/>
      <point x="156" y="273"/>
      <point x="213" y="214"/>
    </contour>
    <contour>
      <point x="286" y="296" type="curve" smooth="yes"/>
      <point x="258" y="296"/>
      <point x="236" y="318"/>
      <point x="236" y="346" type="curve" smooth="yes"/>
      <point x="236" y="374"/>
      <point x="258" y="396"/>
      <point x="286" y="396" type="curve" smooth="yes"/>
      <point x="314" y="396"/>
      <point x="336" y="374"/>
      <point x="336" y="346" type="curve" smooth="yes"/>
      <point x="336" y="318"/>
      <point x="314" y="296"/>
    </contour>
  </outline>
</glyph>
<glyph name="fourFarsi-ar" format="2">
  <advance width="572"/>
  <unicode hex="06F4"/>
  <outline>
    <contour>
      <point x="246" y="0" type="line"/>
      <point x="246" y="116"/>
      <point x="225" y="451"/>
      <point x="161" y="678" type="curve"/>
      <point x="81" y="656" type="line"/>
      <point x="139" y="446"/>
      <point x="170" y="70"/>
      <point x="170" y="4" type="curve"/>
    </contour>
    <contour>
      <point x="304" y="418" type="curve" smooth="yes"/>
      <point x="379" y="418"/>
      <point x="434" y="432"/>
      <point x="492" y="463" type="curve"/>
      <point x="476" y="530" type="line"/>
      <point x="440" y="512"/>
      <point x="413" y="501"/>
      <point x="365" y="491" type="curve"/>
      <point x="391" y="456" type="line"/>
      <point x="441" y="475" type="line"/>
      <point x="400" y="474"/>
      <point x="330" y="519"/>
      <point x="330" y="565" type="curve" smooth="yes"/>
      <point x="330" y="590"/>
      <point x="352" y="601"/>
      <point x="388" y="601" type="curve" smooth="yes"/>
      <point x="407" y="601"/>
      <point x="423" y="598"/>
      <point x="439" y="594" type="curve"/>
      <point x="447" y="668" type="line"/>
      <point x="429" y="674"/>
      <point x="404" y="678"/>
      <point x="383" y="678" type="curve" smooth="yes"/>
      <point x="304" y="678"/>
      <point x="254" y="630"/>
      <point x="254" y="567" type="curve" smooth="yes"/>
      <point x="254" y="510"/>
      <point x="302" y="463"/>
      <point x="351" y="447" type="curve"/>
      <point x="355" y="489" type="line"/>
      <point x="292" y="486"/>
      <point x="225" y="490"/>
      <point x="193" y="496" type="curve"/>
      <point x="197" y="424" type="line"/>
      <point x="231" y="420"/>
      <point x="276" y="418"/>
    </contour>
  </outline>
</glyph>
<glyph name="fiveFarsi-ar" format="2">
  <advance width="572"/>
  <unicode hex="06F5"/>
  <outline>
    <contour>
      <point x="203" y="0" type="curve" smooth="yes"/>
      <point x="264" y="0"/>
      <point x="291" y="42"/>
      <point x="291" y="73" type="curve"/>
      <point x="270" y="73" type="line"/>
      <point x="270" y="41"/>
      <point x="303" y="0"/>
      <point x="361" y="0" type="curve" smooth="yes"/>
      <point x="449" y="0"/>
      <point x="494" y="85"/>
      <point x="494" y="173" type="curve" smooth="yes"/>
      <point x="494" y="317"/>
      <point x="431" y="507"/>
      <point x="274" y="680" type="curve"/>
      <point x="208" y="628" type="line"/>
      <point x="364" y="456"/>
      <point x="418" y="291"/>
      <point x="418" y="170" type="curve" smooth="yes"/>
      <point x="418" y="94"/>
      <point x="388" y="77"/>
      <point x="354" y="77" type="curve" smooth="yes"/>
      <point x="322" y="77"/>
      <point x="312" y="99"/>
      <point x="312" y="140" type="curve"/>
      <point x="312" y="153" type="line"/>
      <point x="251" y="148" type="line"/>
      <point x="251" y="135" type="line" smooth="yes"/>
      <point x="251" y="103"/>
      <point x="246" y="77"/>
      <point x="210" y="77" type="curve" smooth="yes"/>
      <point x="167" y="77"/>
      <point x="150" y="107"/>
      <point x="150" y="177" type="curve" smooth="yes"/>
      <point x="150" y="308"/>
      <point x="251" y="478"/>
      <point x="324" y="555" type="curve"/>
      <point x="274" y="603" type="line"/>
      <point x="198" y="523"/>
      <point x="79" y="341"/>
      <point x="79" y="173" type="curve" smooth="yes"/>
      <point x="79" y="50"/>
      <point x="131" y="0"/>
    </contour>
  </outline>
</glyph>
<glyph name="aeTurnedmod" format="2">
  <advance width="591"/>
  <unicode hex="1D46"/>
  <anchor x="288" y="450" name="center"/>
  <anchor x="326" y="0" name="math.ta"/>
  <anchor x="326" y="669" name="top"/>
  <outline>
    <contour>
      <point x="175" y="281" type="curve" smooth="yes"/>
      <point x="222" y="281"/>
      <point x="260" y="300"/>
      <point x="282" y="334" type="curve"/>
      <point x="301" y="297"/>
      <point x="336" y="282"/>
      <point x="390" y="282" type="curve" smooth="yes"/>
      <point x="434" y="282"/>
      <point x="480" y="294"/>
      <point x="512" y="309" type="curve"/>
      <point x="493" y="350" type="line"/>
      <point x="464" y="337"/>
      <point x="430" y="325"/>
      <point x="394" y="325" type="curve" smooth="yes"/>
      <point x="350" y="325"/>
      <point x="321" y="343"/>
      <point x="321" y="396" type="curve" smooth="yes"/>
      <point x="321" y="417" type="line"/>
      <point x="380" y="419" type="line" smooth="yes"/>
      <point x="488" y="423"/>
      <point x="541" y="457"/>
      <point x="541" y="522" type="curve" smooth="yes"/>
      <point x="541" y="589"/>
      <point x="492" y="619"/>
      <point x="429" y="619" type="curve" smooth="yes"/>
      <point x="361" y="619"/>
      <point x="325" y="592"/>
      <point x="295" y="550" type="curve"/>
      <point x="269" y="596"/>
      <point x="222" y="619"/>
      <point x="161" y="619" type="curve" smooth="yes"/>
      <point x="118" y="619"/>
      <point x="87" y="612"/>
      <point x="52" y="598" type="curve"/>
      <point x="52" y="551" type="line"/>
      <point x="86" y="565"/>
      <point x="117" y="573"/>
      <point x="159" y="573" type="curve" smooth="yes"/>
      <point x="225" y="573"/>
      <point x="260" y="537"/>
      <point x="262" y="460" type="curve"/>
      <point x="36" y="460" type="line"/>
      <point x="36" y="427" type="line" smooth="yes"/>
      <point x="36" y="340"/>
      <point x="89" y="281"/>
    </contour>
    <contour>
      <point x="175" y="325" type="curve" smooth="yes"/>
      <point x="122" y="325"/>
      <point x="98" y="362"/>
      <point x="98" y="418" type="curve"/>
      <point x="261" y="418" type="line"/>
      <point x="256" y="358"/>
      <point x="225" y="325"/>
    </contour>
    <contour>
      <point x="322" y="454" type="line"/>
      <point x="322" y="482" type="line" smooth="yes"/>
      <point x="322" y="546"/>
      <point x="365" y="575"/>
      <point x="420" y="575" type="curve" smooth="yes"/>
      <point x="457" y="575"/>
      <point x="481" y="559"/>
      <point x="481" y="523" type="curve" smooth="yes"/>
      <point x="481" y="481"/>
      <point x="454" y="457"/>
      <point x="372" y="455" type="curve" smooth="yes"/>
    </contour>
  </outline>
</glyph>
<glyph name="dagger" format="2">
  <advance width="512"/>
  <unicode hex="2020"/>
  <anchor x="256" y="380" name="center"/>
  <outline>
    <contour>
      <point x="277" y="499" type="line"/>
      <point x="448" y="484" type="line"/>
      <point x="448" y="571" type="line"/>
      <point x="277" y="556" type="line"/>
      <point x="302" y="760" type="line"/>
      <point x="202" y="760" type="line"/>
      <point x="226" y="556" type="line"/>
      <point x="65" y="571" type="line"/>
      <point x="65" y="484" type="line"/>
      <point x="226" y="499" type="line"/>
      <point x="202" y="0" type="line"/>
      <point x="302" y="0" type="line"/>
    </contour>
  </outline>
</glyph>
<glyph name="prime" format="2">
  <advance width="232"/>
  <unicode hex="2032"/>
  <anchor x="148" y="585" name="center"/>
  <outline>
    <contour>
      <point x="39" y="456" type="line"/>
      <point x="97" y="456" type="line"/>
      <point x="258" y="714" type="line"/>
      <point x="168" y="714" type="line"/>
    </contour>
  </outline>
</glyph>
<glyph name="tripleprime" format="2">
  <advance width="584"/>
  <unicode hex="2034"/>
  <anchor x="324" y="585" name="center"/>
  <outline>
    <contour>
      <point x="391" y="456" type="line"/>
      <point x="449" y="456" type="line"/>
      <point x="610" y="714" type="line"/>
      <point x="520" y="714" type="line"/>
    </contour>
    <contour>
      <point x="39" y="456" type="line"/>
      <point x="97" y="456" type="line"/>
      <point x="258" y="714" type="line"/>
      <point x="168" y="714" type="line"/>
    </contour>
    <contour>
      <point x="215" y="456" type="line"/>
      <point x="273" y="456" type="line"/>
      <point x="434" y="714" type="line"/>
      <point x="344" y="714" type="line"/>
    </contour>
  </outline>
</glyph>
<glyph name="primeReversed" format="2">
  <advance width="232"/>
  <unicode hex="2035"/>
  <anchor x="83" y="585" name="center"/>
  <outline>
    <contour>
      <point x="135" y="456" type="line"/>
      <point x="193" y="456" type="line"/>
      <point x="64" y="714" type="line"/>
      <point x="-26" y="714" type="line"/>
    </contour>
  </outline>
</glyph>
<glyph name="anticlockwisearrowabovecomb" format="2">
  <unicode hex="20D4"/>
  <anchor x="304" y="536" name="_top"/>
  <anchor x="304" y="0" name="math.ta"/>
  <anchor x="304" y="486" name="top"/>
  <outline>
    <contour>
      <point x="0" y="608" type="line"/>
      <point x="131" y="608" type="line"/>
      <point x="86" y="652" type="line"/>
      <point x="142" y="714"/>
      <point x="226" y="746"/>
      <point x="314" y="746" type="curve" smooth="yes"/>
      <point x="415" y="746"/>
      <point x="507" y="701"/>
      <point x="558" y="630" type="curve"/>
      <point x="608" y="662" type="line"/>
      <point x="541" y="751"/>
      <point x="433" y="805"/>
      <point x="314" y="805" type="curve" smooth="yes"/>
      <point x="207" y="805"/>
      <point x="117" y="769"/>
      <point x="44" y="695" type="curve"/>
      <point x="0" y="739" type="line"/>
    </contour>
  </outline>
</glyph>
<glyph name="clockwisearrowabovecomb" format="2">
  <unicode hex="20D5"/>
  <anchor x="304" y="536" name="_top"/>
  <anchor x="304" y="0" name="math.ta"/>
  <anchor x="304" y="486" name="top"/>
  <outline>
    <contour>
      <point x="477" y="608" type="line"/>
      <point x="608" y="608" type="line"/>
      <point x="608" y="739" type="line"/>
      <point x="564" y="695" type="line"/>
      <point x="491" y="769"/>
      <point x="401" y="805"/>
      <point x="294" y="805" type="curve" smooth="yes"/>
      <point x="174" y="805"/>
      <point x="66" y="750"/>
      <point x="0" y="662" type="curve"/>
      <point x="50" y="630" type="line"/>
      <point x="101" y="701"/>
      <point x="193" y="746"/>
      <point x="294" y="746" type="curve" smooth="yes"/>
      <point x="382" y="746"/>
      <point x="466" y="714"/>
      <point x="522" y="652" type="curve"/>
    </contour>
  </outline>
</glyph>
<glyph name="ringoverlaycomb" format="2">
  <unicode hex="20D8"/>
  <anchor x="0" y="268" name="_center"/>
  <outline>
    <contour>
      <point x="0" y="41" type="curve" smooth="yes"/>
      <point x="125" y="41"/>
      <point x="227" y="143"/>
      <point x="227" y="268" type="curve" smooth="yes"/>
      <point x="227" y="393"/>
      <point x="125" y="495"/>
      <point x="0" y="495" type="curve" smooth="yes"/>
      <point x="-125" y="495"/>
      <point x="-227" y="393"/>
      <point x="-227" y="268" type="curve" smooth="yes"/>
      <point x="-227" y="143"/>
      <point x="-125" y="41"/>
    </contour>
    <contour>
      <point x="0" y="99" type="curve" smooth="yes"/>
      <point x="-91" y="99"/>
      <point x="-169" y="177"/>
      <point x="-169" y="268" type="curve" smooth="yes"/>
      <point x="-169" y="359"/>
      <point x="-91" y="437"/>
      <point x="0" y="437" type="curve" smooth="yes"/>
      <point x="91" y="437"/>
      <point x="169" y="359"/>
      <point x="169" y="268" type="curve" smooth="yes"/>
      <point x="169" y="177"/>
      <point x="91" y="99"/>
    </contour>
  </outline>
</glyph>
<glyph name="threedotsabovecomb" format="2">
  <unicode hex="20DB"/>
  <anchor x="242" y="536" name="_top"/>
  <anchor x="242" y="0" name="math.ta"/>
  <anchor x="242" y="664" name="top"/>
  <outline>
    <contour>
      <point x="434" y="625" type="curve" smooth="yes"/>
      <point x="461" y="625"/>
      <point x="485" y="642"/>
      <point x="485" y="681" type="curve" smooth="yes"/>
      <point x="485" y="720"/>
      <point x="461" y="737"/>
      <point x="434" y="737" type="curve" smooth="yes"/>
      <point x="405" y="737"/>
      <point x="382" y="720"/>
      <point x="382" y="681" type="curve" smooth="yes"/>
      <point x="382" y="642"/>
      <point x="405" y="625"/>
    </contour>
    <contour>
      <point x="52" y="625" type="curve" smooth="yes"/>
      <point x="79" y="625"/>
      <point x="103" y="642"/>
      <point x="103" y="681" type="curve" smooth="yes"/>
      <point x="103" y="720"/>
      <point x="79" y="737"/>
      <point x="52" y="737" type="curve" smooth="yes"/>
      <point x="23" y="737"/>
      <point x="0" y="720"/>
      <point x="0" y="681" type="curve" smooth="yes"/>
      <point x="0" y="642"/>
      <point x="23" y="625"/>
    </contour>
    <contour>
      <point x="243" y="625" type="curve" smooth="yes"/>
      <point x="270" y="625"/>
      <point x="294" y="642"/>
      <point x="294" y="681" type="curve" smooth="yes"/>
      <point x="294" y="720"/>
      <point x="270" y="737"/>
      <point x="243" y="737" type="curve" smooth="yes"/>
      <point x="214" y="737"/>
      <point x="191" y="720"/>
      <point x="191" y="681" type="curve" smooth="yes"/>
      <point x="191" y="642"/>
      <point x="214" y="625"/>
    </contour>
  </outline>
</glyph>
<glyph name="fourdotsabovecomb" format="2">
  <unicode hex="20DC"/>
  <anchor x="338" y="536" name="_top"/>
  <anchor x="338" y="0" name="math.ta"/>
  <anchor x="338" y="664" name="top"/>
  <outline>
    <contour>
      <point x="287" y="625" type="curve" smooth="yes"/>
      <point x="314" y="625"/>
      <point x="338" y="642"/>
      <point x="338" y="681" type="curve" smooth="yes"/>
      <point x="338" y="720"/>
      <point x="314" y="737"/>
      <point x="287" y="737" type="curve" smooth="yes"/>
      <point x="258" y="737"/>
      <point x="235" y="720"/>
      <point x="235" y="681" type="curve" smooth="yes"/>
      <point x="235" y="642"/>
      <point x="258" y="625"/>
    </contour>
    <contour>
      <point x="-286" y="625" type="curve" smooth="yes"/>
      <point x="-259" y="625"/>
      <point x="-235" y="642"/>
      <point x="-235" y="681" type="curve" smooth="yes"/>
      <point x="-235" y="720"/>
      <point x="-259" y="737"/>
      <point x="-286" y="737" type="curve" smooth="yes"/>
      <point x="-315" y="737"/>
      <point x="-338" y="720"/>
      <point x="-338" y="681" type="curve" smooth="yes"/>
      <point x="-338" y="642"/>
      <point x="-315" y="625"/>
    </contour>
    <contour>
      <point x="-95" y="625" type="curve" smooth="yes"/>
      <point x="-68" y="625"/>
      <point x="-44" y="642"/>
      <point x="-44" y="681" type="curve" smooth="yes"/>
      <point x="-44" y="720"/>
      <point x="-68" y="737"/>
      <point x="-95" y="737" type="curve" smooth="yes"/>
      <point x="-124" y="737"/>
      <point x="-147" y="720"/>
      <point x="-147" y="681" type="curve" smooth="yes"/>
      <point x="-147" y="642"/>
      <point x="-124" y="625"/>
    </contour>
    <contour>
      <point x="96" y="625" type="curve" smooth="yes"/>
      <point x="123" y="625"/>
      <point x="147" y="642"/>
      <point x="147" y="681" type="curve" smooth="yes"/>
      <point x="147" y="720"/>
      <point x="123" y="737"/>
      <point x="96" y="737" type="curve" smooth="yes"/>
      <point x="67" y="737"/>
      <point x="44" y="720"/>
      <point x="44" y="681" type="curve" smooth="yes"/>
      <point x="44" y="642"/>
      <point x="67" y="625"/>
    </contour>
  </outline>
</glyph>
<glyph name="enclosingdiamondcomb" format="2">
  <advance width="1370"/>
  <unicode hex="20DF"/>
  <anchor x="685" y="357" name="_center"/>
  <outline>
    <contour>
      <point x="685" y="-277" type="line"/>
      <point x="1319" y="357" type="line"/>
      <point x="685" y="991" type="line"/>
      <point x="51" y="357" type="line"/>
    </contour>
    <contour>
      <point x="685" y="-205" type="line"/>
      <point x="123" y="357" type="line"/>
      <point x="685" y="919" type="line"/>
      <point x="1247" y="357" type="line"/>
    </contour>
  </outline>
</glyph>
<glyph name="reversesolidusoverlaycomb" format="2">
  <unicode hex="20E5"/>
  <anchor x="0" y="357" name="_center"/>
  <outline>
    <contour>
      <point x="89" y="0" type="line"/>
      <point x="176" y="0" type="line"/>
      <point x="-91" y="714" type="line"/>
      <point x="-177" y="714" type="line"/>
    </contour>
  </outline>
</glyph>
<glyph name="tripleunderdotcomb" format="2">
  <unicode hex="20E8"/>
  <anchor x="-1" y="0" name="_bottom"/>
  <anchor x="-1" y="0" name="math.ta"/>
  <anchor x="-1" y="-26" name="top"/>
  <outline>
    <contour>
      <point x="191" y="-188" type="curve" smooth="yes"/>
      <point x="218" y="-188"/>
      <point x="242" y="-171"/>
      <point x="242" y="-132" type="curve" smooth="yes"/>
      <point x="242" y="-93"/>
      <point x="218" y="-76"/>
      <point x="191" y="-76" type="curve" smooth="yes"/>
      <point x="162" y="-76"/>
      <point x="139" y="-93"/>
      <point x="139" y="-132" type="curve" smooth="yes"/>
      <point x="139" y="-171"/>
      <point x="162" y="-188"/>
    </contour>
    <contour>
      <point x="-191" y="-188" type="curve" smooth="yes"/>
      <point x="-164" y="-188"/>
      <point x="-140" y="-171"/>
      <point x="-140" y="-132" type="curve" smooth="yes"/>
      <point x="-140" y="-93"/>
      <point x="-164" y="-76"/>
      <point x="-191" y="-76" type="curve" smooth="yes"/>
      <point x="-220" y="-76"/>
      <point x="-243" y="-93"/>
      <point x="-243" y="-132" type="curve" smooth="yes"/>
      <point x="-243" y="-171"/>
      <point x="-220" y="-188"/>
    </contour>
    <contour>
      <point x="0" y="-188" type="curve" smooth="yes"/>
      <point x="27" y="-188"/>
      <point x="51" y="-171"/>
      <point x="51" y="-132" type="curve" smooth="yes"/>
      <point x="51" y="-93"/>
      <point x="27" y="-76"/>
      <point x="0" y="-76" type="curve" smooth="yes"/>
      <point x="-29" y="-76"/>
      <point x="-52" y="-93"/>
      <point x="-52" y="-132" type="curve" smooth="yes"/>
      <point x="-52" y="-171"/>
      <point x="-29" y="-188"/>
    </contour>
  </outline>
</glyph>
<glyph name="widebridgeabovecomb" format="2">
  <unicode hex="20E9"/>
  <anchor x="3" y="536" name="_top"/>
  <anchor x="3" y="0" name="math.ta"/>
  <anchor x="3" y="486" name="top"/>
  <outline>
    <contour>
      <point x="-223" y="606" type="line"/>
      <point x="-167" y="606" type="line"/>
      <point x="-167" y="705" type="line"/>
      <point x="166" y="705" type="line"/>
      <point x="166" y="606" type="line"/>
      <point x="223" y="606" type="line"/>
      <point x="223" y="771" type="line"/>
      <point x="-223" y="771" type="line"/>
    </contour>
  </outline>
</glyph>
<glyph name="longdoublesolidusoverlaycomb" format="2">
  <unicode hex="20EB"/>
  <anchor x="0" y="357" name="_center"/>
  <outline>
    <contour>
      <point x="-82" y="0" type="line"/>
      <point x="5" y="0" type="line"/>
      <point x="271" y="714" type="line"/>
      <point x="185" y="714" type="line"/>
    </contour>
    <contour>
      <point x="-272" y="0" type="line"/>
      <point x="-185" y="0" type="line"/>
      <point x="81" y="714" type="line"/>
      <point x="-5" y="714" type="line"/>
    </contour>
  </outline>
</glyph>
<glyph name="gscript" format="2">
  <advance width="482"/>
  <unicode hex="210A"/>
  <anchor x="181" y="8" name="center"/>
  <anchor x="363" y="0" name="math.ta"/>
  <outline>
    <contour>
      <point x="-5" y="-295" type="curve" smooth="yes"/>
      <point x="97" y="-295"/>
      <point x="189" y="-185"/>
      <point x="288" y="2" type="curve"/>
      <point x="342" y="23"/>
      <point x="397" y="53"/>
      <point x="440" y="92" type="curve"/>
      <point x="427" y="106" type="line"/>
      <point x="382" y="68"/>
      <point x="346" y="49"/>
      <point x="307" y="33" type="curve"/>
      <point x="462" y="312" type="line"/>
      <point x="356" y="303" type="line"/>
      <point x="331" y="258" type="line"/>
      <point x="329" y="292"/>
      <point x="308" y="308"/>
      <point x="264" y="308" type="curve" smooth="yes"/>
      <point x="151" y="308"/>
      <point x="13" y="189"/>
      <point x="13" y="87" type="curve" smooth="yes"/>
      <point x="13" y="33"/>
      <point x="47" y="-2"/>
      <point x="104" y="-2" type="curve" smooth="yes"/>
      <point x="142" y="-2"/>
      <point x="176" y="15"/>
      <point x="214" y="51" type="curve"/>
      <point x="181" y="-10" type="line"/>
      <point x="-9" y="-73"/>
      <point x="-100" y="-143"/>
      <point x="-100" y="-218" type="curve" smooth="yes"/>
      <point x="-100" y="-266"/>
      <point x="-65" y="-295"/>
    </contour>
    <contour>
      <point x="-7" y="-275" type="curve" smooth="yes"/>
      <point x="-33" y="-275"/>
      <point x="-47" y="-256"/>
      <point x="-47" y="-225" type="curve" smooth="yes"/>
      <point x="-47" y="-153"/>
      <point x="37" y="-77"/>
      <point x="169" y="-37" type="curve"/>
      <point x="126" y="-121"/>
      <point x="90" y="-181"/>
      <point x="64" y="-218" type="curve" smooth="yes"/>
      <point x="39" y="-254"/>
      <point x="17" y="-275"/>
    </contour>
    <contour>
      <point x="122" y="14" type="curve" smooth="yes"/>
      <point x="105" y="14"/>
      <point x="96" y="22"/>
      <point x="96" y="36" type="curve" smooth="yes"/>
      <point x="96" y="85"/>
      <point x="238" y="288"/>
      <point x="285" y="288" type="curve" smooth="yes"/>
      <point x="303" y="288"/>
      <point x="313" y="277"/>
      <point x="313" y="260" type="curve" smooth="yes"/>
      <point x="313" y="239"/>
      <point x="299" y="210"/>
      <point x="277" y="169" type="curve" smooth="yes"/>
      <point x="232" y="86"/>
      <point x="172" y="14"/>
    </contour>
  </outline>
</glyph>
<glyph name="Hscript" format="2">
  <advance width="1095"/>
  <unicode hex="210B"/>
  <anchor x="562" y="366" name="center"/>
  <anchor x="1125" y="0" name="math.ic"/>
  <anchor x="848" y="0" name="math.ta"/>
  <outline>
    <contour>
      <point x="664" y="-9" type="curve" smooth="yes"/>
      <point x="725" y="-9"/>
      <point x="823" y="98"/>
      <point x="864" y="148" type="curve" smooth="yes"/>
      <point x="868" y="152"/>
      <point x="870" y="156"/>
      <point x="870" y="159" type="curve" smooth="yes"/>
      <point x="870" y="162"/>
      <point x="868" y="165"/>
      <point x="864" y="165" type="curve" smooth="yes"/>
      <point x="859" y="165"/>
      <point x="856" y="162"/>
      <point x="851" y="157" type="curve" smooth="yes"/>
      <point x="804" y="105"/>
      <point x="713" y="9"/>
      <point x="667" y="9" type="curve" smooth="yes"/>
      <point x="648" y="9"/>
      <point x="643" y="20"/>
      <point x="643" y="28" type="curve" smooth="yes"/>
      <point x="643" y="57"/>
      <point x="693" y="227"/>
      <point x="769" y="394" type="curve" smooth="yes"/>
      <point x="799" y="460"/>
      <point x="829" y="516"/>
      <point x="861" y="566" type="curve" smooth="yes"/>
      <point x="952" y="708"/>
      <point x="1015" y="723"/>
      <point x="1035" y="723" type="curve" smooth="yes"/>
      <point x="1055" y="723"/>
      <point x="1073" y="713"/>
      <point x="1073" y="690" type="curve" smooth="yes"/>
      <point x="1073" y="624"/>
      <point x="937" y="479"/>
      <point x="847" y="436" type="curve" smooth="yes"/>
      <point x="778" y="403"/>
      <point x="594" y="341"/>
      <point x="463" y="303" type="curve" smooth="yes"/>
      <point x="324" y="263"/>
      <point x="271" y="217"/>
      <point x="236" y="181" type="curve" smooth="yes"/>
      <point x="232" y="177"/>
      <point x="229" y="172"/>
      <point x="229" y="168" type="curve" smooth="yes"/>
      <point x="229" y="163"/>
      <point x="233" y="160"/>
      <point x="238" y="160" type="curve" smooth="yes"/>
      <point x="241" y="160"/>
      <point x="246" y="163"/>
      <point x="250" y="167" type="curve" smooth="yes"/>
      <point x="284" y="203"/>
      <point x="343" y="251"/>
      <point x="468" y="288" type="curve" smooth="yes"/>
      <point x="606" y="329"/>
      <point x="768" y="379"/>
      <point x="857" y="420" type="curve" smooth="yes"/>
      <point x="1029" y="499"/>
      <point x="1105" y="619"/>
      <point x="1105" y="674" type="curve" smooth="yes"/>
      <point x="1105" y="718"/>
      <point x="1080" y="742"/>
      <point x="1035" y="742" type="curve" smooth="yes"/>
      <point x="920" y="742"/>
      <point x="759" y="548"/>
      <point x="656" y="356" type="curve" smooth="yes"/>
      <point x="606" y="262"/>
      <point x="573" y="171"/>
      <point x="573" y="116" type="curve" smooth="yes"/>
      <point x="573" y="28"/>
      <point x="620" y="-9"/>
    </contour>
    <contour>
      <point x="177" y="-10" type="curve" smooth="yes"/>
      <point x="392" y="-10"/>
      <point x="496" y="159"/>
      <point x="542" y="317" type="curve" smooth="yes"/>
      <point x="604" y="529"/>
      <point x="622" y="578"/>
      <point x="699" y="666" type="curve" smooth="yes"/>
      <point x="706" y="674"/>
      <point x="711" y="680"/>
      <point x="711" y="684" type="curve" smooth="yes"/>
      <point x="711" y="688"/>
      <point x="708" y="691"/>
      <point x="704" y="691" type="curve" smooth="yes"/>
      <point x="701" y="691"/>
      <point x="696" y="689"/>
      <point x="689" y="682" type="curve" smooth="yes"/>
      <point x="591" y="593"/>
      <point x="433" y="464"/>
      <point x="400" y="464" type="curve" smooth="yes"/>
      <point x="392" y="464"/>
      <point x="390" y="469"/>
      <point x="390" y="474" type="curve" smooth="yes"/>
      <point x="390" y="479"/>
      <point x="395" y="487"/>
      <point x="404" y="499" type="curve" smooth="yes"/>
      <point x="412" y="509"/>
      <point x="436" y="540"/>
      <point x="444" y="556" type="curve" smooth="yes"/>
      <point x="452" y="572"/>
      <point x="454" y="586"/>
      <point x="454" y="600" type="curve" smooth="yes"/>
      <point x="454" y="609"/>
      <point x="454" y="648"/>
      <point x="405" y="648" type="curve" smooth="yes"/>
      <point x="343" y="648"/>
      <point x="253" y="555"/>
      <point x="194" y="478" type="curve" smooth="yes"/>
      <point x="191" y="474"/>
      <point x="188" y="470"/>
      <point x="188" y="466" type="curve" smooth="yes"/>
      <point x="188" y="462"/>
      <point x="191" y="459"/>
      <point x="196" y="459" type="curve" smooth="yes"/>
      <point x="200" y="459"/>
      <point x="203" y="461"/>
      <point x="207" y="467" type="curve" smooth="yes"/>
      <point x="279" y="562"/>
      <point x="359" y="630"/>
      <point x="397" y="630" type="curve" smooth="yes"/>
      <point x="409" y="630"/>
      <point x="410" y="626"/>
      <point x="410" y="623" type="curve" smooth="yes"/>
      <point x="410" y="617"/>
      <point x="394" y="593"/>
      <point x="377" y="568" type="curve" smooth="yes"/>
      <point x="358" y="540"/>
      <point x="338" y="508"/>
      <point x="338" y="490" type="curve" smooth="yes"/>
      <point x="338" y="463"/>
      <point x="356" y="443"/>
      <point x="384" y="443" type="curve" smooth="yes"/>
      <point x="427" y="443"/>
      <point x="529" y="522"/>
      <point x="593" y="581" type="curve"/>
      <point x="507" y="476"/>
      <point x="464" y="385"/>
      <point x="420" y="290" type="curve" smooth="yes"/>
      <point x="397" y="240"/>
      <point x="379" y="205"/>
      <point x="363" y="174" type="curve" smooth="yes"/>
      <point x="311" y="74"/>
      <point x="252" y="8"/>
      <point x="167" y="8" type="curve" smooth="yes"/>
      <point x="67" y="8"/>
      <point x="59" y="69"/>
      <point x="59" y="87" type="curve" smooth="yes"/>
      <point x="59" y="107"/>
      <point x="69" y="116"/>
      <point x="98" y="121" type="curve" smooth="yes"/>
      <point x="142" y="129"/>
      <point x="168" y="143"/>
      <point x="168" y="180" type="curve" smooth="yes"/>
      <point x="168" y="200"/>
      <point x="153" y="228"/>
      <point x="105" y="228" type="curve" smooth="yes"/>
      <point x="60" y="228"/>
      <point x="20" y="189"/>
      <point x="20" y="125" type="curve" smooth="yes"/>
      <point x="20" y="89"/>
      <point x="36" y="-10"/>
    </contour>
  </outline>
</glyph>
<glyph name="H-fraktur" format="2">
  <advance width="702"/>
  <unicode hex="210C"/>
  <anchor x="348" y="274" name="center"/>
  <anchor x="379" y="0" name="math.ta"/>
  <outline>
    <contour>
      <point x="258" y="-178" type="curve" smooth="yes"/>
      <point x="308" y="-178"/>
      <point x="349" y="-150"/>
      <point x="366" y="-105" type="curve"/>
      <point x="343" y="-97" type="line"/>
      <point x="328" y="-136"/>
      <point x="295" y="-155"/>
      <point x="258" y="-155" type="curve" smooth="yes"/>
      <point x="209" y="-155"/>
      <point x="172" y="-121"/>
      <point x="172" y="-67" type="curve" smooth="yes"/>
      <point x="172" y="-22"/>
      <point x="199" y="15"/>
      <point x="247" y="15" type="curve" smooth="yes"/>
      <point x="276" y="15"/>
      <point x="296" y="2"/>
      <point x="296" y="-20" type="curve" smooth="yes"/>
      <point x="296" y="-25"/>
      <point x="295" y="-30"/>
      <point x="293" y="-36" type="curve"/>
      <point x="316" y="-41" type="line"/>
      <point x="325" y="-34"/>
      <point x="337" y="-30"/>
      <point x="393" y="-19" type="curve" smooth="yes"/>
      <point x="460" y="-6" type="line" smooth="yes"/>
      <point x="586" y="18"/>
      <point x="667" y="154"/>
      <point x="667" y="289" type="curve" smooth="yes"/>
      <point x="667" y="398"/>
      <point x="615" y="490"/>
      <point x="518" y="541" type="curve" smooth="yes"/>
      <point x="499" y="551" type="line" smooth="yes"/>
      <point x="486" y="558"/>
      <point x="481" y="563"/>
      <point x="480" y="571" type="curve"/>
      <point x="456" y="571" type="line"/>
      <point x="453" y="557"/>
      <point x="427" y="537"/>
      <point x="386" y="518" type="curve" smooth="yes"/>
      <point x="345" y="499"/>
      <point x="283" y="467"/>
      <point x="241" y="422" type="curve"/>
      <point x="259" y="406" type="line"/>
      <point x="313" y="460"/>
      <point x="370" y="480"/>
      <point x="411" y="480" type="curve" smooth="yes"/>
      <point x="496" y="480"/>
      <point x="588" y="390"/>
      <point x="588" y="243" type="curve" smooth="yes"/>
      <point x="588" y="114"/>
      <point x="515" y="23"/>
      <point x="410" y="9" type="curve"/>
      <point x="379" y="29" type="line" smooth="yes"/>
      <point x="356" y="44"/>
      <point x="343" y="53"/>
      <point x="342" y="65" type="curve" smooth="yes"/>
      <point x="342" y="70"/>
      <point x="343" y="74"/>
      <point x="346" y="79" type="curve"/>
      <point x="323" y="88" type="line"/>
      <point x="314" y="73"/>
      <point x="280" y="58"/>
      <point x="255" y="52" type="curve" smooth="yes"/>
      <point x="196" y="37"/>
      <point x="147" y="0"/>
      <point x="147" y="-67" type="curve" smooth="yes"/>
      <point x="147" y="-132"/>
      <point x="193" y="-178"/>
    </contour>
    <contour>
      <point x="182" y="127" type="curve" smooth="yes"/>
      <point x="240" y="127"/>
      <point x="346" y="197"/>
      <point x="346" y="267" type="curve" smooth="yes"/>
      <point x="346" y="280"/>
      <point x="343" y="314"/>
      <point x="310" y="387" type="curve" smooth="yes"/>
      <point x="258" y="497" type="line" smooth="yes"/>
      <point x="236" y="545"/>
      <point x="230" y="563"/>
      <point x="230" y="579" type="curve" smooth="yes"/>
      <point x="230" y="592"/>
      <point x="236" y="607"/>
      <point x="251" y="628" type="curve" smooth="yes"/>
      <point x="266" y="649"/>
      <point x="275" y="653"/>
      <point x="283" y="653" type="curve" smooth="yes"/>
      <point x="291" y="653"/>
      <point x="303" y="648"/>
      <point x="329" y="635" type="curve" smooth="yes"/>
      <point x="355" y="622"/>
      <point x="375" y="612"/>
      <point x="384" y="612" type="curve" smooth="yes"/>
      <point x="395" y="612"/>
      <point x="401" y="614"/>
      <point x="416" y="629" type="curve" smooth="yes"/>
      <point x="436" y="649"/>
      <point x="456" y="673"/>
      <point x="479" y="703" type="curve"/>
      <point x="464" y="717" type="line"/>
      <point x="446" y="696"/>
      <point x="435" y="688"/>
      <point x="419" y="688" type="curve" smooth="yes"/>
      <point x="404" y="688"/>
      <point x="396" y="691"/>
      <point x="370" y="704" type="curve" smooth="yes"/>
      <point x="344" y="717"/>
      <point x="324" y="726"/>
      <point x="317" y="726" type="curve" smooth="yes"/>
      <point x="310" y="726"/>
      <point x="296" y="719"/>
      <point x="277" y="698" type="curve" smooth="yes"/>
      <point x="256" y="674"/>
      <point x="208" y="611"/>
      <point x="184" y="579" type="curve" smooth="yes"/>
      <point x="166" y="555"/>
      <point x="158" y="541"/>
      <point x="158" y="531" type="curve" smooth="yes"/>
      <point x="158" y="519"/>
      <point x="177" y="477"/>
      <point x="224" y="375" type="curve" smooth="yes"/>
      <point x="262" y="292"/>
      <point x="274" y="243"/>
      <point x="274" y="221" type="curve" smooth="yes"/>
      <point x="274" y="193"/>
      <point x="251" y="164"/>
      <point x="220" y="164" type="curve" smooth="yes"/>
      <point x="180" y="164"/>
      <point x="122" y="207"/>
      <point x="106" y="258" type="curve"/>
      <point x="30" y="187" type="line"/>
      <point x="44" y="171" type="line"/>
      <point x="51" y="175"/>
      <point x="54" y="176"/>
      <point x="61" y="176" type="curve" smooth="yes"/>
      <point x="68" y="176"/>
      <point x="74" y="174"/>
      <point x="82" y="168" type="curve" smooth="yes"/>
      <point x="115" y="143"/>
      <point x="152" y="127"/>
    </contour>
  </outline>
</glyph>
<glyph name="Iscript" format="2">
  <advance width="770"/>
  <unicode hex="2110"/>
  <anchor x="407" y="357" name="center"/>
  <anchor x="810" y="0" name="math.ic"/>
  <anchor x="647" y="0" name="math.ta"/>
  <outline>
    <contour>
      <point x="181" y="-10" type="curve" smooth="yes"/>
      <point x="378" y="-10"/>
      <point x="486" y="151"/>
      <point x="535" y="318" type="curve" smooth="yes"/>
      <point x="566" y="424"/>
      <point x="595" y="518"/>
      <point x="624" y="567" type="curve" smooth="yes"/>
      <point x="668" y="642"/>
      <point x="720" y="701"/>
      <point x="777" y="707" type="curve" smooth="yes"/>
      <point x="786" y="708"/>
      <point x="790" y="711"/>
      <point x="790" y="717" type="curve" smooth="yes"/>
      <point x="790" y="721"/>
      <point x="785" y="725"/>
      <point x="775" y="725" type="curve" smooth="yes"/>
      <point x="705" y="723"/>
      <point x="622" y="709"/>
      <point x="542" y="679" type="curve" smooth="yes"/>
      <point x="319" y="596"/>
      <point x="238" y="485"/>
      <point x="238" y="374" type="curve" smooth="yes"/>
      <point x="238" y="257"/>
      <point x="322" y="210"/>
      <point x="431" y="210" type="curve" smooth="yes"/>
      <point x="560" y="210"/>
      <point x="676" y="275"/>
      <point x="676" y="416" type="curve" smooth="yes"/>
      <point x="676" y="428"/>
      <point x="674" y="442"/>
      <point x="672" y="450" type="curve" smooth="yes"/>
      <point x="670" y="457"/>
      <point x="667" y="462"/>
      <point x="662" y="462" type="curve" smooth="yes"/>
      <point x="657" y="462"/>
      <point x="654" y="458"/>
      <point x="654" y="449" type="curve" smooth="yes"/>
      <point x="654" y="442"/>
      <point x="658" y="428"/>
      <point x="658" y="413" type="curve" smooth="yes"/>
      <point x="658" y="283"/>
      <point x="544" y="228"/>
      <point x="430" y="228" type="curve" smooth="yes"/>
      <point x="355" y="228"/>
      <point x="294" y="252"/>
      <point x="294" y="326" type="curve" smooth="yes"/>
      <point x="294" y="454"/>
      <point x="444" y="621"/>
      <point x="606" y="676" type="curve" smooth="yes"/>
      <point x="636" y="686"/>
      <point x="678" y="697"/>
      <point x="717" y="703" type="curve"/>
      <point x="650" y="665"/>
      <point x="605" y="609"/>
      <point x="562" y="552" type="curve" smooth="yes"/>
      <point x="505" y="477"/>
      <point x="462" y="394"/>
      <point x="424" y="312" type="curve" smooth="yes"/>
      <point x="344" y="140"/>
      <point x="280" y="8"/>
      <point x="169" y="8" type="curve" smooth="yes"/>
      <point x="88" y="8"/>
      <point x="64" y="55"/>
      <point x="64" y="79" type="curve" smooth="yes"/>
      <point x="64" y="99"/>
      <point x="79" y="108"/>
      <point x="117" y="114" type="curve" smooth="yes"/>
      <point x="148" y="119"/>
      <point x="173" y="137"/>
      <point x="173" y="167" type="curve" smooth="yes"/>
      <point x="173" y="191"/>
      <point x="158" y="218"/>
      <point x="110" y="218" type="curve" smooth="yes"/>
      <point x="63" y="218"/>
      <point x="25" y="178"/>
      <point x="25" y="115" type="curve" smooth="yes"/>
      <point x="25" y="71"/>
      <point x="55" y="-10"/>
    </contour>
  </outline>
</glyph>
<glyph name="I-fraktur" format="2">
  <advance width="580"/>
  <unicode hex="2111"/>
  <anchor x="290" y="355" name="center"/>
  <anchor x="281" y="0" name="math.ta"/>
  <outline>
    <contour>
      <point x="219" y="-21" type="line"/>
      <point x="230" y="-10"/>
      <point x="244" y="-5"/>
      <point x="261" y="-5" type="curve" smooth="yes"/>
      <point x="348" y="-5"/>
      <point x="395" y="-3"/>
      <point x="437" y="20" type="curve" smooth="yes"/>
      <point x="479" y="43"/>
      <point x="540" y="118"/>
      <point x="540" y="165" type="curve" smooth="yes"/>
      <point x="540" y="187"/>
      <point x="531" y="212"/>
      <point x="480" y="310" type="curve" smooth="yes"/>
      <point x="429" y="408"/>
      <point x="420" y="438"/>
      <point x="420" y="462" type="curve" smooth="yes"/>
      <point x="420" y="507"/>
      <point x="456" y="529"/>
      <point x="481" y="529" type="curve" smooth="yes"/>
      <point x="488" y="529"/>
      <point x="494" y="522"/>
      <point x="498" y="512" type="curve" smooth="yes"/>
      <point x="502" y="502"/>
      <point x="512" y="496"/>
      <point x="523" y="496" type="curve" smooth="yes"/>
      <point x="535" y="496"/>
      <point x="545" y="506"/>
      <point x="545" y="521" type="curve" smooth="yes"/>
      <point x="545" y="545"/>
      <point x="523" y="558"/>
      <point x="497" y="558" type="curve" smooth="yes"/>
      <point x="479" y="558"/>
      <point x="459" y="551"/>
      <point x="439" y="539" type="curve" smooth="yes"/>
      <point x="390" y="510"/>
      <point x="345" y="454"/>
      <point x="345" y="413" type="curve" smooth="yes"/>
      <point x="345" y="390"/>
      <point x="361" y="343"/>
      <point x="409" y="254" type="curve" smooth="yes"/>
      <point x="457" y="165"/>
      <point x="466" y="142"/>
      <point x="466" y="118" type="curve" smooth="yes"/>
      <point x="466" y="67"/>
      <point x="423" y="27"/>
      <point x="355" y="27" type="curve" smooth="yes"/>
      <point x="290" y="27"/>
      <point x="253" y="64"/>
      <point x="253" y="108" type="curve" smooth="yes"/>
      <point x="253" y="111"/>
      <point x="253" y="114"/>
      <point x="254" y="117" type="curve"/>
      <point x="237" y="126" type="line"/>
      <point x="228" y="120"/>
      <point x="219" y="117"/>
      <point x="210" y="117" type="curve" smooth="yes"/>
      <point x="201" y="117"/>
      <point x="190" y="118"/>
      <point x="178" y="121" type="curve" smooth="yes"/>
      <point x="166" y="124"/>
      <point x="153" y="126"/>
      <point x="138" y="126" type="curve" smooth="yes"/>
      <point x="89" y="126"/>
      <point x="46" y="104"/>
      <point x="30" y="42" type="curve"/>
      <point x="51" y="36" type="line"/>
      <point x="65" y="77"/>
      <point x="93" y="93"/>
      <point x="120" y="93" type="curve" smooth="yes"/>
      <point x="160" y="93"/>
      <point x="199" y="56"/>
      <point x="199" y="-12" type="curve"/>
    </contour>
    <contour>
      <point x="181" y="408" type="curve"/>
      <point x="187" y="431" type="line"/>
      <point x="111" y="441"/>
      <point x="66" y="491"/>
      <point x="66" y="551" type="curve" smooth="yes"/>
      <point x="66" y="609"/>
      <point x="118" y="655"/>
      <point x="180" y="655" type="curve" smooth="yes"/>
      <point x="213" y="655"/>
      <point x="244" y="643"/>
      <point x="276" y="624" type="curve" smooth="yes"/>
      <point x="332" y="591" type="line" smooth="yes"/>
      <point x="359" y="575"/>
      <point x="380" y="563"/>
      <point x="396" y="563" type="curve" smooth="yes"/>
      <point x="426" y="563"/>
      <point x="550" y="622"/>
      <point x="550" y="668" type="curve" smooth="yes"/>
      <point x="550" y="686"/>
      <point x="539" y="699"/>
      <point x="521" y="699" type="curve" smooth="yes"/>
      <point x="506" y="699"/>
      <point x="493" y="689"/>
      <point x="493" y="672" type="curve" smooth="yes"/>
      <point x="493" y="661"/>
      <point x="502" y="650"/>
      <point x="513" y="650" type="curve"/>
      <point x="513" y="643"/>
      <point x="483" y="621"/>
      <point x="464" y="621" type="curve" smooth="yes"/>
      <point x="449" y="621"/>
      <point x="423" y="634"/>
      <point x="383" y="657" type="curve" smooth="yes"/>
      <point x="299" y="705" type="line" smooth="yes"/>
      <point x="280" y="716"/>
      <point x="270" y="723"/>
      <point x="270" y="731" type="curve"/>
      <point x="248" y="731" type="line"/>
      <point x="248" y="721"/>
      <point x="242" y="718"/>
      <point x="230" y="716" type="curve" smooth="yes"/>
      <point x="145" y="702"/>
      <point x="43" y="655"/>
      <point x="43" y="551" type="curve" smooth="yes"/>
      <point x="43" y="479"/>
      <point x="93" y="423"/>
    </contour>
  </outline>
</glyph>
<glyph name="literSign" format="2">
  <advance width="515"/>
  <unicode hex="2113"/>
  <anchor x="245" y="377" name="center"/>
  <outline>
    <contour>
      <point x="298" y="-11" type="curve" smooth="yes"/>
      <point x="354" y="-11"/>
      <point x="397" y="10"/>
      <point x="425" y="37" type="curve"/>
      <point x="391" y="88" type="line"/>
      <point x="369" y="69"/>
      <point x="344" y="54"/>
      <point x="314" y="54" type="curve" smooth="yes"/>
      <point x="212" y="54"/>
      <point x="195" y="210"/>
      <point x="195" y="378" type="curve" smooth="yes"/>
      <point x="195" y="527"/>
      <point x="215" y="700"/>
      <point x="297" y="700" type="curve" smooth="yes"/>
      <point x="342" y="700"/>
      <point x="365" y="646"/>
      <point x="365" y="562" type="curve" smooth="yes"/>
      <point x="365" y="401"/>
      <point x="297" y="276"/>
      <point x="46" y="140" type="curve"/>
      <point x="77" y="85" type="line"/>
      <point x="343" y="235"/>
      <point x="445" y="379"/>
      <point x="445" y="562" type="curve" smooth="yes"/>
      <point x="445" y="677"/>
      <point x="401" y="765"/>
      <point x="306" y="765" type="curve" smooth="yes"/>
      <point x="146" y="765"/>
      <point x="106" y="576"/>
      <point x="106" y="378" type="curve" smooth="yes"/>
      <point x="106" y="147"/>
      <point x="149" y="-11"/>
    </contour>
  </outline>
</glyph>
<glyph name="Z-fraktur" format="2">
  <advance width="532"/>
  <unicode hex="2128"/>
  <anchor x="266" y="262" name="center"/>
  <anchor x="297" y="0" name="math.ta"/>
  <outline>
    <contour>
      <point x="72" y="-201" type="curve"/>
      <point x="87" y="-182" type="line"/>
      <point x="76" y="-174"/>
      <point x="60" y="-153"/>
      <point x="60" y="-128" type="curve" smooth="yes"/>
      <point x="60" y="-97"/>
      <point x="85" y="-77"/>
      <point x="113" y="-77" type="curve" smooth="yes"/>
      <point x="150" y="-77"/>
      <point x="179" y="-112"/>
      <point x="203" y="-154" type="curve"/>
      <point x="227" y="-154" type="line"/>
      <point x="227" y="-142"/>
      <point x="247" y="-136"/>
      <point x="287" y="-126" type="curve" smooth="yes"/>
      <point x="310" y="-120" type="line" smooth="yes"/>
      <point x="424" y="-90"/>
      <point x="497" y="-11"/>
      <point x="497" y="107" type="curve" smooth="yes"/>
      <point x="497" y="237"/>
      <point x="410" y="333"/>
      <point x="267" y="333" type="curve" smooth="yes"/>
      <point x="140" y="333"/>
      <point x="76" y="292"/>
      <point x="63" y="232" type="curve"/>
      <point x="91" y="213" type="line"/>
      <point x="113" y="226" type="line"/>
      <point x="108" y="233"/>
      <point x="106" y="240"/>
      <point x="106" y="246" type="curve" smooth="yes"/>
      <point x="106" y="270"/>
      <point x="131" y="290"/>
      <point x="185" y="290" type="curve" smooth="yes"/>
      <point x="307" y="290"/>
      <point x="427" y="177"/>
      <point x="427" y="58" type="curve" smooth="yes"/>
      <point x="427" y="-31"/>
      <point x="360" y="-98"/>
      <point x="301" y="-98" type="curve" smooth="yes"/>
      <point x="276" y="-98"/>
      <point x="256" y="-86"/>
      <point x="239" y="-68" type="curve" smooth="yes"/>
      <point x="222" y="-50"/>
      <point x="200" y="-19"/>
      <point x="200" y="-4" type="curve"/>
      <point x="177" y="-4" type="line"/>
      <point x="177" y="-14"/>
      <point x="164" y="-21"/>
      <point x="142" y="-29" type="curve" smooth="yes"/>
      <point x="79" y="-52"/>
      <point x="35" y="-77"/>
      <point x="35" y="-128" type="curve" smooth="yes"/>
      <point x="35" y="-158"/>
      <point x="50" y="-184"/>
    </contour>
    <contour>
      <point x="235" y="316" type="curve" smooth="yes"/>
      <point x="379" y="316"/>
      <point x="480" y="407"/>
      <point x="480" y="531" type="curve" smooth="yes"/>
      <point x="480" y="650"/>
      <point x="387" y="726"/>
      <point x="265" y="726" type="curve" smooth="yes"/>
      <point x="160" y="726"/>
      <point x="48" y="670"/>
      <point x="38" y="539" type="curve"/>
      <point x="61" y="539" type="line"/>
      <point x="71" y="617"/>
      <point x="129" y="678"/>
      <point x="222" y="678" type="curve" smooth="yes"/>
      <point x="317" y="678"/>
      <point x="391" y="615"/>
      <point x="391" y="510" type="curve" smooth="yes"/>
      <point x="391" y="405"/>
      <point x="317" y="344"/>
      <point x="231" y="344" type="curve" smooth="yes"/>
      <point x="188" y="344"/>
      <point x="144" y="357"/>
      <point x="108" y="394" type="curve"/>
      <point x="87" y="375" type="line"/>
      <point x="109" y="348"/>
      <point x="152" y="316"/>
    </contour>
  </outline>
</glyph>
<glyph name="C-fraktur" format="2">
  <advance width="637"/>
  <unicode hex="212D"/>
  <anchor x="321" y="351" name="center"/>
  <anchor x="313" y="0" name="math.ta"/>
  <outline>
    <contour>
      <point x="383" y="-24" type="curve" smooth="yes"/>
      <point x="414" y="-24"/>
      <point x="440" y="-22"/>
      <point x="459" y="-19" type="curve"/>
      <point x="607" y="103" type="line"/>
      <point x="594" y="120" type="line"/>
      <point x="537" y="84"/>
      <point x="472" y="67"/>
      <point x="401" y="67" type="curve" smooth="yes"/>
      <point x="215" y="67"/>
      <point x="107" y="200"/>
      <point x="107" y="436" type="curve" smooth="yes"/>
      <point x="107" y="609"/>
      <point x="166" y="703"/>
      <point x="245" y="703" type="curve" smooth="yes"/>
      <point x="289" y="703"/>
      <point x="325" y="674"/>
      <point x="335" y="622" type="curve"/>
      <point x="351" y="642" type="line"/>
      <point x="344" y="692"/>
      <point x="295" y="726"/>
      <point x="243" y="726" type="curve" smooth="yes"/>
      <point x="115" y="726"/>
      <point x="35" y="595"/>
      <point x="35" y="392" type="curve" smooth="yes"/>
      <point x="35" y="135"/>
      <point x="170" y="-24"/>
    </contour>
    <contour>
      <point x="272" y="29" type="line"/>
      <point x="335" y="94"/>
      <point x="375" y="136"/>
      <point x="400" y="165" type="curve" smooth="yes"/>
      <point x="437" y="209"/>
      <point x="441" y="224"/>
      <point x="441" y="239" type="curve" smooth="yes"/>
      <point x="441" y="259"/>
      <point x="433" y="282"/>
      <point x="373" y="389" type="curve" smooth="yes"/>
      <point x="306" y="508"/>
      <point x="299" y="524"/>
      <point x="299" y="541" type="curve" smooth="yes"/>
      <point x="299" y="554"/>
      <point x="315" y="579"/>
      <point x="343" y="611" type="curve" smooth="yes"/>
      <point x="365" y="636"/>
      <point x="382" y="649"/>
      <point x="396" y="649" type="curve" smooth="yes"/>
      <point x="408" y="649"/>
      <point x="421" y="644"/>
      <point x="452" y="628" type="curve" smooth="yes"/>
      <point x="488" y="609"/>
      <point x="519" y="593"/>
      <point x="528" y="593" type="curve" smooth="yes"/>
      <point x="535" y="593"/>
      <point x="540" y="596"/>
      <point x="553" y="612" type="curve" smooth="yes"/>
      <point x="604" y="678" type="line"/>
      <point x="588" y="690" type="line"/>
      <point x="576" y="678"/>
      <point x="565" y="672"/>
      <point x="555" y="672" type="curve" smooth="yes"/>
      <point x="544" y="672"/>
      <point x="523" y="681"/>
      <point x="493" y="696" type="curve" smooth="yes"/>
      <point x="453" y="716"/>
      <point x="432" y="726"/>
      <point x="421" y="726" type="curve" smooth="yes"/>
      <point x="412" y="726"/>
      <point x="405" y="719"/>
      <point x="386" y="698" type="curve" smooth="yes"/>
      <point x="357" y="667"/>
      <point x="277" y="571"/>
      <point x="253" y="541" type="curve" smooth="yes"/>
      <point x="235" y="518"/>
      <point x="227" y="505"/>
      <point x="227" y="495" type="curve" smooth="yes"/>
      <point x="227" y="486"/>
      <point x="229" y="477"/>
      <point x="250" y="440" type="curve" smooth="yes"/>
      <point x="330" y="298" type="line" smooth="yes"/>
      <point x="357" y="251"/>
      <point x="362" y="230"/>
      <point x="362" y="210" type="curve" smooth="yes"/>
      <point x="362" y="189"/>
      <point x="351" y="150"/>
      <point x="250" y="47" type="curve"/>
    </contour>
  </outline>
</glyph>
<glyph name="escript" format="2">
  <advance width="388"/>
  <unicode hex="212F"/>
  <anchor x="203" y="150" name="center"/>
  <anchor x="317" y="0" name="math.ta"/>
  <outline>
    <contour>
      <point x="158" y="-7" type="curve" smooth="yes"/>
      <point x="211" y="-7"/>
      <point x="286" y="29"/>
      <point x="344" y="93" type="curve"/>
      <point x="333" y="105" type="line"/>
      <point x="274" y="44"/>
      <point x="214" y="9"/>
      <point x="156" y="9" type="curve" smooth="yes"/>
      <point x="132" y="9"/>
      <point x="124" y="20"/>
      <point x="124" y="34" type="curve" smooth="yes"/>
      <point x="124" y="86"/>
      <point x="237" y="286"/>
      <point x="279" y="286" type="curve" smooth="yes"/>
      <point x="295" y="286"/>
      <point x="306" y="273"/>
      <point x="306" y="246" type="curve" smooth="yes"/>
      <point x="306" y="189"/>
      <point x="228" y="127"/>
      <point x="149" y="122" type="curve"/>
      <point x="140" y="103" type="line"/>
      <point x="266" y="125"/>
      <point x="364" y="179"/>
      <point x="364" y="241" type="curve" smooth="yes"/>
      <point x="364" y="283"/>
      <point x="328" y="308"/>
      <point x="279" y="308" type="curve" smooth="yes"/>
      <point x="171" y="308"/>
      <point x="42" y="191"/>
      <point x="42" y="99" type="curve" smooth="yes"/>
      <point x="42" y="27"/>
      <point x="82" y="-7"/>
    </contour>
  </outline>
</glyph>
<glyph name="Escript" format="2">
  <advance width="640"/>
  <unicode hex="2130"/>
  <anchor x="327" y="358" name="center"/>
  <anchor x="500" y="0" name="math.ta"/>
  <outline>
    <contour>
      <point x="243" y="-10" type="curve" smooth="yes"/>
      <point x="371" y="-10"/>
      <point x="486" y="93"/>
      <point x="486" y="203" type="curve" smooth="yes"/>
      <point x="486" y="267"/>
      <point x="448" y="299"/>
      <point x="395" y="299" type="curve" smooth="yes"/>
      <point x="324" y="299"/>
      <point x="260" y="225"/>
      <point x="260" y="129" type="curve" smooth="yes"/>
      <point x="260" y="106"/>
      <point x="263" y="86"/>
      <point x="273" y="86" type="curve" smooth="yes"/>
      <point x="280" y="86"/>
      <point x="282" y="96"/>
      <point x="287" y="129" type="curve" smooth="yes"/>
      <point x="300" y="218"/>
      <point x="348" y="277"/>
      <point x="401" y="277" type="curve" smooth="yes"/>
      <point x="443" y="277"/>
      <point x="466" y="248"/>
      <point x="466" y="205" type="curve" smooth="yes"/>
      <point x="466" y="104"/>
      <point x="363" y="10"/>
      <point x="250" y="10" type="curve" smooth="yes"/>
      <point x="171" y="10"/>
      <point x="126" y="56"/>
      <point x="126" y="132" type="curve" smooth="yes"/>
      <point x="126" y="275"/>
      <point x="239" y="425"/>
      <point x="348" y="425" type="curve" smooth="yes"/>
      <point x="402" y="425"/>
      <point x="437" y="413"/>
      <point x="437" y="402" type="curve" smooth="yes"/>
      <point x="437" y="393"/>
      <point x="425" y="390"/>
      <point x="413" y="390" type="curve" smooth="yes"/>
      <point x="373" y="390"/>
      <point x="328" y="422"/>
      <point x="328" y="482" type="curve" smooth="yes"/>
      <point x="328" y="604"/>
      <point x="413" y="698"/>
      <point x="493" y="698" type="curve" smooth="yes"/>
      <point x="555" y="698"/>
      <point x="600" y="648"/>
      <point x="600" y="588" type="curve" smooth="yes"/>
      <point x="600" y="523"/>
      <point x="551" y="478"/>
      <point x="512" y="478" type="curve" smooth="yes"/>
      <point x="487" y="478"/>
      <point x="466" y="496"/>
      <point x="466" y="526" type="curve" smooth="yes"/>
      <point x="466" y="567"/>
      <point x="490" y="599"/>
      <point x="515" y="619" type="curve" smooth="yes"/>
      <point x="520" y="623"/>
      <point x="522" y="625"/>
      <point x="522" y="627" type="curve" smooth="yes"/>
      <point x="522" y="629"/>
      <point x="519" y="630"/>
      <point x="515" y="630" type="curve" smooth="yes"/>
      <point x="493" y="630"/>
      <point x="435" y="583"/>
      <point x="435" y="528" type="curve" smooth="yes"/>
      <point x="435" y="484"/>
      <point x="467" y="460"/>
      <point x="506" y="460" type="curve" smooth="yes"/>
      <point x="561" y="460"/>
      <point x="620" y="510"/>
      <point x="620" y="590" type="curve" smooth="yes"/>
      <point x="620" y="660"/>
      <point x="570" y="726"/>
      <point x="459" y="726" type="curve" smooth="yes"/>
      <point x="324" y="726"/>
      <point x="241" y="634"/>
      <point x="241" y="537" type="curve" smooth="yes"/>
      <point x="241" y="447"/>
      <point x="334" y="374"/>
      <point x="411" y="374" type="curve" smooth="yes"/>
      <point x="441" y="374"/>
      <point x="456" y="384"/>
      <point x="456" y="401" type="curve" smooth="yes"/>
      <point x="456" y="424"/>
      <point x="411" y="443"/>
      <point x="318" y="443" type="curve" smooth="yes"/>
      <point x="236" y="443"/>
      <point x="35" y="379"/>
      <point x="35" y="186" type="curve" smooth="yes"/>
      <point x="35" y="78"/>
      <point x="112" y="-10"/>
    </contour>
  </outline>
</glyph>
<glyph name="Mscript" format="2">
  <advance width="1135"/>
  <unicode hex="2133"/>
  <anchor x="567" y="356" name="center"/>
  <anchor x="954" y="0" name="math.ta"/>
  <outline>
    <contour>
      <point x="135" y="-10" type="curve" smooth="yes"/>
      <point x="224" y="-10"/>
      <point x="316" y="124"/>
      <point x="385" y="225" type="curve" smooth="yes"/>
      <point x="468" y="347"/>
      <point x="671" y="618"/>
      <point x="777" y="697" type="curve"/>
      <point x="761" y="676"/>
      <point x="669" y="549"/>
      <point x="621" y="474" type="curve" smooth="yes"/>
      <point x="481" y="257"/>
      <point x="456" y="147"/>
      <point x="456" y="99" type="curve" smooth="yes"/>
      <point x="456" y="60"/>
      <point x="460" y="-10"/>
      <point x="504" y="-10" type="curve" smooth="yes"/>
      <point x="531" y="-10"/>
      <point x="568" y="33"/>
      <point x="605" y="95" type="curve" smooth="yes"/>
      <point x="651" y="173"/>
      <point x="722" y="292"/>
      <point x="790" y="388" type="curve" smooth="yes"/>
      <point x="932" y="588"/>
      <point x="1051" y="672"/>
      <point x="1086" y="696" type="curve"/>
      <point x="1031" y="639"/>
      <point x="965" y="568"/>
      <point x="880" y="452" type="curve" smooth="yes"/>
      <point x="840" y="398"/>
      <point x="722" y="213"/>
      <point x="722" y="117" type="curve" smooth="yes"/>
      <point x="722" y="21"/>
      <point x="750" y="-10"/>
      <point x="796" y="-10" type="curve" smooth="yes"/>
      <point x="845" y="-10"/>
      <point x="918" y="71"/>
      <point x="970" y="138" type="curve" smooth="yes"/>
      <point x="974" y="143"/>
      <point x="977" y="149"/>
      <point x="977" y="152" type="curve" smooth="yes"/>
      <point x="977" y="155"/>
      <point x="975" y="158"/>
      <point x="970" y="158" type="curve" smooth="yes"/>
      <point x="966" y="158"/>
      <point x="962" y="154"/>
      <point x="957" y="148" type="curve" smooth="yes"/>
      <point x="904" y="82"/>
      <point x="833" y="8"/>
      <point x="800" y="8" type="curve" smooth="yes"/>
      <point x="795" y="8"/>
      <point x="792" y="13"/>
      <point x="792" y="22" type="curve" smooth="yes"/>
      <point x="792" y="77"/>
      <point x="885" y="284"/>
      <point x="925" y="366" type="curve" smooth="yes"/>
      <point x="971" y="461"/>
      <point x="1058" y="621"/>
      <point x="1105" y="693" type="curve" smooth="yes"/>
      <point x="1108" y="698"/>
      <point x="1110" y="702"/>
      <point x="1110" y="707" type="curve" smooth="yes"/>
      <point x="1110" y="714"/>
      <point x="1104" y="719"/>
      <point x="1096" y="719" type="curve" smooth="yes"/>
      <point x="1092" y="719"/>
      <point x="1087" y="717"/>
      <point x="1073" y="708" type="curve" smooth="yes"/>
      <point x="968" y="640"/>
      <point x="855" y="509"/>
      <point x="768" y="388" type="curve" smooth="yes"/>
      <point x="715" y="314"/>
      <point x="641" y="193"/>
      <point x="603" y="129" type="curve" smooth="yes"/>
      <point x="579" y="89"/>
      <point x="555" y="55"/>
      <point x="534" y="36" type="curve"/>
      <point x="549" y="131"/>
      <point x="615" y="291"/>
      <point x="651" y="373" type="curve" smooth="yes"/>
      <point x="682" y="444"/>
      <point x="766" y="634"/>
      <point x="796" y="701" type="curve" smooth="yes"/>
      <point x="798" y="705"/>
      <point x="799" y="709"/>
      <point x="799" y="712" type="curve" smooth="yes"/>
      <point x="799" y="718"/>
      <point x="793" y="722"/>
      <point x="787" y="722" type="curve" smooth="yes"/>
      <point x="784" y="722"/>
      <point x="780" y="721"/>
      <point x="775" y="717" type="curve" smooth="yes"/>
      <point x="672" y="638"/>
      <point x="497" y="423"/>
      <point x="370" y="237" type="curve" smooth="yes"/>
      <point x="309" y="147"/>
      <point x="209" y="8"/>
      <point x="136" y="8" type="curve" smooth="yes"/>
      <point x="83" y="8"/>
      <point x="64" y="56"/>
      <point x="64" y="78" type="curve" smooth="yes"/>
      <point x="64" y="90"/>
      <point x="68" y="97"/>
      <point x="85" y="99" type="curve" smooth="yes"/>
      <point x="146" y="107"/>
      <point x="172" y="137"/>
      <point x="172" y="168" type="curve" smooth="yes"/>
      <point x="172" y="194"/>
      <point x="160" y="223"/>
      <point x="116" y="223" type="curve" smooth="yes"/>
      <point x="63" y="223"/>
      <point x="25" y="178"/>
      <point x="25" y="122" type="curve" smooth="yes"/>
      <point x="25" y="34"/>
      <point x="73" y="-10"/>
    </contour>
  </outline>
</glyph>
<glyph name="daletsymbol" format="2">
  <advance width="458"/>
  <unicode hex="2138"/>
  <anchor x="219" y="290" name="center"/>
  <outline>
    <contour>
      <point x="290" y="0" type="line"/>
      <point x="359" y="0" type="line"/>
      <point x="359" y="520" type="line"/>
      <point x="436" y="520" type="line"/>
      <point x="436" y="581" type="line"/>
      <point x="2" y="581" type="line"/>
      <point x="2" y="520" type="line"/>
      <point x="290" y="520" type="line"/>
    </contour>
  </outline>
</glyph>
<glyph name="GammadoubleStruck" format="2">
  <advance width="552"/>
  <unicode hex="213E"/>
  <anchor x="317" y="357" name="center"/>
  <anchor x="325" y="0" name="math.ta"/>
  <outline>
    <contour>
      <point x="97" y="0" type="line"/>
      <point x="270" y="0" type="line"/>
      <point x="270" y="661" type="line"/>
      <point x="537" y="661" type="line"/>
      <point x="537" y="714" type="line"/>
      <point x="97" y="714" type="line"/>
    </contour>
    <contour>
      <point x="150" y="53" type="line"/>
      <point x="150" y="661" type="line"/>
      <point x="217" y="661" type="line"/>
      <point x="217" y="53" type="line"/>
    </contour>
  </outline>
</glyph>
<glyph name="summationdoublestruck" format="2">
  <advance width="785"/>
  <unicode hex="2140"/>
  <anchor x="393" y="237" name="center"/>
  <outline>
    <contour>
      <point x="51" y="-240" type="line"/>
      <point x="734" y="-240" type="line"/>
      <point x="734" y="-74" type="line"/>
      <point x="203" y="-74" type="line"/>
      <point x="496" y="291" type="line"/>
      <point x="264" y="659" type="line"/>
      <point x="699" y="659" type="line"/>
      <point x="699" y="714" type="line"/>
      <point x="63" y="714" type="line"/>
      <point x="63" y="659" type="line"/>
      <point x="353" y="201" type="line"/>
      <point x="51" y="-177" type="line"/>
    </contour>
    <contour>
      <point x="112" y="-188" type="line"/>
      <point x="162" y="-126" type="line"/>
      <point x="685" y="-126" type="line"/>
      <point x="685" y="-188" type="line"/>
    </contour>
    <contour>
      <point x="387" y="244" type="line"/>
      <point x="126" y="659" type="line"/>
      <point x="201" y="659" type="line"/>
      <point x="430" y="297" type="line"/>
    </contour>
  </outline>
</glyph>
<glyph name="leftRightArrow" format="2">
  <advance width="1130"/>
  <unicode hex="2194"/>
  <anchor x="565" y="278" name="center"/>
  <outline>
    <contour>
      <point x="802" y="84" type="curve"/>
      <point x="860" y="84" type="line"/>
      <point x="929" y="166"/>
      <point x="1003" y="226"/>
      <point x="1079" y="265" type="curve"/>
      <point x="1079" y="293" type="line"/>
      <point x="1003" y="332"/>
      <point x="929" y="392"/>
      <point x="860" y="474" type="curve"/>
      <point x="802" y="474" type="line"/>
      <point x="837" y="397"/>
      <point x="873" y="339"/>
      <point x="907" y="305" type="curve"/>
      <point x="907" y="253" type="line"/>
      <point x="873" y="219"/>
      <point x="837" y="161"/>
    </contour>
    <contour>
      <point x="270" y="84" type="curve"/>
      <point x="328" y="84" type="line"/>
      <point x="293" y="161"/>
      <point x="257" y="219"/>
      <point x="223" y="253" type="curve"/>
      <point x="223" y="305" type="line"/>
      <point x="257" y="339"/>
      <point x="293" y="397"/>
      <point x="328" y="474" type="curve"/>
      <point x="270" y="474" type="line"/>
      <point x="201" y="392"/>
      <point x="127" y="332"/>
      <point x="51" y="293" type="curve"/>
      <point x="51" y="265" type="line"/>
      <point x="127" y="226"/>
      <point x="201" y="166"/>
    </contour>
    <contour>
      <point x="184" y="244" type="line"/>
      <point x="946" y="244" type="line"/>
      <point x="946" y="315" type="line"/>
      <point x="184" y="315" type="line"/>
    </contour>
  </outline>
</glyph>
<glyph name="leftStrokeArrow" format="2">
  <advance width="1012"/>
  <unicode hex="219A"/>
  <anchor x="506" y="278" name="center"/>
  <outline>
    <contour>
      <point x="436" y="83" type="line"/>
      <point x="517" y="83" type="line"/>
      <point x="726" y="473" type="line"/>
      <point x="645" y="473" type="line"/>
    </contour>
    <component base="leftArrow"/>
  </outline>
</glyph>
<glyph name="rightStrokeArrow" format="2">
  <advance width="1012"/>
  <unicode hex="219B"/>
  <anchor x="406" y="278" name="center"/>
  <outline>
    <contour>
      <point x="265" y="83" type="line"/>
      <point x="346" y="83" type="line"/>
      <point x="555" y="473" type="line"/>
      <point x="474" y="473" type="line"/>
    </contour>
    <component base="rightArrow"/>
  </outline>
</glyph>
<glyph name="leftLoopArrow" format="2">
  <advance width="1098"/>
  <unicode hex="21AB"/>
  <anchor x="549" y="329" name="center"/>
  <outline>
    <contour>
      <point x="700" y="84" type="line"/>
      <point x="771" y="84" type="line"/>
      <point x="771" y="332" type="line" smooth="yes"/>
      <point x="771" y="458"/>
      <point x="817" y="507"/>
      <point x="886" y="507" type="curve" smooth="yes"/>
      <point x="938" y="507"/>
      <point x="976" y="480"/>
      <point x="976" y="418" type="curve" smooth="yes"/>
      <point x="976" y="351"/>
      <point x="934" y="315"/>
      <point x="817" y="315" type="curve" smooth="yes"/>
      <point x="183" y="315" type="line"/>
      <point x="183" y="244" type="line"/>
      <point x="817" y="244" type="line" smooth="yes"/>
      <point x="982" y="244"/>
      <point x="1047" y="309"/>
      <point x="1047" y="418" type="curve" smooth="yes"/>
      <point x="1047" y="513"/>
      <point x="986" y="574"/>
      <point x="886" y="574" type="curve" smooth="yes"/>
      <point x="765" y="574"/>
      <point x="700" y="492"/>
      <point x="700" y="332" type="curve" smooth="yes"/>
    </contour>
    <contour>
      <point x="271" y="84" type="curve"/>
      <point x="328" y="84" type="line"/>
      <point x="293" y="161"/>
      <point x="257" y="219"/>
      <point x="223" y="253" type="curve"/>
      <point x="223" y="305" type="line"/>
      <point x="257" y="339"/>
      <point x="293" y="397"/>
      <point x="328" y="474" type="curve"/>
      <point x="271" y="474" type="line"/>
      <point x="201" y="392"/>
      <point x="127" y="332"/>
      <point x="51" y="293" type="curve"/>
      <point x="51" y="265" type="line"/>
      <point x="127" y="226"/>
      <point x="201" y="166"/>
    </contour>
  </outline>
</glyph>
<glyph name="leftRightStrokeArrow" format="2">
  <advance width="1130"/>
  <unicode hex="21AE"/>
  <anchor x="565" y="278" name="center"/>
  <outline>
    <contour>
      <point x="420" y="83" type="line"/>
      <point x="501" y="83" type="line"/>
      <point x="710" y="473" type="line"/>
      <point x="629" y="473" type="line"/>
    </contour>
    <component base="leftRightArrow"/>
  </outline>
</glyph>
<glyph name="downTipRightArrow" format="2">
  <advance width="722"/>
  <unicode hex="21B3"/>
  <anchor x="361" y="280" name="center"/>
  <outline>
    <contour>
      <point x="115" y="-16" type="line"/>
      <point x="524" y="-16" type="line"/>
      <point x="524" y="55" type="line"/>
      <point x="186" y="55" type="line"/>
      <point x="186" y="735" type="line"/>
      <point x="115" y="735" type="line"/>
    </contour>
    <contour>
      <point x="330" y="-175" type="curve"/>
      <point x="387" y="-175" type="line"/>
      <point x="457" y="-93"/>
      <point x="531" y="-33"/>
      <point x="607" y="5" type="curve"/>
      <point x="607" y="34" type="line"/>
      <point x="531" y="72"/>
      <point x="457" y="133"/>
      <point x="387" y="214" type="curve"/>
      <point x="330" y="214" type="line"/>
      <point x="365" y="138"/>
      <point x="401" y="80"/>
      <point x="435" y="46" type="curve"/>
      <point x="435" y="-7" type="line"/>
      <point x="401" y="-41"/>
      <point x="365" y="-99"/>
    </contour>
  </outline>
</glyph>
<glyph name="rightCornerDownArrow" format="2">
  <advance width="838"/>
  <unicode hex="21B4"/>
  <anchor x="419" y="147" name="center"/>
  <outline>
    <contour>
      <point x="493" y="-16" type="line"/>
      <point x="564" y="-16" type="line"/>
      <point x="564" y="393" type="line"/>
      <point x="115" y="393" type="line"/>
      <point x="115" y="322" type="line"/>
      <point x="493" y="322" type="line"/>
    </contour>
    <contour>
      <point x="514" y="-99" type="curve"/>
      <point x="543" y="-99" type="line"/>
      <point x="581" y="-22"/>
      <point x="641" y="51"/>
      <point x="723" y="121" type="curve"/>
      <point x="723" y="179" type="line"/>
      <point x="646" y="143"/>
      <point x="589" y="108"/>
      <point x="554" y="74" type="curve"/>
      <point x="502" y="74" type="line"/>
      <point x="468" y="108"/>
      <point x="410" y="143"/>
      <point x="333" y="179" type="curve"/>
      <point x="333" y="121" type="line"/>
      <point x="415" y="51"/>
      <point x="475" y="-22"/>
    </contour>
  </outline>
</glyph>
<glyph name="carriagereturn" format="2">
  <advance width="722"/>
  <unicode hex="21B5"/>
  <anchor x="361" y="279" name="center"/>
  <outline>
    <contour>
      <point x="198" y="134" type="line"/>
      <point x="607" y="134" type="line"/>
      <point x="607" y="582" type="line"/>
      <point x="536" y="582" type="line"/>
      <point x="536" y="205" type="line"/>
      <point x="198" y="205" type="line"/>
    </contour>
    <contour>
      <point x="335" y="-25" type="curve"/>
      <point x="393" y="-25" type="line"/>
      <point x="357" y="51"/>
      <point x="322" y="109"/>
      <point x="287" y="143" type="curve"/>
      <point x="287" y="196" type="line"/>
      <point x="322" y="230"/>
      <point x="357" y="288"/>
      <point x="393" y="364" type="curve"/>
      <point x="335" y="364" type="line"/>
      <point x="265" y="283"/>
      <point x="191" y="222"/>
      <point x="115" y="184" type="curve"/>
      <point x="115" y="155" type="line"/>
      <point x="191" y="117"/>
      <point x="265" y="57"/>
    </contour>
  </outline>
</glyph>
<glyph name="topCircleLeftArrow" format="2">
  <advance width="1257"/>
  <unicode hex="21B6"/>
  <anchor x="628" y="278" name="center"/>
  <outline>
    <contour>
      <point x="262" y="91" type="curve"/>
      <point x="333" y="91" type="line"/>
      <point x="333" y="290"/>
      <point x="494" y="450"/>
      <point x="692" y="450" type="curve" smooth="yes"/>
      <point x="891" y="450"/>
      <point x="1051" y="290"/>
      <point x="1051" y="91" type="curve"/>
      <point x="1122" y="91" type="line"/>
      <point x="1122" y="329"/>
      <point x="930" y="521"/>
      <point x="692" y="521" type="curve" smooth="yes"/>
      <point x="454" y="521"/>
      <point x="262" y="329"/>
    </contour>
    <contour>
      <point x="289" y="35" type="line"/>
      <point x="344" y="99"/>
      <point x="419" y="157"/>
      <point x="513" y="208" type="curve"/>
      <point x="527" y="264" type="line"/>
      <point x="445" y="246"/>
      <point x="379" y="224"/>
      <point x="339" y="199" type="curve"/>
      <point x="289" y="211" type="line"/>
      <point x="261" y="252"/>
      <point x="214" y="300"/>
      <point x="148" y="352" type="curve"/>
      <point x="135" y="295" type="line"/>
      <point x="199" y="208"/>
      <point x="241" y="124"/>
      <point x="261" y="40" type="curve"/>
    </contour>
  </outline>
</glyph>
<glyph name="leftBarbUpHarpoon" format="2">
  <advance width="1012"/>
  <unicode hex="21BC"/>
  <anchor x="506" y="363" name="center"/>
  <outline>
    <contour>
      <point x="51" y="244" type="line"/>
      <point x="223" y="244" type="line"/>
      <point x="223" y="306" type="line"/>
      <point x="257" y="340"/>
      <point x="293" y="398"/>
      <point x="328" y="475" type="curve"/>
      <point x="271" y="475" type="line"/>
      <point x="201" y="393"/>
      <point x="127" y="333"/>
      <point x="51" y="294" type="curve"/>
    </contour>
    <contour>
      <point x="184" y="244" type="line"/>
      <point x="961" y="244" type="line"/>
      <point x="961" y="315" type="line"/>
      <point x="184" y="315" type="line"/>
    </contour>
  </outline>
</glyph>
<glyph name="leftDoubleStrokeArrow" format="2">
  <advance width="1012"/>
  <unicode hex="21CD"/>
  <anchor x="513" y="279" name="center"/>
  <outline>
    <contour>
      <point x="490" y="84" type="line"/>
      <point x="570" y="84" type="line"/>
      <point x="779" y="474" type="line"/>
      <point x="699" y="474" type="line"/>
    </contour>
    <component base="leftDoubleArrow"/>
  </outline>
</glyph>
<glyph name="leftRightDoubleStrokeArrow" format="2">
  <advance width="1262"/>
  <unicode hex="21CE"/>
  <anchor x="631" y="278" name="center"/>
  <outline>
    <contour>
      <point x="486" y="83" type="line"/>
      <point x="567" y="83" type="line"/>
      <point x="776" y="473" type="line"/>
      <point x="695" y="473" type="line"/>
    </contour>
    <component base="leftRightDoubleArrow"/>
  </outline>
</glyph>
<glyph name="rightDoubleArrow" format="2">
  <advance width="1012"/>
  <unicode hex="21D2"/>
  <anchor x="393" y="279" name="center"/>
  <outline>
    <contour>
      <point x="619" y="-33" type="curve"/>
      <point x="677" y="-33" type="line"/>
      <point x="748" y="49"/>
      <point x="840" y="149"/>
      <point x="961" y="266" type="curve"/>
      <point x="961" y="292" type="line"/>
      <point x="840" y="409"/>
      <point x="748" y="509"/>
      <point x="677" y="591" type="curve"/>
      <point x="619" y="591" type="line"/>
      <point x="676" y="480"/>
      <point x="761" y="353"/>
      <point x="847" y="258" type="curve"/>
      <point x="847" y="300" type="line"/>
      <point x="761" y="205"/>
      <point x="676" y="78"/>
    </contour>
    <contour>
      <point x="51" y="150" type="line"/>
      <point x="810" y="150" type="line"/>
      <point x="810" y="221" type="line"/>
      <point x="51" y="221" type="line"/>
    </contour>
    <contour>
      <point x="51" y="337" type="line"/>
      <point x="810" y="337" type="line"/>
      <point x="810" y="408" type="line"/>
      <point x="51" y="408" type="line"/>
    </contour>
  </outline>
</glyph>
<glyph name="leftRightDoubleArrow" format="2">
  <advance width="1262"/>
  <unicode hex="21D4"/>
  <anchor x="631" y="278" name="center"/>
  <outline>
    <contour>
      <point x="869" y="-34" type="curve"/>
      <point x="927" y="-34" type="line"/>
      <point x="998" y="48"/>
      <point x="1090" y="148"/>
      <point x="1211" y="265" type="curve"/>
      <point x="1211" y="291" type="line"/>
      <point x="1090" y="408"/>
      <point x="998" y="508"/>
      <point x="927" y="590" type="curve"/>
      <point x="869" y="590" type="line"/>
      <point x="926" y="479"/>
      <point x="1011" y="352"/>
      <point x="1096" y="257" type="curve"/>
      <point x="1096" y="299" type="line"/>
      <point x="1011" y="204"/>
      <point x="926" y="77"/>
    </contour>
    <contour>
      <point x="335" y="-34" type="curve"/>
      <point x="393" y="-34" type="line"/>
      <point x="336" y="77"/>
      <point x="251" y="204"/>
      <point x="166" y="299" type="curve"/>
      <point x="166" y="257" type="line"/>
      <point x="251" y="352"/>
      <point x="336" y="479"/>
      <point x="393" y="590" type="curve"/>
      <point x="335" y="590" type="line"/>
      <point x="264" y="508"/>
      <point x="172" y="408"/>
      <point x="51" y="291" type="curve"/>
      <point x="51" y="265" type="line"/>
      <point x="172" y="148"/>
      <point x="264" y="48"/>
    </contour>
    <contour>
      <point x="202" y="149" type="line"/>
      <point x="1060" y="149" type="line"/>
      <point x="1060" y="220" type="line"/>
      <point x="202" y="220" type="line"/>
    </contour>
    <contour>
      <point x="202" y="336" type="line"/>
      <point x="1060" y="336" type="line"/>
      <point x="1060" y="407" type="line"/>
      <point x="202" y="407" type="line"/>
    </contour>
  </outline>
</glyph>
<glyph name="leftSquiggleArrow" format="2">
  <advance width="1106"/>
  <unicode hex="21DC"/>
  <anchor x="553" y="279" name="center"/>
  <outline>
    <contour>
      <point x="404" y="128" type="line"/>
      <point x="499" y="290" type="line"/>
      <point x="599" y="128" type="line"/>
      <point x="690" y="290" type="line"/>
      <point x="787" y="128" type="line"/>
      <point x="888" y="304" type="line"/>
      <point x="946" y="243" type="line"/>
      <point x="1055" y="243" type="line"/>
      <point x="1055" y="315" type="line"/>
      <point x="954" y="315" type="line"/>
      <point x="876" y="399" type="line"/>
      <point x="787" y="237" type="line"/>
      <point x="690" y="399" type="line"/>
      <point x="599" y="237" type="line"/>
      <point x="499" y="399" type="line"/>
      <point x="404" y="237" type="line"/>
      <point x="354" y="315" type="line"/>
      <point x="184" y="315" type="line"/>
      <point x="184" y="243" type="line"/>
      <point x="329" y="243" type="line"/>
    </contour>
    <contour>
      <point x="270" y="84" type="curve"/>
      <point x="328" y="84" type="line"/>
      <point x="293" y="161"/>
      <point x="257" y="219"/>
      <point x="223" y="253" type="curve"/>
      <point x="223" y="305" type="line"/>
      <point x="257" y="339"/>
      <point x="293" y="397"/>
      <point x="328" y="474" type="curve"/>
      <point x="270" y="474" type="line"/>
      <point x="201" y="392"/>
      <point x="127" y="332"/>
      <point x="51" y="293" type="curve"/>
      <point x="51" y="265" type="line"/>
      <point x="127" y="226"/>
      <point x="201" y="166"/>
    </contour>
  </outline>
</glyph>
<glyph name="northWestArrowToCorner" format="2">
  <advance width="973"/>
  <unicode hex="21F1"/>
  <anchor x="518" y="278" name="center"/>
  <outline>
    <contour>
      <point x="51" y="-102" type="line"/>
      <point x="122" y="-102" type="line"/>
      <point x="122" y="677" type="line"/>
      <point x="922" y="677" type="line"/>
      <point x="922" y="748" type="line"/>
      <point x="51" y="748" type="line"/>
    </contour>
    <component base="northWestArrow" xOffset="142"/>
  </outline>
</glyph>
<glyph name="rightCircleArrow" format="2">
  <advance width="1012"/>
  <unicode hex="21F4"/>
  <anchor x="404" y="279" name="center"/>
  <outline>
    <contour>
      <point x="401" y="84" type="curve" smooth="yes"/>
      <point x="509" y="84"/>
      <point x="596" y="171"/>
      <point x="596" y="279" type="curve" smooth="yes"/>
      <point x="596" y="387"/>
      <point x="509" y="474"/>
      <point x="401" y="474" type="curve" smooth="yes"/>
      <point x="294" y="474"/>
      <point x="207" y="387"/>
      <point x="207" y="279" type="curve" smooth="yes"/>
      <point x="207" y="171"/>
      <point x="294" y="84"/>
    </contour>
    <contour>
      <point x="401" y="155" type="curve" smooth="yes"/>
      <point x="333" y="155"/>
      <point x="278" y="211"/>
      <point x="278" y="279" type="curve" smooth="yes"/>
      <point x="278" y="347"/>
      <point x="333" y="403"/>
      <point x="401" y="403" type="curve" smooth="yes"/>
      <point x="470" y="403"/>
      <point x="525" y="347"/>
      <point x="525" y="279" type="curve" smooth="yes"/>
      <point x="525" y="211"/>
      <point x="470" y="155"/>
    </contour>
    <component base="rightArrow"/>
  </outline>
</glyph>
<glyph name="partialdiff" format="2">
  <advance width="533"/>
  <unicode hex="2202"/>
  <anchor x="253" y="356" name="center"/>
  <anchor x="246" y="0" name="math.ta"/>
  <outline>
    <contour>
      <point x="244" y="-10" type="curve" smooth="yes"/>
      <point x="380" y="-10"/>
      <point x="487" y="91"/>
      <point x="487" y="305" type="curve" smooth="yes"/>
      <point x="487" y="618"/>
      <point x="363" y="725"/>
      <point x="241" y="725" type="curve" smooth="yes"/>
      <point x="174" y="725"/>
      <point x="108" y="693"/>
      <point x="64" y="645" type="curve"/>
      <point x="98" y="586" type="line"/>
      <point x="147" y="630"/>
      <point x="191" y="649"/>
      <point x="229" y="649" type="curve" smooth="yes"/>
      <point x="308" y="649"/>
      <point x="364" y="567"/>
      <point x="388" y="443" type="curve"/>
      <point x="349" y="480"/>
      <point x="302" y="495"/>
      <point x="254" y="491" type="curve" smooth="yes"/>
      <point x="149" y="484"/>
      <point x="46" y="387"/>
      <point x="46" y="230" type="curve" smooth="yes"/>
      <point x="46" y="101"/>
      <point x="124" y="-10"/>
    </contour>
    <contour>
      <point x="133" y="230" type="curve" smooth="yes"/>
      <point x="133" y="354"/>
      <point x="196" y="418"/>
      <point x="263" y="426" type="curve" smooth="yes"/>
      <point x="315" y="431"/>
      <point x="371" y="402"/>
      <point x="400" y="349" type="curve"/>
      <point x="412" y="212"/>
      <point x="363" y="64"/>
      <point x="254" y="64" type="curve" smooth="yes"/>
      <point x="170" y="64"/>
      <point x="133" y="137"/>
    </contour>
  </outline>
</glyph>
<glyph name="increment" format="2">
  <advance width="581"/>
  <unicode hex="2206"/>
  <anchor x="290" y="357" name="center"/>
  <outline>
    <contour>
      <point x="20" y="0" type="line"/>
      <point x="561" y="0" type="line"/>
      <point x="561" y="54" type="line"/>
      <point x="335" y="714" type="line"/>
      <point x="245" y="714" type="line"/>
      <point x="20" y="55" type="line"/>
    </contour>
    <contour>
      <point x="116" y="79" type="line"/>
      <point x="243" y="455" type="line" smooth="yes"/>
      <point x="257" y="498"/>
      <point x="272" y="551"/>
      <point x="289" y="616" type="curve"/>
      <point x="299" y="572"/>
      <point x="315" y="517"/>
      <point x="337" y="451" type="curve" smooth="yes"/>
      <point x="462" y="79" type="line"/>
    </contour>
  </outline>
</glyph>
<glyph name="containsasmemberSmall" format="2">
  <advance width="556"/>
  <unicode hex="220D"/>
  <anchor x="278" y="278" name="center"/>
  <outline>
    <contour>
      <point x="51" y="59" type="line"/>
      <point x="248" y="59" type="line" smooth="yes"/>
      <point x="416" y="59"/>
      <point x="505" y="135"/>
      <point x="505" y="278" type="curve" smooth="yes"/>
      <point x="505" y="422"/>
      <point x="416" y="498"/>
      <point x="248" y="498" type="curve" smooth="yes"/>
      <point x="51" y="498" type="line"/>
      <point x="51" y="427" type="line"/>
      <point x="256" y="427" type="line" smooth="yes"/>
      <point x="384" y="427"/>
      <point x="435" y="370"/>
      <point x="435" y="278" type="curve" smooth="yes"/>
      <point x="435" y="186"/>
      <point x="384" y="130"/>
      <point x="256" y="130" type="curve" smooth="yes"/>
      <point x="51" y="130" type="line"/>
    </contour>
    <contour>
      <point x="51" y="243" type="line"/>
      <point x="452" y="243" type="line"/>
      <point x="452" y="314" type="line"/>
      <point x="51" y="314" type="line"/>
    </contour>
  </outline>
</glyph>
<glyph name="minus" format="2">
  <advance width="572"/>
  <unicode hex="2212"/>
  <anchor x="286" y="278" name="center"/>
  <outline>
    <contour>
      <point x="51" y="242" type="line"/>
      <point x="521" y="242" type="line"/>
      <point x="521" y="313" type="line"/>
      <point x="51" y="313" type="line"/>
    </contour>
  </outline>
</glyph>
<glyph name="minusplus" format="2">
  <advance width="572"/>
  <unicode hex="2213"/>
  <anchor x="286" y="278" name="center"/>
  <outline>
    <contour>
      <point x="250" y="36" type="line"/>
      <point x="322" y="36" type="line"/>
      <point x="322" y="242" type="line"/>
      <point x="521" y="242" type="line"/>
      <point x="521" y="313" type="line"/>
      <point x="322" y="313" type="line"/>
      <point x="322" y="520" type="line"/>
      <point x="250" y="520" type="line"/>
      <point x="250" y="313" type="line"/>
      <point x="51" y="313" type="line"/>
      <point x="51" y="242" type="line"/>
      <point x="250" y="242" type="line"/>
    </contour>
    <contour>
      <point x="51" y="449" type="line"/>
      <point x="521" y="449" type="line"/>
      <point x="521" y="520" type="line"/>
      <point x="51" y="520" type="line"/>
    </contour>
  </outline>
</glyph>
<glyph name="setminus" format="2">
  <advance width="403"/>
  <unicode hex="2216"/>
  <anchor x="201" y="278" name="center"/>
  <outline>
    <contour>
      <point x="281" y="-162" type="line"/>
      <point x="352" y="-162" type="line"/>
      <point x="122" y="719" type="line"/>
      <point x="51" y="719" type="line"/>
    </contour>
  </outline>
</glyph>
<glyph name="asteriskmath" format="2">
  <advance width="456"/>
  <unicode hex="2217"/>
  <anchor x="228" y="278" name="center"/>
  <outline>
    <contour>
      <point x="192" y="94" type="line"/>
      <point x="264" y="94" type="line"/>
      <point x="259" y="225" type="line"/>
      <point x="369" y="155" type="line"/>
      <point x="405" y="217" type="line"/>
      <point x="290" y="278" type="line"/>
      <point x="405" y="339" type="line"/>
      <point x="369" y="401" type="line"/>
      <point x="259" y="331" type="line"/>
      <point x="264" y="462" type="line"/>
      <point x="192" y="462" type="line"/>
      <point x="197" y="331" type="line"/>
      <point x="87" y="401" type="line"/>
      <point x="51" y="339" type="line"/>
      <point x="166" y="278" type="line"/>
      <point x="51" y="217" type="line"/>
      <point x="87" y="155" type="line"/>
      <point x="197" y="225" type="line"/>
    </contour>
  </outline>
</glyph>
<glyph name="ringoperator" format="2">
  <advance width="382"/>
  <unicode hex="2218"/>
  <anchor x="191" y="278" name="center"/>
  <outline>
    <contour>
      <point x="191" y="138" type="curve" smooth="yes"/>
      <point x="269" y="138"/>
      <point x="331" y="200"/>
      <point x="331" y="278" type="curve" smooth="yes"/>
      <point x="331" y="356"/>
      <point x="269" y="418"/>
      <point x="191" y="418" type="curve" smooth="yes"/>
      <point x="113" y="418"/>
      <point x="51" y="356"/>
      <point x="51" y="278" type="curve" smooth="yes"/>
      <point x="51" y="200"/>
      <point x="113" y="138"/>
    </contour>
    <contour>
      <point x="191" y="202" type="curve" smooth="yes"/>
      <point x="149" y="202"/>
      <point x="115" y="238"/>
      <point x="115" y="278" type="curve" smooth="yes"/>
      <point x="115" y="318"/>
      <point x="149" y="354"/>
      <point x="191" y="354" type="curve" smooth="yes"/>
      <point x="232" y="354"/>
      <point x="267" y="320"/>
      <point x="267" y="278" type="curve" smooth="yes"/>
      <point x="267" y="237"/>
      <point x="232" y="202"/>
    </contour>
  </outline>
</glyph>
<glyph name="bulletoperator" format="2">
  <advance width="290"/>
  <unicode hex="2219"/>
  <anchor x="145" y="279" name="_center"/>
  <anchor x="145" y="278" name="center"/>
  <outline>
    <contour>
      <point x="145" y="184" type="curve" smooth="yes"/>
      <point x="198" y="184"/>
      <point x="239" y="225"/>
      <point x="239" y="278" type="curve" smooth="yes"/>
      <point x="239" y="329"/>
      <point x="198" y="373"/>
      <point x="145" y="373" type="curve" smooth="yes"/>
      <point x="91" y="373"/>
      <point x="51" y="329"/>
      <point x="51" y="278" type="curve" smooth="yes"/>
      <point x="51" y="225"/>
      <point x="92" y="184"/>
    </contour>
  </outline>
</glyph>
<glyph name="proportional" format="2">
  <advance width="540"/>
  <unicode hex="221D"/>
  <anchor x="270" y="278" name="center"/>
  <outline>
    <contour>
      <point x="198" y="124" type="curve" smooth="yes"/>
      <point x="254" y="124"/>
      <point x="305" y="161"/>
      <point x="344" y="228" type="curve"/>
      <point x="383" y="161"/>
      <point x="431" y="126"/>
      <point x="489" y="124" type="curve"/>
      <point x="489" y="187" type="line"/>
      <point x="446" y="189"/>
      <point x="413" y="217"/>
      <point x="380" y="277" type="curve"/>
      <point x="416" y="341"/>
      <point x="447" y="367"/>
      <point x="489" y="370" type="curve"/>
      <point x="489" y="433" type="line"/>
      <point x="433" y="429"/>
      <point x="385" y="395"/>
      <point x="345" y="328" type="curve"/>
      <point x="306" y="398"/>
      <point x="257" y="433"/>
      <point x="198" y="433" type="curve" smooth="yes"/>
      <point x="112" y="433"/>
      <point x="51" y="368"/>
      <point x="51" y="279" type="curve" smooth="yes"/>
      <point x="51" y="187"/>
      <point x="110" y="124"/>
    </contour>
    <contour>
      <point x="202" y="187" type="curve" smooth="yes"/>
      <point x="150" y="187"/>
      <point x="116" y="226"/>
      <point x="116" y="279" type="curve" smooth="yes"/>
      <point x="116" y="332"/>
      <point x="151" y="370"/>
      <point x="201" y="370" type="curve" smooth="yes"/>
      <point x="246" y="370"/>
      <point x="278" y="340"/>
      <point x="311" y="279" type="curve"/>
      <point x="276" y="216"/>
      <point x="243" y="187"/>
    </contour>
  </outline>
</glyph>
<glyph name="orthogonal" format="2">
  <advance width="652"/>
  <unicode hex="221F"/>
  <anchor x="326" y="275" name="center"/>
  <outline>
    <contour>
      <point x="51" y="0" type="line"/>
      <point x="601" y="0" type="line"/>
      <point x="601" y="71" type="line"/>
      <point x="122" y="71" type="line"/>
      <point x="122" y="550" type="line"/>
      <point x="51" y="550" type="line"/>
    </contour>
  </outline>
</glyph>
<glyph name="angle" format="2">
  <advance width="652"/>
  <unicode hex="2220"/>
  <anchor x="326" y="257" name="center"/>
  <outline>
    <contour>
      <point x="51" y="0" type="line"/>
      <point x="601" y="0" type="line"/>
      <point x="601" y="71" type="line"/>
      <point x="166" y="71" type="line"/>
      <point x="511" y="464" type="line"/>
      <point x="461" y="515" type="line"/>
      <point x="51" y="50" type="line"/>
    </contour>
  </outline>
</glyph>
<glyph name="doesnotdivide" format="2">
  <advance width="431"/>
  <unicode hex="2224"/>
  <anchor x="219" y="278" name="center"/>
  <outline>
    <contour>
      <point x="97" y="105" type="line"/>
      <point x="380" y="407" type="line"/>
      <point x="332" y="451" type="line"/>
      <point x="51" y="150" type="line"/>
    </contour>
    <component base="divides" xOffset="133"/>
  </outline>
</glyph>
<glyph name="notparallel" format="2">
  <advance width="616"/>
  <unicode hex="2226"/>
  <anchor x="309" y="277" name="center"/>
  <outline>
    <contour>
      <point x="97" y="4" type="line"/>
      <point x="567" y="506" type="line"/>
      <point x="519" y="550" type="line"/>
      <point x="51" y="49" type="line"/>
    </contour>
    <component base="parallel" xOffset="128"/>
  </outline>
</glyph>
<glyph name="logicaland" format="2">
  <advance width="714"/>
  <unicode hex="2227"/>
  <anchor x="357" y="290" name="center"/>
  <outline>
    <contour>
      <point x="51" y="0" type="line"/>
      <point x="134" y="0" type="line"/>
      <point x="357" y="478" type="line"/>
      <point x="580" y="0" type="line"/>
      <point x="663" y="0" type="line"/>
      <point x="382" y="580" type="line"/>
      <point x="332" y="580" type="line"/>
    </contour>
  </outline>
</glyph>
<glyph name="intersection" format="2">
  <advance width="684"/>
  <unicode hex="2229"/>
  <anchor x="342" y="332" name="center"/>
  <outline>
    <contour>
      <point x="50" y="0" type="line"/>
      <point x="122" y="0" type="line"/>
      <point x="122" y="324" type="line" smooth="yes"/>
      <point x="122" y="507"/>
      <point x="194" y="596"/>
      <point x="342" y="596" type="curve" smooth="yes"/>
      <point x="490" y="596"/>
      <point x="562" y="506"/>
      <point x="562" y="324" type="curve" smooth="yes"/>
      <point x="562" y="0" type="line"/>
      <point x="634" y="0" type="line"/>
      <point x="634" y="321" type="line" smooth="yes"/>
      <point x="634" y="545"/>
      <point x="534" y="664"/>
      <point x="342" y="664" type="curve" smooth="yes"/>
      <point x="151" y="664"/>
      <point x="50" y="545"/>
      <point x="50" y="321" type="curve" smooth="yes"/>
    </contour>
  </outline>
</glyph>
<glyph name="union" format="2">
  <advance width="684"/>
  <unicode hex="222A"/>
  <anchor x="342" y="332" name="center"/>
  <outline>
    <contour>
      <point x="342" y="0" type="curve" smooth="yes"/>
      <point x="534" y="0"/>
      <point x="634" y="119"/>
      <point x="634" y="343" type="curve" smooth="yes"/>
      <point x="634" y="664" type="line"/>
      <point x="562" y="664" type="line"/>
      <point x="562" y="340" type="line" smooth="yes"/>
      <point x="562" y="158"/>
      <point x="490" y="68"/>
      <point x="342" y="68" type="curve" smooth="yes"/>
      <point x="194" y="68"/>
      <point x="122" y="157"/>
      <point x="122" y="340" type="curve" smooth="yes"/>
      <point x="122" y="664" type="line"/>
      <point x="50" y="664" type="line"/>
      <point x="50" y="343" type="line" smooth="yes"/>
      <point x="50" y="119"/>
      <point x="151" y="0"/>
    </contour>
  </outline>
</glyph>
<glyph name="integral" format="2">
  <advance width="836"/>
  <unicode hex="222B"/>
  <anchor x="57" y="0" name="#entry"/>
  <anchor x="396" y="0" name="#exit"/>
  <anchor x="418" y="328" name="center"/>
  <anchor x="1110" y="0" name="math.ic"/>
  <outline>
    <contour>
      <point x="51" y="-211" type="line"/>
      <point x="90" y="-228"/>
      <point x="129" y="-238"/>
      <point x="166" y="-238" type="curve" smooth="yes"/>
      <point x="253" y="-238"/>
      <point x="329" y="-185"/>
      <point x="373" y="-69" type="curve" smooth="yes"/>
      <point x="410" y="31"/>
      <point x="434" y="174"/>
      <point x="458" y="316" type="curve" smooth="yes"/>
      <point x="483" y="462"/>
      <point x="507" y="606"/>
      <point x="543" y="699" type="curve" smooth="yes"/>
      <point x="575" y="785"/>
      <point x="617" y="813"/>
      <point x="674" y="813" type="curve" smooth="yes"/>
      <point x="698" y="813"/>
      <point x="725" y="808"/>
      <point x="755" y="800" type="curve"/>
      <point x="785" y="866" type="line"/>
      <point x="746" y="883"/>
      <point x="707" y="893"/>
      <point x="670" y="893" type="curve" smooth="yes"/>
      <point x="583" y="893"/>
      <point x="507" y="841"/>
      <point x="463" y="725" type="curve" smooth="yes"/>
      <point x="424" y="622"/>
      <point x="399" y="474"/>
      <point x="374" y="328" type="curve" smooth="yes"/>
      <point x="350" y="186"/>
      <point x="327" y="46"/>
      <point x="293" y="-45" type="curve" smooth="yes"/>
      <point x="261" y="-130"/>
      <point x="219" y="-158"/>
      <point x="162" y="-158" type="curve" smooth="yes"/>
      <point x="138" y="-158"/>
      <point x="111" y="-153"/>
      <point x="81" y="-145" type="curve"/>
    </contour>
  </outline>
</glyph>
<glyph name="dotminus" format="2">
  <advance width="572"/>
  <unicode hex="2238"/>
  <anchor x="286" y="374" name="center"/>
  <outline>
    <contour>
      <point x="286" y="388" type="curve" smooth="yes"/>
      <point x="319" y="388"/>
      <point x="346" y="415"/>
      <point x="346" y="448" type="curve" smooth="yes"/>
      <point x="346" y="481"/>
      <point x="319" y="508"/>
      <point x="286" y="508" type="curve" smooth="yes"/>
      <point x="253" y="508"/>
      <point x="226" y="481"/>
      <point x="226" y="448" type="curve" smooth="yes"/>
      <point x="226" y="415"/>
      <point x="253" y="388"/>
    </contour>
    <component base="minus"/>
  </outline>
</glyph>
<glyph name="excess" format="2">
  <advance width="617"/>
  <unicode hex="2239"/>
  <anchor x="308" y="277" name="center"/>
  <outline>
    <contour>
      <point x="51" y="242" type="line"/>
      <point x="391" y="242" type="line"/>
      <point x="391" y="313" type="line"/>
      <point x="51" y="313" type="line"/>
    </contour>
    <contour>
      <point x="506" y="117" type="curve" smooth="yes"/>
      <point x="539" y="117"/>
      <point x="566" y="144"/>
      <point x="566" y="177" type="curve" smooth="yes"/>
      <point x="566" y="210"/>
      <point x="539" y="237"/>
      <point x="506" y="237" type="curve" smooth="yes"/>
      <point x="473" y="237"/>
      <point x="446" y="210"/>
      <point x="446" y="177" type="curve" smooth="yes"/>
      <point x="446" y="144"/>
      <point x="473" y="117"/>
    </contour>
    <contour>
      <point x="506" y="317" type="curve" smooth="yes"/>
      <point x="539" y="317"/>
      <point x="566" y="344"/>
      <point x="566" y="377" type="curve" smooth="yes"/>
      <point x="566" y="410"/>
      <point x="539" y="437"/>
      <point x="506" y="437" type="curve" smooth="yes"/>
      <point x="473" y="437"/>
      <point x="446" y="410"/>
      <point x="446" y="377" type="curve" smooth="yes"/>
      <point x="446" y="344"/>
      <point x="473" y="317"/>
    </contour>
  </outline>
</glyph>
<glyph name="geometricproportion" format="2">
  <advance width="572"/>
  <unicode hex="223A"/>
  <anchor x="286" y="278" name="center"/>
  <outline>
    <contour>
      <point x="51" y="243" type="line"/>
      <point x="521" y="243" type="line"/>
      <point x="521" y="314" type="line"/>
      <point x="51" y="314" type="line"/>
    </contour>
    <contour>
      <point x="111" y="48" type="curve" smooth="yes"/>
      <point x="144" y="48"/>
      <point x="171" y="75"/>
      <point x="171" y="108" type="curve" smooth="yes"/>
      <point x="171" y="143"/>
      <point x="142" y="168"/>
      <point x="111" y="168" type="curve" smooth="yes"/>
      <point x="78" y="168"/>
      <point x="51" y="141"/>
      <point x="51" y="108" type="curve" smooth="yes"/>
      <point x="51" y="76"/>
      <point x="77" y="48"/>
    </contour>
    <contour>
      <point x="111" y="389" type="curve" smooth="yes"/>
      <point x="142" y="389"/>
      <point x="171" y="414"/>
      <point x="171" y="449" type="curve" smooth="yes"/>
      <point x="171" y="482"/>
      <point x="144" y="509"/>
      <point x="111" y="509" type="curve" smooth="yes"/>
      <point x="76" y="509"/>
      <point x="51" y="480"/>
      <point x="51" y="449" type="curve" smooth="yes"/>
      <point x="51" y="416"/>
      <point x="78" y="389"/>
    </contour>
    <contour>
      <point x="461" y="48" type="curve" smooth="yes"/>
      <point x="494" y="48"/>
      <point x="521" y="75"/>
      <point x="521" y="108" type="curve" smooth="yes"/>
      <point x="521" y="143"/>
      <point x="492" y="168"/>
      <point x="461" y="168" type="curve" smooth="yes"/>
      <point x="428" y="168"/>
      <point x="401" y="141"/>
      <point x="401" y="108" type="curve" smooth="yes"/>
      <point x="401" y="76"/>
      <point x="427" y="48"/>
    </contour>
    <contour>
      <point x="461" y="389" type="curve" smooth="yes"/>
      <point x="492" y="389"/>
      <point x="521" y="414"/>
      <point x="521" y="449" type="curve" smooth="yes"/>
      <point x="521" y="482"/>
      <point x="494" y="509"/>
      <point x="461" y="509" type="curve" smooth="yes"/>
      <point x="426" y="509"/>
      <point x="401" y="480"/>
      <point x="401" y="449" type="curve" smooth="yes"/>
      <point x="401" y="416"/>
      <point x="428" y="389"/>
    </contour>
  </outline>
</glyph>
<glyph name="homothetic" format="2">
  <advance width="572"/>
  <unicode hex="223B"/>
  <anchor x="286" y="277" name="center"/>
  <outline>
    <contour>
      <point x="51" y="212" type="line"/>
      <point x="87" y="249"/>
      <point x="129" y="271"/>
      <point x="164" y="271" type="curve" smooth="yes"/>
      <point x="195" y="271"/>
      <point x="232" y="261"/>
      <point x="274" y="242" type="curve" smooth="yes"/>
      <point x="317" y="222"/>
      <point x="359" y="212"/>
      <point x="401" y="212" type="curve" smooth="yes"/>
      <point x="448" y="212"/>
      <point x="488" y="230"/>
      <point x="521" y="266" type="curve"/>
      <point x="521" y="343" type="line"/>
      <point x="486" y="306"/>
      <point x="441" y="284"/>
      <point x="406" y="284" type="curve" smooth="yes"/>
      <point x="377" y="284"/>
      <point x="340" y="295"/>
      <point x="296" y="314" type="curve" smooth="yes"/>
      <point x="252" y="333"/>
      <point x="210" y="343"/>
      <point x="170" y="343" type="curve" smooth="yes"/>
      <point x="123" y="343"/>
      <point x="83" y="325"/>
      <point x="51" y="290" type="curve"/>
    </contour>
    <contour>
      <point x="286" y="57" type="curve" smooth="yes"/>
      <point x="319" y="57"/>
      <point x="346" y="84"/>
      <point x="346" y="117" type="curve" smooth="yes"/>
      <point x="346" y="148"/>
      <point x="321" y="177"/>
      <point x="286" y="177" type="curve" smooth="yes"/>
      <point x="253" y="177"/>
      <point x="226" y="150"/>
      <point x="226" y="117" type="curve" smooth="yes"/>
      <point x="226" y="83"/>
      <point x="254" y="57"/>
    </contour>
    <contour>
      <point x="286" y="378" type="curve" smooth="yes"/>
      <point x="320" y="378"/>
      <point x="346" y="406"/>
      <point x="346" y="438" type="curve" smooth="yes"/>
      <point x="346" y="471"/>
      <point x="319" y="498"/>
      <point x="286" y="498" type="curve" smooth="yes"/>
      <point x="254" y="498"/>
      <point x="226" y="472"/>
      <point x="226" y="438" type="curve" smooth="yes"/>
      <point x="226" y="405"/>
      <point x="253" y="378"/>
    </contour>
  </outline>
</glyph>
<glyph name="invertedlazys" format="2">
  <advance width="696"/>
  <unicode hex="223E"/>
  <anchor x="348" y="276" name="center"/>
  <outline>
    <contour>
      <point x="193" y="120" type="curve" smooth="yes"/>
      <point x="196" y="120" type="line"/>
      <point x="203" y="183" type="line"/>
      <point x="152" y="183"/>
      <point x="118" y="223"/>
      <point x="118" y="277" type="curve" smooth="yes"/>
      <point x="118" y="326"/>
      <point x="153" y="366"/>
      <point x="196" y="366" type="curve" smooth="yes"/>
      <point x="222" y="366"/>
      <point x="243" y="358"/>
      <point x="258" y="344" type="curve" smooth="yes"/>
      <point x="273" y="330"/>
      <point x="298" y="300"/>
      <point x="328" y="254" type="curve" smooth="yes"/>
      <point x="389" y="161"/>
      <point x="439" y="124"/>
      <point x="504" y="124" type="curve" smooth="yes"/>
      <point x="583" y="124"/>
      <point x="645" y="187"/>
      <point x="645" y="277" type="curve" smooth="yes"/>
      <point x="645" y="367"/>
      <point x="586" y="429"/>
      <point x="496" y="433" type="curve"/>
      <point x="493" y="366" type="line"/>
      <point x="500" y="366" type="line" smooth="yes"/>
      <point x="542" y="366"/>
      <point x="578" y="326"/>
      <point x="578" y="277" type="curve" smooth="yes"/>
      <point x="578" y="230"/>
      <point x="546" y="187"/>
      <point x="504" y="187" type="curve" smooth="yes"/>
      <point x="451" y="187"/>
      <point x="423" y="213"/>
      <point x="363" y="308" type="curve" smooth="yes"/>
      <point x="303" y="403"/>
      <point x="268" y="429"/>
      <point x="196" y="429" type="curve" smooth="yes"/>
      <point x="110" y="429"/>
      <point x="51" y="365"/>
      <point x="51" y="277" type="curve" smooth="yes"/>
      <point x="51" y="188"/>
      <point x="112" y="120"/>
    </contour>
  </outline>
</glyph>
<glyph name="sinewave" format="2">
  <advance width="667"/>
  <unicode hex="223F"/>
  <anchor x="333" y="276" name="center"/>
  <outline>
    <contour>
      <point x="473" y="3" type="curve" smooth="yes"/>
      <point x="563" y="3"/>
      <point x="616" y="61"/>
      <point x="616" y="165" type="curve" smooth="yes"/>
      <point x="616" y="276" type="line"/>
      <point x="550" y="276" type="line"/>
      <point x="550" y="175" type="line" smooth="yes"/>
      <point x="550" y="105"/>
      <point x="526" y="70"/>
      <point x="475" y="70" type="curve" smooth="yes"/>
      <point x="414" y="70"/>
      <point x="398" y="97"/>
      <point x="384" y="179" type="curve" smooth="yes"/>
      <point x="347" y="391" type="line" smooth="yes"/>
      <point x="328" y="498"/>
      <point x="285" y="549"/>
      <point x="194" y="549" type="curve" smooth="yes"/>
      <point x="104" y="549"/>
      <point x="51" y="493"/>
      <point x="51" y="387" type="curve" smooth="yes"/>
      <point x="51" y="276" type="line"/>
      <point x="117" y="276" type="line"/>
      <point x="117" y="377" type="line" smooth="yes"/>
      <point x="117" y="447"/>
      <point x="143" y="482"/>
      <point x="193" y="482" type="curve" smooth="yes"/>
      <point x="250" y="482"/>
      <point x="269" y="458"/>
      <point x="284" y="372" type="curve" smooth="yes"/>
      <point x="320" y="161" type="line" smooth="yes"/>
      <point x="338" y="54"/>
      <point x="382" y="3"/>
    </contour>
  </outline>
</glyph>
<glyph name="notsimilar" format="2">
  <advance width="572"/>
  <unicode hex="2241"/>
  <anchor x="286" y="275" name="center"/>
  <outline>
    <contour>
      <point x="220" y="91" type="line"/>
      <point x="407" y="429" type="line"/>
      <point x="352" y="459" type="line"/>
      <point x="165" y="121" type="line"/>
    </contour>
    <contour>
      <point x="51" y="209" type="line"/>
      <point x="87" y="246"/>
      <point x="129" y="268"/>
      <point x="164" y="268" type="curve" smooth="yes"/>
      <point x="195" y="268"/>
      <point x="232" y="258"/>
      <point x="274" y="239" type="curve" smooth="yes"/>
      <point x="317" y="219"/>
      <point x="359" y="209"/>
      <point x="401" y="209" type="curve" smooth="yes"/>
      <point x="448" y="209"/>
      <point x="488" y="227"/>
      <point x="521" y="263" type="curve"/>
      <point x="521" y="340" type="line"/>
      <point x="486" y="303"/>
      <point x="441" y="281"/>
      <point x="406" y="281" type="curve" smooth="yes"/>
      <point x="377" y="281"/>
      <point x="341" y="293"/>
      <point x="296" y="311" type="curve" smooth="yes"/>
      <point x="252" y="329"/>
      <point x="210" y="340"/>
      <point x="170" y="340" type="curve" smooth="yes"/>
      <point x="123" y="340"/>
      <point x="83" y="322"/>
      <point x="51" y="287" type="curve"/>
    </contour>
  </outline>
</glyph>
<glyph name="minustilde" format="2">
  <advance width="572"/>
  <unicode hex="2242"/>
  <anchor x="286" y="277" name="center"/>
  <outline>
    <contour>
      <point x="51" y="145" type="line"/>
      <point x="88" y="183"/>
      <point x="131" y="204"/>
      <point x="166" y="204" type="curve" smooth="yes"/>
      <point x="197" y="204"/>
      <point x="234" y="194"/>
      <point x="276" y="175" type="curve" smooth="yes"/>
      <point x="319" y="155"/>
      <point x="360" y="145"/>
      <point x="402" y="145" type="curve" smooth="yes"/>
      <point x="449" y="145"/>
      <point x="488" y="163"/>
      <point x="521" y="198" type="curve"/>
      <point x="521" y="276" type="line"/>
      <point x="482" y="237"/>
      <point x="440" y="217"/>
      <point x="408" y="217" type="curve" smooth="yes"/>
      <point x="376" y="217"/>
      <point x="339" y="227"/>
      <point x="297" y="246" type="curve" smooth="yes"/>
      <point x="254" y="266"/>
      <point x="212" y="276"/>
      <point x="171" y="276" type="curve" smooth="yes"/>
      <point x="125" y="276"/>
      <point x="84" y="258"/>
      <point x="51" y="222" type="curve"/>
    </contour>
    <contour>
      <point x="51" y="338" type="line"/>
      <point x="521" y="338" type="line"/>
      <point x="521" y="409" type="line"/>
      <point x="51" y="409" type="line"/>
    </contour>
  </outline>
</glyph>
<glyph name="notasymptoticallyequalto" format="2">
  <advance width="572"/>
  <unicode hex="2244"/>
  <anchor x="286" y="270" name="center"/>
  <outline>
    <contour>
      <point x="220" y="-24" type="line"/>
      <point x="420" y="496" type="line"/>
      <point x="358" y="519" type="line"/>
      <point x="158" y="-1" type="line"/>
    </contour>
    <component base="asymptoticallyequal"/>
  </outline>
</glyph>
<glyph name="neitherapproximatelynoractuallyequalto" format="2">
  <advance width="572"/>
  <unicode hex="2247"/>
  <anchor x="286" y="278" name="center"/>
  <outline>
    <contour>
      <point x="208" y="-54" type="line"/>
      <point x="440" y="550" type="line"/>
      <point x="378" y="573" type="line"/>
      <point x="146" y="-31" type="line"/>
    </contour>
    <component base="congruent"/>
  </outline>
</glyph>
<glyph name="notalmostequalto" format="2">
  <advance width="572"/>
  <unicode hex="2249"/>
  <anchor x="286" y="277" name="center"/>
  <outline>
    <contour>
      <point x="205" y="5" type="line"/>
      <point x="445" y="519" type="line"/>
      <point x="385" y="548" type="line"/>
      <point x="145" y="33" type="line"/>
    </contour>
    <component base="approxequal"/>
  </outline>
</glyph>
<glyph name="almostequalorequalto" format="2">
  <advance width="572"/>
  <unicode hex="224A"/>
  <anchor x="286" y="279" name="center"/>
  <outline>
    <contour>
      <point x="51" y="360" type="line"/>
      <point x="90" y="399"/>
      <point x="132" y="419"/>
      <point x="164" y="419" type="curve" smooth="yes"/>
      <point x="196" y="419"/>
      <point x="233" y="409"/>
      <point x="275" y="390" type="curve" smooth="yes"/>
      <point x="318" y="370"/>
      <point x="360" y="360"/>
      <point x="401" y="360" type="curve" smooth="yes"/>
      <point x="447" y="360"/>
      <point x="488" y="378"/>
      <point x="521" y="414" type="curve"/>
      <point x="521" y="491" type="line"/>
      <point x="484" y="453"/>
      <point x="441" y="432"/>
      <point x="406" y="432" type="curve" smooth="yes"/>
      <point x="375" y="432"/>
      <point x="338" y="442"/>
      <point x="296" y="461" type="curve" smooth="yes"/>
      <point x="253" y="481"/>
      <point x="212" y="491"/>
      <point x="170" y="491" type="curve" smooth="yes"/>
      <point x="123" y="491"/>
      <point x="84" y="473"/>
      <point x="51" y="438" type="curve"/>
    </contour>
    <contour>
      <point x="51" y="68" type="line"/>
      <point x="521" y="68" type="line"/>
      <point x="521" y="139" type="line"/>
      <point x="51" y="139" type="line"/>
    </contour>
    <contour>
      <point x="51" y="200" type="line"/>
      <point x="90" y="239"/>
      <point x="132" y="259"/>
      <point x="164" y="259" type="curve" smooth="yes"/>
      <point x="196" y="259"/>
      <point x="233" y="249"/>
      <point x="275" y="230" type="curve" smooth="yes"/>
      <point x="318" y="210"/>
      <point x="360" y="200"/>
      <point x="401" y="200" type="curve" smooth="yes"/>
      <point x="447" y="200"/>
      <point x="488" y="218"/>
      <point x="521" y="254" type="curve"/>
      <point x="521" y="331" type="line"/>
      <point x="484" y="293"/>
      <point x="441" y="272"/>
      <point x="406" y="272" type="curve" smooth="yes"/>
      <point x="375" y="272"/>
      <point x="338" y="282"/>
      <point x="296" y="301" type="curve" smooth="yes"/>
      <point x="253" y="321"/>
      <point x="212" y="331"/>
      <point x="170" y="331" type="curve" smooth="yes"/>
      <point x="123" y="331"/>
      <point x="84" y="313"/>
      <point x="51" y="278" type="curve"/>
    </contour>
  </outline>
</glyph>
<glyph name="tripletilde" format="2">
  <advance width="572"/>
  <unicode hex="224B"/>
  <anchor x="286" y="279" name="center"/>
  <outline>
    <contour>
      <point x="51" y="374" type="line"/>
      <point x="90" y="413"/>
      <point x="132" y="433"/>
      <point x="164" y="433" type="curve" smooth="yes"/>
      <point x="196" y="433"/>
      <point x="233" y="423"/>
      <point x="275" y="404" type="curve" smooth="yes"/>
      <point x="318" y="384"/>
      <point x="360" y="374"/>
      <point x="401" y="374" type="curve" smooth="yes"/>
      <point x="447" y="374"/>
      <point x="488" y="392"/>
      <point x="521" y="428" type="curve"/>
      <point x="521" y="505" type="line"/>
      <point x="484" y="467"/>
      <point x="441" y="446"/>
      <point x="406" y="446" type="curve" smooth="yes"/>
      <point x="375" y="446"/>
      <point x="338" y="456"/>
      <point x="296" y="475" type="curve" smooth="yes"/>
      <point x="253" y="495"/>
      <point x="212" y="505"/>
      <point x="170" y="505" type="curve" smooth="yes"/>
      <point x="123" y="505"/>
      <point x="84" y="487"/>
      <point x="51" y="452" type="curve"/>
    </contour>
    <contour>
      <point x="51" y="54" type="line"/>
      <point x="90" y="93"/>
      <point x="132" y="113"/>
      <point x="164" y="113" type="curve" smooth="yes"/>
      <point x="196" y="113"/>
      <point x="233" y="103"/>
      <point x="275" y="84" type="curve" smooth="yes"/>
      <point x="318" y="64"/>
      <point x="360" y="54"/>
      <point x="401" y="54" type="curve" smooth="yes"/>
      <point x="447" y="54"/>
      <point x="488" y="72"/>
      <point x="521" y="108" type="curve"/>
      <point x="521" y="185" type="line"/>
      <point x="484" y="147"/>
      <point x="441" y="126"/>
      <point x="406" y="126" type="curve" smooth="yes"/>
      <point x="375" y="126"/>
      <point x="338" y="136"/>
      <point x="296" y="155" type="curve" smooth="yes"/>
      <point x="253" y="175"/>
      <point x="212" y="185"/>
      <point x="170" y="185" type="curve" smooth="yes"/>
      <point x="123" y="185"/>
      <point x="84" y="167"/>
      <point x="51" y="132" type="curve"/>
    </contour>
    <contour>
      <point x="51" y="214" type="line"/>
      <point x="90" y="253"/>
      <point x="132" y="273"/>
      <point x="164" y="273" type="curve" smooth="yes"/>
      <point x="196" y="273"/>
      <point x="233" y="263"/>
      <point x="275" y="244" type="curve" smooth="yes"/>
      <point x="318" y="224"/>
      <point x="360" y="214"/>
      <point x="401" y="214" type="curve" smooth="yes"/>
      <point x="447" y="214"/>
      <point x="488" y="232"/>
      <point x="521" y="268" type="curve"/>
      <point x="521" y="345" type="line"/>
      <point x="484" y="307"/>
      <point x="441" y="286"/>
      <point x="406" y="286" type="curve" smooth="yes"/>
      <point x="375" y="286"/>
      <point x="338" y="296"/>
      <point x="296" y="315" type="curve" smooth="yes"/>
      <point x="253" y="335"/>
      <point x="212" y="345"/>
      <point x="170" y="345" type="curve" smooth="yes"/>
      <point x="123" y="345"/>
      <point x="84" y="327"/>
      <point x="51" y="292" type="curve"/>
    </contour>
  </outline>
</glyph>
<glyph name="differencebetween" format="2">
  <advance width="572"/>
  <unicode hex="224F"/>
  <anchor x="286" y="349" name="center"/>
  <outline>
    <contour>
      <point x="51" y="342" type="line"/>
      <point x="216" y="342" type="line"/>
      <point x="216" y="413" type="line" smooth="yes"/>
      <point x="216" y="456"/>
      <point x="244" y="485"/>
      <point x="286" y="485" type="curve" smooth="yes"/>
      <point x="329" y="485"/>
      <point x="356" y="456"/>
      <point x="356" y="413" type="curve" smooth="yes"/>
      <point x="356" y="342" type="line"/>
      <point x="521" y="342" type="line"/>
      <point x="521" y="413" type="line"/>
      <point x="429" y="413" type="line"/>
      <point x="429" y="507"/>
      <point x="376" y="556"/>
      <point x="286" y="556" type="curve" smooth="yes"/>
      <point x="196" y="556"/>
      <point x="143" y="507"/>
      <point x="143" y="413" type="curve"/>
      <point x="51" y="413" type="line"/>
    </contour>
    <contour>
      <point x="51" y="143" type="line"/>
      <point x="521" y="143" type="line"/>
      <point x="521" y="214" type="line"/>
      <point x="51" y="214" type="line"/>
    </contour>
  </outline>
</glyph>
<glyph name="approxequalorimage" format="2">
  <advance width="572"/>
  <unicode hex="2252"/>
  <anchor x="286" y="278" name="center"/>
  <outline>
    <contour>
      <point x="461" y="-52" type="curve" smooth="yes"/>
      <point x="494" y="-52"/>
      <point x="521" y="-25"/>
      <point x="521" y="8" type="curve" smooth="yes"/>
      <point x="521" y="41"/>
      <point x="494" y="68"/>
      <point x="461" y="68" type="curve" smooth="yes"/>
      <point x="428" y="68"/>
      <point x="401" y="41"/>
      <point x="401" y="8" type="curve" smooth="yes"/>
      <point x="401" y="-25"/>
      <point x="428" y="-52"/>
    </contour>
    <contour>
      <point x="111" y="488" type="curve" smooth="yes"/>
      <point x="144" y="488"/>
      <point x="171" y="515"/>
      <point x="171" y="548" type="curve" smooth="yes"/>
      <point x="171" y="581"/>
      <point x="144" y="608"/>
      <point x="111" y="608" type="curve" smooth="yes"/>
      <point x="78" y="608"/>
      <point x="51" y="581"/>
      <point x="51" y="548" type="curve" smooth="yes"/>
      <point x="51" y="515"/>
      <point x="78" y="488"/>
    </contour>
    <contour>
      <point x="51" y="342" type="line"/>
      <point x="521" y="342" type="line"/>
      <point x="521" y="413" type="line"/>
      <point x="51" y="413" type="line"/>
    </contour>
    <contour>
      <point x="51" y="143" type="line"/>
      <point x="521" y="143" type="line"/>
      <point x="521" y="214" type="line"/>
      <point x="51" y="214" type="line"/>
    </contour>
  </outline>
</glyph>
<glyph name="correspondsto" format="2">
  <advance width="572"/>
  <unicode hex="2258"/>
  <anchor x="286" y="386" name="center"/>
  <outline>
    <contour>
      <point x="93" y="494" type="line"/>
      <point x="161" y="543"/>
      <point x="217" y="558"/>
      <point x="286" y="558" type="curve" smooth="yes"/>
      <point x="346" y="558"/>
      <point x="399" y="549"/>
      <point x="479" y="494" type="curve"/>
      <point x="516" y="552" type="line"/>
      <point x="438" y="609"/>
      <point x="369" y="629"/>
      <point x="286" y="629" type="curve" smooth="yes"/>
      <point x="204" y="629"/>
      <point x="134" y="609"/>
      <point x="56" y="552" type="curve"/>
    </contour>
    <contour>
      <point x="51" y="143" type="line"/>
      <point x="521" y="143" type="line"/>
      <point x="521" y="214" type="line"/>
      <point x="51" y="214" type="line"/>
    </contour>
    <contour>
      <point x="51" y="342" type="line"/>
      <point x="521" y="342" type="line"/>
      <point x="521" y="413" type="line"/>
      <point x="51" y="413" type="line"/>
    </contour>
  </outline>
</glyph>
<glyph name="estimates" format="2">
  <advance width="572"/>
  <unicode hex="2259"/>
  <anchor x="286" y="356" name="center"/>
  <outline>
    <contour>
      <point x="104" y="482" type="line"/>
      <point x="183" y="482" type="line"/>
      <point x="286" y="687" type="line"/>
      <point x="389" y="482" type="line"/>
      <point x="468" y="482" type="line"/>
      <point x="323" y="756" type="line"/>
      <point x="249" y="756" type="line"/>
    </contour>
    <component base="equal"/>
  </outline>
</glyph>
<glyph name="starequals" format="2">
  <advance width="572"/>
  <unicode hex="225B"/>
  <anchor x="286" y="483" name="center"/>
  <outline>
    <contour>
      <point x="170" y="470" type="line"/>
      <point x="286" y="554" type="line"/>
      <point x="402" y="470" type="line"/>
      <point x="356" y="605" type="line"/>
      <point x="472" y="689" type="line"/>
      <point x="330" y="689" type="line"/>
      <point x="286" y="823" type="line"/>
      <point x="242" y="689" type="line"/>
      <point x="100" y="689" type="line"/>
      <point x="215" y="605" type="line"/>
    </contour>
    <contour>
      <point x="51" y="143" type="line"/>
      <point x="521" y="143" type="line"/>
      <point x="521" y="214" type="line"/>
      <point x="51" y="214" type="line"/>
    </contour>
    <contour>
      <point x="51" y="342" type="line"/>
      <point x="521" y="342" type="line"/>
      <point x="521" y="413" type="line"/>
      <point x="51" y="413" type="line"/>
    </contour>
  </outline>
</glyph>
<glyph name="questionedequalto" format="2">
  <advance width="572"/>
  <unicode hex="225F"/>
  <anchor x="286" y="432" name="center"/>
  <outline>
    <contour>
      <point x="51" y="342" type="line"/>
      <point x="521" y="342" type="line"/>
      <point x="521" y="413" type="line"/>
      <point x="51" y="413" type="line"/>
    </contour>
    <contour>
      <point x="51" y="143" type="line"/>
      <point x="521" y="143" type="line"/>
      <point x="521" y="214" type="line"/>
      <point x="51" y="214" type="line"/>
    </contour>
    <contour>
      <point x="261" y="482" type="line"/>
      <point x="307" y="482" type="line"/>
      <point x="307" y="523" type="line"/>
      <point x="261" y="523" type="line"/>
    </contour>
    <contour>
      <point x="261" y="543" type="line"/>
      <point x="307" y="543" type="line"/>
      <point x="307" y="568" type="line" smooth="yes"/>
      <point x="307" y="578"/>
      <point x="313" y="588"/>
      <point x="321" y="596" type="curve" smooth="yes"/>
      <point x="340" y="613"/>
      <point x="363" y="634"/>
      <point x="363" y="662" type="curve" smooth="yes"/>
      <point x="363" y="698"/>
      <point x="332" y="722"/>
      <point x="287" y="722" type="curve" smooth="yes"/>
      <point x="238" y="722"/>
      <point x="209" y="697"/>
      <point x="209" y="652" type="curve"/>
      <point x="254" y="652" type="line"/>
      <point x="254" y="673"/>
      <point x="265" y="684"/>
      <point x="287" y="684" type="curve" smooth="yes"/>
      <point x="303" y="684"/>
      <point x="315" y="676"/>
      <point x="315" y="662" type="curve" smooth="yes"/>
      <point x="315" y="652"/>
      <point x="310" y="643"/>
      <point x="301" y="636" type="curve" smooth="yes"/>
      <point x="282" y="622"/>
      <point x="261" y="604"/>
      <point x="261" y="568" type="curve" smooth="yes"/>
    </contour>
  </outline>
</glyph>
<glyph name="lessoverequal" format="2">
  <advance width="572"/>
  <unicode hex="2266"/>
  <anchor x="286" y="278" name="center"/>
  <outline>
    <contour>
      <point x="521" y="215" type="line"/>
      <point x="521" y="288" type="line"/>
      <point x="159" y="409" type="line"/>
      <point x="521" y="531" type="line"/>
      <point x="521" y="604" type="line"/>
      <point x="51" y="434" type="line"/>
      <point x="51" y="384" type="line"/>
    </contour>
    <contour>
      <point x="51" y="-47" type="line"/>
      <point x="521" y="-47" type="line"/>
      <point x="521" y="24" type="line"/>
      <point x="51" y="24" type="line"/>
    </contour>
    <contour>
      <point x="51" y="113" type="line"/>
      <point x="521" y="113" type="line"/>
      <point x="521" y="184" type="line"/>
      <point x="51" y="184" type="line"/>
    </contour>
  </outline>
</glyph>
<glyph name="muchless" format="2">
  <advance width="833"/>
  <unicode hex="226A"/>
  <anchor x="416" y="275" name="center"/>
  <outline>
    <contour>
      <point x="802" y="19" type="line"/>
      <point x="802" y="97" type="line"/>
      <point x="455" y="275" type="line"/>
      <point x="802" y="453" type="line"/>
      <point x="802" y="531" type="line"/>
      <point x="351" y="300" type="line"/>
      <point x="351" y="250" type="line"/>
    </contour>
    <contour>
      <point x="482" y="19" type="line"/>
      <point x="482" y="97" type="line"/>
      <point x="135" y="275" type="line"/>
      <point x="482" y="453" type="line"/>
      <point x="482" y="531" type="line"/>
      <point x="31" y="300" type="line"/>
      <point x="31" y="250" type="line"/>
    </contour>
  </outline>
</glyph>
<glyph name="muchgreater" format="2">
  <advance width="833"/>
  <unicode hex="226B"/>
  <anchor x="416" y="275" name="center"/>
  <outline>
    <contour>
      <point x="351" y="19" type="line"/>
      <point x="802" y="250" type="line"/>
      <point x="802" y="300" type="line"/>
      <point x="351" y="531" type="line"/>
      <point x="351" y="453" type="line"/>
      <point x="698" y="275" type="line"/>
      <point x="351" y="97" type="line"/>
    </contour>
    <contour>
      <point x="31" y="19" type="line"/>
      <point x="482" y="250" type="line"/>
      <point x="482" y="300" type="line"/>
      <point x="31" y="531" type="line"/>
      <point x="31" y="453" type="line"/>
      <point x="378" y="275" type="line"/>
      <point x="31" y="97" type="line"/>
    </contour>
  </outline>
</glyph>
<glyph name="between" format="2">
  <advance width="348"/>
  <unicode hex="226C"/>
  <anchor x="174" y="278" name="center"/>
  <outline>
    <contour>
      <point x="52" y="-102" type="curve"/>
      <point x="131" y="-102" type="line"/>
      <point x="152" y="-81"/>
      <point x="167" y="-65"/>
      <point x="173" y="-57" type="curve"/>
      <point x="185" y="-71"/>
      <point x="199" y="-86"/>
      <point x="217" y="-102" type="curve"/>
      <point x="295" y="-102" type="line"/>
      <point x="264" y="-73"/>
      <point x="236" y="-41"/>
      <point x="213" y="-6" type="curve"/>
      <point x="269" y="78"/>
      <point x="297" y="171"/>
      <point x="297" y="275" type="curve" smooth="yes"/>
      <point x="297" y="379"/>
      <point x="269" y="474"/>
      <point x="213" y="560" type="curve"/>
      <point x="236" y="594"/>
      <point x="263" y="626"/>
      <point x="296" y="658" type="curve"/>
      <point x="217" y="658" type="line"/>
      <point x="207" y="648"/>
      <point x="192" y="633"/>
      <point x="173" y="612" type="curve"/>
      <point x="160" y="628"/>
      <point x="146" y="644"/>
      <point x="131" y="658" type="curve"/>
      <point x="51" y="658" type="line"/>
      <point x="84" y="626"/>
      <point x="112" y="594"/>
      <point x="134" y="560" type="curve"/>
      <point x="79" y="476"/>
      <point x="51" y="381"/>
      <point x="51" y="275" type="curve" smooth="yes"/>
      <point x="51" y="169"/>
      <point x="79" y="76"/>
      <point x="134" y="-6" type="curve"/>
      <point x="109" y="-42"/>
      <point x="82" y="-75"/>
    </contour>
    <contour>
      <point x="173" y="53" type="curve"/>
      <point x="129" y="149"/>
      <point x="119" y="205"/>
      <point x="119" y="276" type="curve" smooth="yes"/>
      <point x="119" y="346"/>
      <point x="129" y="404"/>
      <point x="173" y="500" type="curve"/>
      <point x="224" y="388"/>
      <point x="229" y="339"/>
      <point x="229" y="276" type="curve" smooth="yes"/>
      <point x="229" y="215"/>
      <point x="225" y="169"/>
    </contour>
  </outline>
</glyph>
<glyph name="notequivalentto" format="2">
  <advance width="572"/>
  <unicode hex="226D"/>
  <anchor x="286" y="278" name="center"/>
  <outline>
    <contour>
      <point x="202" y="4" type="line"/>
      <point x="445" y="522" type="line"/>
      <point x="384" y="552" type="line"/>
      <point x="142" y="33" type="line"/>
    </contour>
    <component base="equivalentto"/>
  </outline>
</glyph>
<glyph name="lessorequivalent" format="2">
  <advance width="572"/>
  <unicode hex="2272"/>
  <anchor x="286" y="280" name="center"/>
  <outline>
    <contour>
      <point x="521" y="174" type="line"/>
      <point x="521" y="247" type="line"/>
      <point x="159" y="368" type="line"/>
      <point x="521" y="490" type="line"/>
      <point x="521" y="563" type="line"/>
      <point x="51" y="393" type="line"/>
      <point x="51" y="343" type="line"/>
    </contour>
    <contour>
      <point x="51" y="-2" type="line"/>
      <point x="90" y="37"/>
      <point x="131" y="57"/>
      <point x="164" y="57" type="curve" smooth="yes"/>
      <point x="193" y="57"/>
      <point x="230" y="47"/>
      <point x="276" y="28" type="curve" smooth="yes"/>
      <point x="323" y="9"/>
      <point x="363" y="-2"/>
      <point x="401" y="-2" type="curve" smooth="yes"/>
      <point x="447" y="-2"/>
      <point x="487" y="16"/>
      <point x="521" y="52" type="curve"/>
      <point x="521" y="129" type="line"/>
      <point x="486" y="92"/>
      <point x="441" y="70"/>
      <point x="406" y="70" type="curve" smooth="yes"/>
      <point x="377" y="70"/>
      <point x="341" y="81"/>
      <point x="295" y="100" type="curve" smooth="yes"/>
      <point x="250" y="119"/>
      <point x="208" y="129"/>
      <point x="170" y="129" type="curve" smooth="yes"/>
      <point x="124" y="129"/>
      <point x="83" y="112"/>
      <point x="51" y="76" type="curve"/>
    </contour>
  </outline>
</glyph>
<glyph name="greaterorless" format="2">
  <advance width="572"/>
  <unicode hex="2277"/>
  <anchor x="286" y="279" name="center"/>
  <outline>
    <contour>
      <point x="51" y="240" type="line"/>
      <point x="521" y="409" type="line"/>
      <point x="521" y="459" type="line"/>
      <point x="51" y="629" type="line"/>
      <point x="51" y="556" type="line"/>
      <point x="413" y="434" type="line"/>
      <point x="51" y="313" type="line"/>
    </contour>
    <contour>
      <point x="521" y="-71" type="line"/>
      <point x="521" y="2" type="line"/>
      <point x="159" y="123" type="line"/>
      <point x="521" y="245" type="line"/>
      <point x="521" y="318" type="line"/>
      <point x="51" y="148" type="line"/>
      <point x="51" y="98" type="line"/>
    </contour>
  </outline>
</glyph>
<glyph name="precedes" format="2">
  <advance width="542"/>
  <unicode hex="227A"/>
  <anchor x="271" y="278" name="center"/>
  <outline>
    <contour>
      <point x="491" y="18" type="curve"/>
      <point x="491" y="104" type="line"/>
      <point x="425" y="163"/>
      <point x="286" y="246"/>
      <point x="192" y="276" type="curve"/>
      <point x="192" y="280" type="line"/>
      <point x="296" y="313"/>
      <point x="442" y="405"/>
      <point x="491" y="452" type="curve"/>
      <point x="491" y="538" type="line"/>
      <point x="376" y="430"/>
      <point x="187" y="332"/>
      <point x="51" y="301" type="curve"/>
      <point x="51" y="255" type="line"/>
      <point x="193" y="222"/>
      <point x="376" y="125"/>
    </contour>
  </outline>
</glyph>
<glyph name="precedesorequalto" format="2">
  <advance width="542"/>
  <unicode hex="227C"/>
  <anchor x="271" y="280" name="center"/>
  <outline>
    <contour>
      <point x="491" y="165" type="curve"/>
      <point x="491" y="253" type="line"/>
      <point x="418" y="318"/>
      <point x="312" y="371"/>
      <point x="212" y="394" type="curve"/>
      <point x="212" y="398" type="line"/>
      <point x="312" y="416"/>
      <point x="438" y="478"/>
      <point x="491" y="539" type="curve"/>
      <point x="491" y="620" type="line"/>
      <point x="403" y="530"/>
      <point x="266" y="463"/>
      <point x="51" y="418" type="curve"/>
      <point x="51" y="372" type="line"/>
      <point x="213" y="343"/>
      <point x="396" y="264"/>
    </contour>
    <contour>
      <point x="491" y="-60" type="curve"/>
      <point x="491" y="32" type="line"/>
      <point x="392" y="134"/>
      <point x="212" y="229"/>
      <point x="51" y="260" type="curve"/>
      <point x="51" y="189" type="line"/>
      <point x="195" y="166"/>
      <point x="417" y="41"/>
    </contour>
  </outline>
</glyph>
